<?xml version="1.0" encoding="utf-8"?>
<!-- Generator: Adobe Illustrator 19.0.1, SVG Export Plug-In . SVG Version: 6.00 Build 0)  -->
<svg version="1.1" id="Layer_1" xmlns="http://www.w3.org/2000/svg" xmlns:xlink="http://www.w3.org/1999/xlink" x="0px" y="0px"
	 viewBox="96 53 692 396" style="enable-background:new 96 53 692 396;" xml:space="preserve">
<style type="text/css">
	.st0{fill:#FFFFFF;}
</style>
<g id="_x33_Okpb1.tif">
	<g>
		<path class="st0" d="M322.7,235.6c-0.4-1.7,0.6-2.8,1.7-3.8c4.3-3.8,9.5-6.1,14.9-7.6c5.1-1.3,10.3-2,15.5-1.7c1.4,0.1,2.9,0,5,0
			c-4.6-3.7-8.2-7.5-11.8-11.3c-5.8-6.1-10.3-13.1-12.7-21.3c-2.7-8.8-2.9-17.6,0.9-26.3c4.1-9.5,11.4-15,21.4-17.2
			c7.9-1.7,15.7-0.7,23.5,1c4.3,0.9,8.6,2.2,12.7,3.8c-0.1-8.9-0.1-17.6-0.3-26.4c-0.1-4.3,1.6-6.6,5.9-6.6c4.1,0,8.4-0.2,12.5,0.1
			c2.6,0.1,3.8-0.8,4.8-3.1c4.2-9.8,12.5-14.2,22.4-15.4c5.1-0.7,10,1.3,14.4,4.1c4.1,2.7,7.4,6.2,11.3,9c0.4,0.3,0.8,0.8,1,1.2
			c1.9,4.8,5.7,8.5,7.9,13c0.8,1.6,1.8,3,2.6,4.6c1.2,2.9,2.9,5.3,5.7,7c1.9,1.1,1.9,1.3,3.6-0.3c1.9-1.9,4.1-3.5,6.5-4.7
			c1.8-0.9,3.6-1.9,5.7-2c1.3,0,2.6-0.8,3.5-1.8c3.5-4,8-6.7,13-9c0.2,3.9-3.5,7.9,0.2,11.8c1-1.4,0.6-2.9,0.6-4.1
			c0.2-5,2.7-8.5,6.8-11c3.9-2.3,8.4-2.9,12.7-3.5c0.7-0.1,1.3-0.1,2.1-0.2c-1.3-2.6-3.5-3.9-5.1-5.8c-3.7-4-6.4-8.6-6.8-14.2
			c-0.6-7.9,4.7-15.8,15-16.4c6.9-0.3,13.3,1.6,19.6,4c2.6,1,5.1,2.1,8.1,3.5c-1.2-3.1-2.1-5.8-2.6-8.7c-0.7-5,0.6-9.5,2.7-13.9
			c3-6.2,12.6-8.7,18.5-4.8c4.2,2.8,7.4,6.7,10,10.8c3,4.5,5,9.5,7.1,15c1.3-4,2.8-7.4,4.8-10.5c3.3-5.1,7.9-7.6,14.2-7.7
			c10.7-0.3,18.9,7.2,21.6,16.2c0.9,2.9,0.9,7.9,0,11.9c0.9-0.2,1.8-0.4,2.7-0.7c8.5-3,16.5-1.7,23.1,3.9c9,7.7,8,19.5-1.7,26.4
			c-3.3,2.3-7.4,3.2-11.5,4.6c1.7,1.9,4,2.2,5.9,3.2c6.9,3.6,13.1,7.8,17.6,14.4c2.6,3.8,4.8,7.8,4.1,12.7c-0.4,3.3-2.6,6.2-5.8,7
			c-7.1,1.7-14.2,1.1-20.8-1.8c-3.5-1.4-6.8-3.2-9.9-5.2c-1.2,0.8-0.2,1.4,0,2.1c0.8,2.5,1.8,4.8,2.5,7.2c0.4,1.4,0.8,3,0.4,4.3
			c-0.3,1.2-2.2,1.2-3.2,2.1c-0.9,0.8-2.1,1.2-2.1,2.7l0,0c-0.2,0-0.6-0.1-0.8-0.1c0.1-3.5-0.9-6.6-2.2-9.7
			c-0.7-1.4-1.7-2.8-2.3-4.2c-3.9-7.5-9.8-13-16.8-17.5c-1.4-0.9-2.7-0.9-4.1-0.2c-2.1,1.1-4.3,2.1-6.5,3.2
			c-2.3,1.1-3.2,2.3-2.3,4.7c1.9,5.1,3.3,10.5,5.1,15.6c3.2,9.7,19.8,16.4,28.5,9c0.1,2.5-1.1,4.7-1.4,7c-0.3,2.7-1,3.1-3.7,2.5
			c-1.8-0.4-3.6-1.4-5.5-1.3c-3.9,0.3-7.2-1.1-10.7-2.8c-3.1-1.6-5.9-3.7-9.4-5.2c0.1,2-0.4,3.7-0.9,5.3c-0.2,1-1.6,2.3-0.3,2.9
			c1.7,0.8,1.6-1.2,2.1-2.1c0.1-0.2,0.4-0.2,0.8-0.4c1.7,1,2.9,2.7,4.3,4c1.8,1.7,3.1,3.5,2.1,6.4c-0.6,1.7-0.3,3.8,0,5.6
			c0.3,2.2,1,4.5,3.1,5.8l0,0c0.2,0.9,0.4,1.8,0.7,2.6c-0.7,0.9-1.6,0.6-2.2,0.9c-3.2,1.3-5.7,3.5-6.8,6.9
			c-1.2,3.6-0.1,9.8,4.3,12.4l0,0c0.3,1,1.3,1.2,2,1.8c1.6,1.1,1.6,1.7,0.6,3.3c-2.7,4.1-6.4,7.2-10.6,9.8c-1.8,1-2.7,2.3-3.3,4.2
			c-1.2,3.7-1.9,7.6-3.8,11.3c3.9,2.7,7.7,5.5,11.7,7.9c4.9,3,9,6.9,12.7,11.1c5,5.8,9.4,12,12.8,18.9c2.1,4.2,3.2,8.9,3.7,13.5
			c0.6,6-1.4,11.4-5.8,15.8c-1.2,1.3-2.7,2.1-4.3,2.7c-5,1.8-10.1,2.5-15.4,3c-1.3,0.1-2.7,0.1-4-0.2c-2-0.6-4-0.2-5.9-0.6
			c0,3.6,0,6.8,0,10.1c0,2,0,4,0.4,6c0.8,3.5-0.9,6-4.5,6.9c-3.7,0.9-7.4,1.1-11,2c-2.5,0.6-5,0.9-7.4,1.9c-2.5,1-4.5,0.3-6.2-1.4
			c-0.7-0.7-1-1.7-2.1-1.8c-1.1,0.3-1.2,1.3-1.6,2.1c-1.1,3.3-2.6,6.5-4.7,9.4c-4.5,5.9-10.1,9.2-17.7,9.6
			c-8.5,0.3-16.2-2.1-23.7-5.3c-6.6-2.8-12.8-6.2-18.6-10.4c-1-0.7-2-1.3-3.3-1.3c-3-0.2-3.5,0-4.1,3.1c-2.5,11.3-8,20.8-17,28.1
			c-5.2,4.2-10.8,7.9-17.7,8.9c-3.8,0.6-7.2-0.2-10.7-1.1c-6.7-1.7-12.3-5.5-17.6-9.6c-7-5.5-13.1-11.9-18.4-19.2
			c-1-1.3-2-1.4-3.3-0.6c-4.8,2.8-9.6,5.3-14.9,7c-2.1,0.7-4.3,1.3-6.9,1.6c2.2,2.9,2.3,6.1,1.8,9.5c-0.6,3.2-2.1,5.8-5,7.4
			c-2.1,1.1-4.3,2.1-6.6,3.2c2.6,1.4,5.3,3,7.9,4.7c4.8,2.9,7.9,7.2,9.7,12.5c1.6,4.5-0.7,8.6-5.2,9.5c-5.3,1.1-10.1,0-14.8-2
			c-1.6-0.7-3.1-1.6-5-2.5c0.6,2.1,1.1,4,1.7,5.9c0.6,1.9,0.6,3.8,0.2,5.6c-1.6,7.5-7.4,9.2-13.5,7.7c-4.5-1.1-8.6-3.2-12.6-6
			c-0.8,6-4.1,9.9-9,12.7c-4,2.3-8,1.9-11.8-0.4c-3.6-2.1-6.9-4.7-9.4-8.2c-1.8,0.7-3.6,1.4-5.2,2c-7.1,2.3-13.7,1.7-19.8-2.8
			c-5.3-4-5.8-7.2-4.6-12.9c0.3-1.8,1.1-3.6,1.9-5.3c0.7-1.6,1.6-3.1,2.3-4.9c-1.4-1-3.1-1.4-4.7-2.1c-4.9-2-8.1-5.1-9.5-10.6
			c-1-4.5,2.7-10.8,7.9-11.9c2.2-0.4,4.3-1.3,7.6-0.8c-3.1-2.6-5-5-6.7-7.7c-3-5.1-2.9-11.8,2.9-16.3c-1.2-1.3-3-1.7-4.5-2.7
			c-1.4-0.9-2.9-1.9-4.5-2.9c-0.9,0.4-1,1.3-1.2,2.2c-1.4,8.2-6.4,13.9-13.4,18.2c-7,4.1-13.7,3.3-20.6-0.4c-4-2.2-7.2-5.1-10.4-8.2
			c-1.3-1.3-2.8-2.6-3.9-4.1c-1.1-1.4-2.2-1.7-3.8-0.7c-7.2,4.6-15.4,5.7-23.6,4.7c-9.6-1.2-17-6.2-22.4-14.3
			c-2.3-3.5-2-7.5-1.2-11.4c1-5.1,2.9-10,5.5-14.6c1-1.8,1.9-3.6,2.9-5.6c-4.6-1.2-8.9-2.5-12.8-4.8c-7.2-4.2-11.3-10.5-11.4-19.1
			c0-3.9,1.7-7,4-9.8c3.7-4.3,8.7-6.2,14-7.1c2.5-0.4,4.9-0.9,7.8-0.9c-4.9-4.2-9.2-8.5-11.9-14c-3.2-7-3.7-13.9,0.9-20.6
			c3.2-4.8,7.8-6.8,13.3-7.4c9.2-0.9,17.8,1.6,26.3,4.9c2,0.8,4,1.8,6.7,3c-2.1-3.6-2.9-6.9-3.1-10.4c-0.3-6.7,0.9-13.3,5.6-17.9
			c6.4-6.4,14.2-7.8,22.3-1.9c5.5,3.9,9,9.5,12.3,15.3c2,3.6,3.7,7.1,5.1,11.1c1.3-0.9,1.6-2.2,2-3.5c2.1-5.2,5.5-9.6,10.3-12.6
			c2.5-1.6,5-2.3,7.9-2.5c6.5-0.2,12.6,0.9,17.9,4.8c2.1,1.6,3.7,3.5,5.3,5.3C321.6,234.8,322,235.4,322.7,235.6
			c0,1.1,0.6,2,1.7,2.5c2.3,5.7,3.1,11.6,2.5,17.6c0,0.1,0.1,0.2,0.3,0.4c0.8-0.2,1.6-0.4,2.6-0.7c-0.8-0.6-1.3-1.1-1.3-2.1
			c0.1-1.4,0.1-3,0-4.5c-0.4-3.9-1.1-7.9-4-10.9C324.3,236.8,323.8,236,322.7,235.6z M358.2,306.7c-0.4-0.8-0.8-1.6-2-1.3
			C356.5,306.5,357.4,306.6,358.2,306.7c0.4,0.8,0.8,1.6,2.1,1.2C359.9,307.1,359.1,306.8,358.2,306.7z M317,392.4
			c-1-1.1-2.2-1.9-3.8-1.6c-0.4,0.1-1.1,0.4-1.4,0.2c-4-2.3-7.8-0.2-11.5,0.8c-2.7,0.7-4.2,3.2-4,5.3c0.3,3,1.6,5.5,4.7,6.5
			c1.7,0.6,3.3,1,5.1,1c4.1,0,8.4-0.1,12.4-0.9c4-0.8,8.1-1.4,12-3.1c2.2-1,3-2,2.7-3.9c-0.3-2.1-1.9-3.9-3.9-4
			c-3.8-0.2-7.5-0.8-11.1-1.4C317.1,391,317.1,391.7,317,392.4L317,392.4z M363.1,310.8c-0.2-0.3-0.3-0.7-0.6-0.9
			c-0.1-0.1-0.6-0.3-0.6-0.2c-0.4,0.3-0.2,0.7,0.1,0.9C362.3,310.6,362.8,310.7,363.1,310.8c-0.1,1,0.7,1.8,1.3,2.3
			c2.2,2.1,3.9,4.8,5.6,7.4c2.2,3.5,3.2,7.4,3,11.5c-0.3,4.2-2.8,7.5-6.8,8.9c-7.8,2.6-15.4,1.6-22.8-0.9c-4.6-1.6-8.7-3.8-13.3-6.4
			c0.7,1.9,1.2,3.3,1.8,4.8c0.9,1.9,0.4,4.6,2.1,5.9c1.6,1.2,3.9,1.6,5.9,2.3c0.1,0,0.2,0,0.3-0.1c0.4-1,0.1-2.1,0-3.1
			c-0.2-1.9,0.4-2.7,2-1.8c3.6,1.8,7.5,2.6,11.3,2.6c4.1,0,6.1,2.1,8.1,5.1c1.3,2-0.4,1.8-1.3,2.3c0.2,0.1,0.6,0.2,0.8,0.2
			c0.4,0,0.8,0,1.2-0.1c4.3-0.6,8.4,0.3,11.5,3.3c1.4,1.4,2.8,0.9,4.2,1c1.4,0,2-0.6,1.9-1.9c-0.2-2-0.6-4-0.6-6
			c0.1-14.3-0.6-28.5-0.9-42.8c0-0.9,0.4-1.9-0.9-2.6c-3.8,2.5-7.4,5.2-10.5,8.6c-1,1.1-1.9,1.3-3,0.1
			C363.8,311.2,363.4,311.1,363.1,310.8z M322.7,360.1c0.2,1.4-0.6,3.2,1.2,4.3C323.2,363,323.8,361.3,322.7,360.1
			c0.1-3.9,0.4-7.7,2.9-11c0.3-0.4,1-1,0.3-1.7c-2.6-3.1-3.7-7-5.8-10.5c-4.5-7.6-10.3-13.7-17.5-18.5c-3.1-2-6-2-9-0.2
			c-1.4,0.9-3,1.7-4.7,2.3c-3.2,1.1-4.3,3.3-3.1,6.5c0.9,2.3,1.4,4.9,2.1,7.2c1.2,4,2.3,8,4.3,11.7c5.1,9.5,16,14.5,26.5,12
			C321.2,357.3,321.2,357.3,322.7,360.1z M481,229.4c-0.3,1.7-1.7,2-2.6,2.7c-2.7,1.8-4.3,4.1-5.7,7.1c-2,4.8-2.2,9.7-2,14.6
			c0.4,9.7,8.6,17.6,17.5,16.6c2.9-0.3,5.6-0.8,8.1-2c1.4-0.7,2.7-1.7,4.3-1.9c1.1,1.9-0.1,4.1,1,6c3-0.4,6.1-0.8,9-1.6
			c1.8-0.4,4.1-0.1,5.2-1.7c0.9-1.2-0.2-3.1-0.1-4.7c0.4-13.8-1-27.7-0.8-41.6c0.1-4.6-0.1-9.1-1.6-13.6c-1.6-5-3.7-9.5-8.2-12.5
			c-0.6-0.3-1.6-0.8-1.1-1.9c3.3-0.8,6.5-2,9.6-3.8c3-1.8,4.8-4.2,5.8-7.5c1.7-5.1,2.9-10.4,2.8-15.7c0-3.1-0.2-6.2,0-9.2
			c0.3-5.1-1.2-9.6-3.7-13.8c-1.7-2.9-3.9-5-6.9-6.5c-2.9-1.4-5.9-1.4-9-1.6c-9.1-0.3-17,6.4-19.2,14.8c-0.1,0.6-0.2,1.1-1.1,1
			c-1.1-1.6-1.3-3.7-2.1-5.5c-2.1-4.9-7.4-7.6-12.1-5.8c-2.6,0.9-4.6,2.8-7.6,4.1c0.6-4.3-0.6-8.2-0.6-12.3c0-4.3,0-8.6-0.1-12.9
			c0-2.9-0.1-2.9-2.8-3c-1.9,0-3.8-0.1-5.7,0c-1.6,0.1-3.5-0.7-4.7,0.4c-1.1,1-0.3,2.8-0.4,4.2c-0.1,1.7-0.8,2.5-2.5,2.5
			c-1.1,0-2.2,0.1-3.2,0c-4.3-0.7-8.8-0.6-13.1-0.6c-8.8,0-17.5-0.1-26.3-0.1c-3.2,0-3.6,0.1-3.1,3.3c0.7,6.1,0.6,12.4,0.7,18.5
			c0,2,0.4,2.5,2.3,2.1c4.8-0.9,9.6-1.4,14.4-1.7c2.5-0.1,2.6-0.1,2.7,2.2c0.1,1.4,0,3,0,4.5c0,13.9,0,27.7,0,41.7
			c0,1.1,0,2.1,0,3.2c0,0.9,0.6,1.1,1.3,1c4.7-0.8,9.2-1.3,13.9-1.4c1.4,0,2.1-0.8,2.2-2.3c0.1-2.5-0.8-4.8-0.7-7.2
			c0.1-7.2-0.1-14.6-0.1-21.8c0-1.1,0.1-2.2-0.1-3.2c-1.1-6.5-0.3-12.9-0.7-19.4c-0.1-1.3,0.6-1.9,1.9-1.9c2.5,0,4.9,0,7.2,0.1
			c3,0.1,3,0.1,3.1,3.2c0,0.6,0,1.1,0,1.7c0,15,0.1,30.2,0.1,45.2c0,0.8,0,1.7,0,2.5c0.1,2,0.6,2.6,2.5,2.2
			c4.1-0.8,8.2-0.7,12.5-0.8c1.3,0,1.9-0.7,1.9-2c0-0.7,0-1.3,0-2c-0.3-8,0.6-16.2-0.8-24.2c-0.1-0.9,0.1-1.9,0.4-2.8
			c0.4-1,0.9-2.1,2.2-1.9c1.2,0.2,2.2,1,2.1,2.5c0,2,0,4,0,6c0,7.6,0,15,0,22.6c0,2.5,0.1,2.6,2.6,2.3c4.2-0.3,8.6-0.9,12.8-0.8
			c1.3,0,1.4-0.9,1.4-1.9c-0.1-3.5-0.1-7-0.2-10.5c0-0.7-0.2-1.3,1-1.7c1.8,5.3,5.9,8.9,11,12.4c-6.2,0.7-11.6,2.1-16.4,5.3
			c-4.8,3.3-7.6,8.1-9.8,13.4c-0.4-0.3-0.6-0.4-0.7-0.6c-0.3-0.7-0.8-1.4-1.1-2.1c-3.6-6.4-9.1-9.6-16.2-10.8
			c-6-1.1-12-0.9-18.1-0.8c-2.6,0-5,0.7-7.6,1.1c-1.6,0.2-2.5,1-2.5,3c0.1,9.1,0.1,18.3,0.1,27.5c0,2.2,0.7,4.5,0.4,6.7
			c-0.1,0.7-0.1,1.3-0.8,1.7c-0.7,0.3-1-0.3-1.3-0.7c-1.9-1.8-4.1-2.9-6.6-3.7c-0.7-0.2-1.3-0.2-1.4-1.1c0.6-1.3,1.8-2,2.6-3
			c5.1-5.8,6.6-12.5,4.5-19.8c-2.3-7.6-8.1-11.7-15.4-13.1c-9.1-1.9-18.4-1.9-27.7-1.7c-2.8,0.1-2.9,0.1-2.8,3
			c0.1,5.9,0.2,11.8,0.8,17.7c0.6,5.9,0.1,11.8,0.7,17.7c0.7,6.6,0.4,13.1,0.8,19.7c0.4,8,0.4,16.2,1,24.2c0.1,1.6,0.2,2.7,2.2,2.5
			c1.3-0.1,2,0.6,2,1.9c-0.1,3.2,0.6,6.5,0.6,9.6c0.2,14,0.1,28,0.9,42c0.3,7.2,0.2,14.6,0.1,21.8c0,2.2,0.6,4.2,0.7,6.4
			c0,1,0.7,1.3,1.6,1.4c1.9,0.2,3.7-0.6,5.6-0.8c6.6-0.6,13-1.8,19.2-4.1c8.4-3.2,15.5-8,19.3-16.6c0.1-0.3,0.6-0.4,0.9-0.7
			c4.7,10.3,14.8,14.3,27.5,7.2c0.1,0.3,0.3,0.7,0.4,1.1c0.8,3.5,0.8,3.3,4.1,3.3c3.9,0,7.7-1.3,11.5-1.6c1.7-0.1,1.9-0.8,2-2.3
			c0.1-3-0.7-5.9-0.8-8.8c-0.4-11,0.3-22.1-0.7-33.1c-0.4-5.9-0.2-11.8-0.2-17.6c0-1.3-0.4-2.7-0.7-3.9c-0.3-1.4-1.2-1.9-2.6-2
			c-2.3-0.2-4.5,0.9-6.8,0.8c-3.5-0.1-6.9,0.6-10.1,1.1c-0.1,4.6,0.3,9.1,1.1,13.6c0.7,4.2,0.6,8.6,1.2,12.8
			c0.7,3.8,0.4,7.8,0.9,11.6c0.3,2.6-1.2,3.7-4.5,4c-2.6,0.2-3.8-0.6-4.2-3.1c-0.4-2.5-1-5-1-7.6c0.1-8.4,0.1-16.7,0.1-25.1
			c0-0.9,0-1.9,0-2.8c0-0.8-0.4-1.2-1.2-1.2c-0.9,0-1.9,0-2.8,0c-4.7-0.2-9.4,0.7-14,0.8c-1.8,0-2.9-0.4-4-2
			c-2.8-4-6.7-6.5-11.5-7.6c-4-0.9-7.9-1.9-12.5-3c3-1.8,5.7-3.2,8.2-4.8c2.8-1.7,5.2-3.7,7.6-6c2.2-2.1,3.2-5,5.7-7.6
			c0.9,5.5-0.1,10.5,0.7,15.3c4.6-0.8,8.9-1.4,13.3-2.2c2.3-0.3,2.6-0.6,2.6-3.1c0-5.1-0.1-10.3-0.1-15.4c0-1.6-0.8-4,0.8-4.5
			c2.1-0.6,2.8,2,3.7,3.6c3.1,5.8,6.1,11.7,9.2,17.5c0.7,1.1,0.9,2.7,2.1,3.3c1.2,0.7,2.3-0.4,3.5-0.4c0.7,0,1.3,0,2-0.1
			c3.9-0.7,7.9-0.7,11.9-2.1c-2.6-4.5-5-8.6-7.4-12.7c-2.3-4-4.8-8.1-7.1-12.1c-1.2-2.2-1.1-2.2,0.9-3.8c3.2-2.8,6.9-5.1,8.7-9.2
			c0.3-0.9,1.1-1.1,1.9-1.1C474.3,229.8,477.5,229.9,481,229.4z M565.5,247.5c0,1.4-0.1,2.1,0,2.8c1,4.6,0.6,9.1,0.7,13.7
			c0.1,3,0,3-3.1,3.2c-2.5,0.2-2.6,0.2-2.6,2.5c0,5.8,0,11.6,0.1,17.4c0,0.8,0.3,1.6,0.4,2.3c0.1,0.4-0.1,0.8-0.6,1s-0.8-0.1-1-0.4
			c-0.2-0.3-0.4-0.7-0.7-1c-2.7-4.6-6.6-7.7-11.5-9.7c-3.1-1.2-6.4-2-9.8-1.1c-6.4,1.6-10.9,5.3-14.4,10.8c-1.2,2-1.6,4.6-3.5,6.2
			c-1-1.9-1.9-3.7-3-5.3c-2.6-3.9-6.4-6-10.8-6.1c-3.6-0.1-7.1,1.1-9.9,3.8c-0.7,0.6-1.1,1.7-2.5,1c-0.7-1.4,0.2-3.3-0.8-4.9
			c-3.8,0.7-7.5,1.2-11.1,2c-2.8,0.6-2.8,0.7-2.8,3.2c0,5.2,0.6,10.5,0.6,15.7c0,15.4,1,30.6,1.1,46c0,1.2-0.3,2.5,0.3,3.6
			c4.7-0.7,9.2-1.3,13.9-2.1c2.1-0.3,2.6-0.8,2.3-2.8c-0.1-1.3-0.6-2.6-0.6-4c0-11.1-0.1-22.4-0.1-33.5c0-0.9,0-1.9,0.3-2.8
			c0.3-1,1.1-1.4,2.2-1.3c0.9,0.1,1.3,0.8,1.6,1.7c0.1,0.3,0.1,0.8,0.1,1.2c-0.3,5.9,0.8,11.8,0.8,17.7c0,4.7,0,9.5,0.1,14.2
			c0,3.3,0,6.7,0,10.3c2.6-0.7,4.8-0.4,7-0.6c2.5,0,4.9,0,7.2,0c6.5,0,6.6-0.1,5.6-6.5c-0.1-0.4-0.3-0.8-0.3-1.1
			c-0.4-4.2-0.3-8.6-0.2-12.9c1,0.4,1.2,1.1,1.4,1.8c1.2,4.2,3.8,7.7,6.8,10.8c2.9,3,6.4,4.8,10.7,4.8c9.1,0,16-3.5,20.3-11.8
			c0.2-0.4,0.6-0.9,1.2-0.9s0.8,0.7,0.8,1.2c0,2.1,0,4.3,0.1,6.5c0,2.7-0.1,5.2,0.1,7.8c5.2-0.6,9.7-2.3,14.4-3.5
			c1.9-0.4,2.2-1.4,2.3-3.1c0.1-2.5-0.7-4.8-0.7-7.2c0-7.8-0.1-15.6-0.1-23.4c0-1.1,0-2.1,0.1-3.2c0.3-1.8,1.6-3.1,2.7-3.1
			c1.1,0,2.2,1.3,2.1,3.3c-0.2,5.9,0.9,11.8,0.9,17.7c-0.1,6.5,1.1,12.8,1,19.3c0,0.9,0.2,1.8,0.4,2.8c0.9,0.1,1.6,0,2.3-0.2
			c4.2-1.2,8.6-2.2,12.9-2.9c3.5-0.6,3.5-0.4,3.5-3.7c0-0.6,0-1.1,0-1.7c-0.4-8.6-0.8-17.2-1.4-25.7c-0.4-6.2-0.3-12.6-0.9-18.9
			c-0.6-5.3-2.5-10-6.6-13.3c-4.1-3.3-9-3.9-14.2-1.9c-1,0.4-2,1.4-3.6,0.9c0-2.1,0-4.3,0-6.5c0-4.8-0.3-4.3,4.2-4.6
			c5.2-0.2,9.5-2.3,12.4-7c4.9-8.1,7.6-17.2,9.9-26.2c1.9-7.5,3.2-15.2,4.7-22.7c1.4-7.2,2.8-14.5,4.1-21.7c0.4-2.6-0.1-3.2-2.7-2.8
			c-3.8,0.7-7.7,1.3-11.6,1.6c-1.7,0.1-2.2,0.8-2.6,2.5c-1.6,7.2-3.1,14.4-4.8,21.5c-0.8,3.2-1.1,6.6-2.8,9.8
			c-0.2-0.7-0.4-1-0.6-1.3c-2.9-7.8-4.5-15.9-6.4-24.1c-0.3-1.4-0.4-2.7-2.3-2.7c-6.7,0.1-13.4-0.1-20.4,1.2c1,3.2,2,6.4,2.3,10.1
			c-2.7-1-4.1-3-6-4.3c-10-7.1-21-11.4-33.4-11c-3.1,0.1-3,0.1-2.7,3c0.1,0.9,0.1,1.9,0.1,2.8c0.2,5.5,0.3,11,0.7,16.5
			c0.4,7.4,0.9,14.7,1,22.2c0.1,8.5,1,16.9,1.1,25.4c0,3.7,0.3,7.5,0.7,11.6c6.4-2.7,11.8-6.2,17-10.3c6.4-4.8,12.3-10,17.3-16.3
			c3.7-4.7,7.2-9.4,9-15c0.2-0.9,0.2-1.9,1.4-2.3c0.7,1.3,1,2.7,1.3,4.1c0.7,3.3,1.9,6.5,3.6,9.4c1.8,3.2,4.2,5.6,8.2,5.5
			c0.4,0,1.1-0.1,1.2,0.8c-2.3,1.2-4.9,2.1-7.7,1.8C570.2,253.8,568.4,250.6,565.5,247.5z M413.3,192.5c0-3.6,0-7.1,0-10.6
			c0-0.9-0.6-1.4-1.2-2c-7.5-6-15.4-11.4-24.3-14.8c-7.1-2.8-14.4-5.6-22.2-2.3c-0.2,0.1-0.6,0-0.8,0.1c-4,0.9-8.1,1.8-11.8,3.8
			c-5.2,2.8-7.8,7-7.6,13c0.1,4.1,1.8,7.6,4,10.8c3.9,5.7,9.1,10.3,14.2,14.8c2,1.8,4.5,3.3,7.1,4.1c0.6-1.2,0.4-2.3,0.2-3.3
			c-0.9-3.5-0.6-6.9-0.6-10.5c0-3.5,1.6-4.8,5-5.7c2.6-0.6,5-0.7,7.6-0.7C393,189.5,403,190.2,413.3,192.5z M219.4,356
			c1.9,0,3.8,0.2,5.7,0c6.5-0.8,11.7-3,14.8-9.4c3.9-7.8,6.7-16,10.1-24.1c1.1-2.7,1.8-5.2,0.8-8c-0.7-2-0.6-2.2-2.7-1.4
			c-8.4,2.9-16.9,5.2-25.1,8.6c-6.1,2.6-12,5.3-16.6,10.4c-2.8,3.2-4.8,6.7-5.6,10.9c-0.8,4.7,1.3,8.6,5.6,10.9
			C210.5,356,214.9,356.2,219.4,356z M237.3,282.4c1.8,0.2,4.5-0.3,7-1c3.8-1,5.5-4.6,3.7-8.1c-0.8-1.7-1.9-3.2-3.2-4.6
			c-2-2-4-4-6-6c-4.9-4.9-10.5-8.8-16.7-11.6c-3.7-1.7-7.4-3.5-11.5-3.3c-4,0.1-8,1-11.7,2.6c-3.3,1.3-5,3.9-4.7,7.6
			c0.2,2.7,1.4,4.8,3.1,6.8c5.1,6.2,11.8,10.4,19.3,13.4C222.8,280.6,229.4,282.4,237.3,282.4z M208.4,312.3
			c5.2,0.3,10.4-0.9,15.5-1.4c7.6-0.8,14.7-3.1,21.6-6c3.5-1.4,4-2.7,3.5-6.4c-0.1-1-0.6-2.1-0.9-3.1c-0.7-1.9-2-3-4.1-3.2
			c-6.2-0.7-12.5-1.4-18.7-2.5c-7.1-1.1-14.3-2.1-21.5-1.4c-3.8,0.3-7.4,1.2-10.8,3c-5.2,2.8-6.7,7-4.7,12.5c1.3,3.8,4.3,5.7,7.8,7
			C200,312.2,204.1,312.6,208.4,312.3z M334.8,254.1c0.8,0,1.7-0.1,2.6,0c8.2,0.6,15.8,2.7,21.3,9.7c2.9,3.7,4.7,7.9,4.3,12.6
			c-0.6,7.2-3.8,12.9-10.4,16.7c-3.5,2-7.2,3.1-11.5,4.6c4.3,1.7,8,3.7,11.8,5.6c-1-1.1-0.9-2.2-0.2-3.3c0.9-1.4,2.1-2.9,2.6-4.6
			c0.3-1.1,0.7-1.8,1.4-2.6c3.6-3.6,6.8-7.2,7.1-12.6c0.1-2.2,1.1-2.9,3.2-2.3c1.7,0.4,3.1,0,4.8-0.1c1.2-0.1,1.7-0.7,1.7-1.8
			c0-0.9,0-1.9,0-2.8c-0.3-6.5-1-12.8-0.8-19.3c0.1-6.2-1.1-12.4-0.8-18.5c0.1-1.8-0.9-1.9-2.2-2c-2.7-0.2-5.3,0.6-8,0.8
			c-6.6,0.7-12.9,2.2-18.7,5.6c-4.9,2.8-8.6,6.5-8.1,12.8C334.8,253,334.2,253.3,334.8,254.1z M278.5,314c0.3,0,1.6,0.1,2.8-0.2
			c1.1-0.2,2.2-0.9,3.3-1.3c5.8-2.1,8.8-6.6,9.6-12.4c2.2-15.9-15.2-26.1-25.9-22.5c-7.9,2.6-14.2,10.3-11.6,20.1
			C259.2,306.9,267.2,314,278.5,314z M552.9,178.9c2.7,0.4,5.1-0.4,7.6-1c4.8-0.9,8.4-3.5,10.1-8.1c0.1-0.3,0.3-0.8,0.4-1.1
			c3.3-7,5.9-14.4,8.9-21.6c0.8-1.8-0.2-3.1-0.3-4.7c0-1.3-0.8-1.6-1.9-1.2c-2.1,0.7-4.3,1.4-6.5,2.2c-6.2,2-12.5,4-18.5,6.7
			c-4.5,2-8.6,4.5-11.8,8.2c-2.8,3.3-4.3,7.1-3.9,11.5c0.2,3,1.6,5.3,4.5,6.6C545.2,178,549,178.7,552.9,178.9z M278.2,343.3
			c0.6-4.2-0.4-9.5-1.9-14.5c-1.1-3.9-2.7-7.6-7.5-8.6c-1.9-0.4-3.3-0.6-4.7,1c-0.7,0.8-1.6,1.6-2,2.5c-2.7,4.9-6.2,9.4-7.8,14.8
			c-1.7,5.9-4,11.6-2.9,17.9c0.7,3.7,2.2,6.2,5.2,8c1.7,1,3.7,1.6,5.5,2.5c3.3,1.8,6.2,0.8,8.8-1.4c3.3-2.8,5.1-6.5,6.2-10.5
			C278.3,351.6,278.2,347.9,278.2,343.3z M353.6,332.6c0.8,0,1.2,0,1.7,0c4.2,0,5.3-1.4,4.1-5.5c-0.1-0.2-0.2-0.4-0.3-0.8
			c-2-6.2-6.7-10.4-11.7-13.9c-7.1-5-15.2-8.6-23.6-10.8c-4-1-7.9-2.5-12.1-2.1c-4.9,0.4-5.7,1.7-4.2,6.1c0.3,1,0.8,2,1.3,2.9
			c3.8,6.2,8.4,11.7,15.2,14.9c4.1,2,8.4,3.8,12.6,5.2C342.2,330.8,348.1,332.3,353.6,332.6z M571.4,114.6c0.6-0.1,1.3-0.2,2.1-0.3
			c4.1-0.7,5.7-3.7,3.7-7.2c-0.2-0.4-0.6-0.9-0.9-1.3c-3.2-5-8.2-8.5-12.7-12.1c-3.7-3.1-8-5.2-12.6-6.9c-6.4-2.2-12-1.1-17.5,2.3
			c-2.7,1.7-3.1,3.8-2.2,6.8c1.3,4.5,4.9,7,8.2,9.6c5.6,4.3,12.1,6.9,18.8,8.6c2.9,0.7,6,1.2,9.1,1.2
			C568.8,115.2,569.8,113.6,571.4,114.6z M542.9,119.9c-4-0.2-8.9,0.7-13.6,3c-1.4,0.8-2.8,1.8-3.5,3.2c-1.9,4.9,0.7,10.8,5.7,12.7
			c3,1.1,6.1,1.9,9.4,1.9c7.8,0.1,15.5-1.1,23.1-2.8c4-0.9,8-2.1,11.7-4.1c0.8-0.4,1.7-0.8,2.1-1.8c1.8-4.2-1-8.8-5.6-9
			c-3.2-0.1-6.4-0.9-9.6-1.3C556.7,121.1,550.4,120.1,542.9,119.9z M317,291.3c3.9,0,7.8-0.3,11.7-0.7c3.8-0.3,7.1-1.4,10.3-3.5
			c2.1-1.3,4.2-2.8,6.2-4.3c2.9-2.2,4.9-4.9,5.5-8.6c0.4-3.1-1.7-7.1-4.3-8.7c-4-2.3-8.4-1.9-12.6-1.3c-8,1.1-14.6,5.2-20.2,11
			c-2,2.1-4,4.3-5.9,6.6c-0.8,0.9-2.3,1.6-2.2,2.8c0.1,1.6,0.3,3.2,1.2,4.7c0.8,1.3,1.9,2.2,3.6,2.1
			C312.4,291.2,314.7,291.3,317,291.3z M598,110.4c-2.7,0.2-5.3,1.7-8.1,3.6c-3.8,2.7-5.2,6-5.2,10.3c0,5.8,2.2,10.6,7.1,14
			c4.7,3.3,9.5,5,15,3.5c6.5-1.8,11.5-7.6,10.7-14.7C616.7,118.3,608.4,110.4,598,110.4z M270.1,258.9c0.2-3.8-0.1-8-0.9-12.3
			c-0.9-4.6-1.9-9.2-4.2-13.4c-2.3-4.1-5-7.9-10-9.4c-2.9-0.9-5.5-0.4-7.8,1.8c-2.9,2.9-3,6.5-2.6,10c0.7,5.7,2.8,10.8,5.3,15.9
			c2.2,4.3,4.8,8.4,7,12.6c1.8,3.5,4.1,4.7,7.7,4.3c1.3-0.1,2.7-0.1,4-0.1c1,0,1.4-0.6,1.4-1.4C270.1,264.6,270.1,262,270.1,258.9z
			 M286.3,259.9c0.1,3.5,0.7,6.1,1.9,8.6c2.1,4.3,6.1,5.1,9.2,1.6c2.9-3.3,6.2-6.2,9.4-9.4c1.6-1.4,3.2-2.9,4.6-4.6
			c5-6.9,6.1-11.5,2.3-17.3c-4.3-6.6-10.9-8.6-17.5-2.1C289.4,243.2,287.7,251.8,286.3,259.9z M579.7,175.9c0.8,3,0.7,6.4,3.6,8.7
			c2.2,1.8,4.7,3.1,7.5,3.9c2.5,0.7,4.7,0,6.4-1.6c3-2.9,5.5-6.5,5.9-10.8c0.7-7.5,0.9-14.9-1.7-22.3c-0.4-1.3-1.1-2.8-2-3.9
			c-2.3-3-7.2-3.1-9.2,0c-1.9,2.9-3.6,6-5.2,9c-1.8,3.2-2.8,7-3.9,10.6C580.4,171.5,580.2,173.7,579.7,175.9z M668.6,157.9
			c0.1,0,0.8,0,1.4,0c3.3-0.1,4.3-1.2,3.3-4.6c-0.8-2.6-2-5-3.9-7c-4.5-4.9-10-8.4-16.2-11c-4.7-2-9.6-3.3-14.4-4.9
			c-3.2-1-6.2-0.9-9.5,0c-1.3,0.3-1.4,0.9-1.3,2.3c0.4,4.8,3.5,8,6.4,11.4c2.1,2.5,4.3,4.8,7.5,6c3.3,1.3,6.6,2.9,10,4.1
			C657.2,156.2,662.3,157.9,668.6,157.9z M665.5,107.6c0-4.7-1.2-6.5-5.6-7.9c-3-1-6.1-0.8-9.1-0.2c-10,1.9-16.8,8.5-22.7,16.2
			c-0.6,0.7-1.7,1.3-1.1,2.3c0.7,1.3,0.2,3,1.4,4.1c0.8,0.7,1.6,1.1,2.6,0.9c4.1-1.1,8.2-0.3,12.4-0.6c1.9-0.1,3.7-0.1,5.6-0.4
			c5.7-1.1,9.7-4.9,13.9-8.4C664.7,112,665.8,109.9,665.5,107.6z M442.1,356.9c0.2,8.4,4.8,13.1,11.4,16.5c2.6,1.2,5.1,2.3,7.7,3.6
			c3.7,1.8,7.2,1.4,10.7-0.7c6.2-3.8,9.5-9.8,12.8-16.9c-3.5,1.4-5.9,0.9-7.9-1.3c-0.8-0.9-1.6-0.6-2.6-0.4
			c-4.2,0.8-8.5,1.3-12.7,1.2c-1.2,0-2.5,0-3.5-0.8c-1.8-1.3-3.9-1.2-5.8-0.8C448.9,358,445.7,358,442.1,356.9z M596.7,97
			c0.1-7.8-1-14.8-3.5-21.5c-1.6-4.2-3.9-8.1-8.6-10.1c-4.8-2-8-0.7-9.8,4.2c-1.2,3.5-0.2,6.7,0.6,9.9c1.9,7.8,6.4,14.5,10.6,21.2
			c1,1.6,3,3,5,3c5.6-0.1,5.6-0.2,5.6-5.9C596.7,97.1,596.7,96.8,596.7,97z M610.5,95.4c0.3,3.5,0.8,6.7,2.8,9.4
			c0.4,0.6,1.6,2.2,2.2,0c0.1-0.3,0.4-0.9,0.7-0.1c0.8,2.6,2.2,1.4,3.2,0.4c1.4-1.6,3.2-2.8,4.1-4.9c0.3-0.7,0.7-1,1.3-1.3
			c3.9-2.3,6.8-5.6,9.1-9.5c3.2-5.5,2.6-9.9-2-14.4c-3.7-3.6-8.4-3.7-12-0.2C613.6,80.5,611.7,88,610.5,95.4z M315,431.2
			c0.8,0,1.3,0,1.9,0c5-0.2,9-1.9,11.1-7c1.9-4.6,3.8-9.1,5.6-13.7c0.4-1,0.6-2,0.4-3.1c-0.1-1.7-0.7-2.2-2.3-1.8
			c-6.8,2.2-13.9,4.1-20.2,7.9c-3.1,1.9-5.7,4.6-7,8c-1.4,3.8,0.2,7.2,3.9,8.7C310.6,431,312.8,431.4,315,431.2z M592.1,276.4
			c0.6,0.3,0.9,0.6,1.3,0.7c8.4,2.6,12.5,9,14.5,16.9c0.9,3.6,0.8,7.5,1,11.1c0.1,2.1,0.1,4.3,0.1,6.5c0,1.4,0.7,2.2,2.1,2.2
			c3.1,0,6.1,0,9.2,0.1c1.7,0,2.8-0.8,3.6-2.1c1-1.6,1.2-3.3,0.8-5c-0.7-2.9-1.4-5.7-2.8-8.4c-4.5-9.4-11.5-16.4-19.9-22.2
			c-1.7-1.1-3.2-3.1-5.1-2.9C595.6,273.4,594,275.2,592.1,276.4z M324.9,386.6c1.1,0,2.1,0,3.2,0c0.6,0,1-0.3,1.6-0.4
			c2.5-0.8,3.2-2.1,2.5-4.5c-0.3-1-0.9-1.9-1.7-2.7c-3.3-3.7-7-7-11.4-9.5c-4.9-2.8-10-4.3-15.6-1.9c-3.5,1.4-4.5,4.5-2.5,7.5
			c1.7,2.5,3.7,4.8,6.4,6c3.2,1.6,5.9,4.9,10.3,3.6c0.1,0,0.4,0.2,0.6,0.3C321.6,386.7,321.6,386.7,324.9,386.6z M372.6,432.8
			c0.9,0.1,1.8-0.3,2.7-0.7c3.7-1.3,4.6-3,3.2-6.7c-2-5.7-5.2-10.5-9.9-14.3c-5.2-4.2-5.9-4.2-11.7-1c-1.4,0.8-1.9,1.7-1.4,3.2
			c0.9,2.8,1.4,5.7,2.3,8.5C359.8,428.3,366,432.9,372.6,432.8z M347.4,384.3c-5.5-0.6-9.1,2.6-9.7,8.4c-0.2,1.7-0.1,3.9,0.8,5
			c1.8,2,2.7,4.7,5.2,6.1c4.2,2.2,8.4,2.5,12.5-0.2c2.8-1.8,4.3-5.7,3.9-8.9C359.4,389,353.7,383.6,347.4,384.3z M350.2,423.6
			L350.2,423.6c0-1.1-0.1-2.1,0-3.2c0.3-2.8-0.8-5.2-1.8-7.8c-0.8-2-2.5-2.8-4.3-3.1c-1.9-0.3-2.5,1.4-3.2,2.6
			c-3.2,4.8-5.6,10-6.4,15.8c-0.7,4.8,1.3,7.9,6.4,9.7c3.1,1.1,5.7-0.2,7.9-4.2c0.9-1.7,1.6-3.3,1.6-5.3
			C350.1,426.6,350.2,425.1,350.2,423.6z M394.5,416.7c1,0,1.3,0,1.8,0c3-0.1,3.9-1.3,2.6-4.1c-0.9-1.9-2-3.8-3.7-5.2
			c-3.3-2.9-7.1-5.2-11.3-6.8c-4.1-1.6-8.2-3.2-12.7-3.1c-3.1,0.1-3.9,1.2-2.7,4c1.9,4.5,5.2,7.8,9.5,10c3.3,1.7,6.9,2.9,10.5,4
			C390.5,416.1,392.7,416.9,394.5,416.7z M386.8,375.5c-1.3,0.2-2.6,0.6-3.9,0.8c-7.1,1-11.3,6.4-15.3,11.5
			c-1.3,1.7,0.4,4.8,2.3,4.3c3.8-0.9,7.5-0.3,11.3-0.6c5.1-0.3,8.5-3.7,11.7-7c1-1.1,1-2.7,0.9-4.2c-0.2-1.9-1.1-3.3-3-3.9
			C389.5,376.1,388.3,375.5,386.8,375.5z M345.9,373.8c0.1,0,0.1,0,0.2,0c-0.6-3.1-1-6.4-1.6-9.5c-0.3-2.5-1.1-4.7-2.3-6.8
			c-1.3-2.5-3.1-4.5-5.7-5.6c-2.7-1.2-5.6,0.4-5.9,3.3c-0.3,3.1-0.3,6.2,1,9.1c1.9,4.3,4,8.5,6.6,12.5c1.1,1.7,4.2,2.6,6.1,1.7
			c1.6-0.8,1.4-2.5,1.4-3.9C345.9,374.4,345.9,374,345.9,373.8z M372.8,364.6c0-3.2-1.9-6.1-4.9-7.2c-2.7-1-4.6,0.6-6.5,2.2
			c-4.1,3.6-5.2,8.2-5.7,13.3c-0.1,1.6-0.1,3.1,0.6,4.8c1.2,3.1,3.5,3.8,5.8,1.6c2.6-2.5,5-4.9,7.5-7.4
			C371.6,369.8,372.8,367.4,372.8,364.6z M556.8,350.6c-9.1,4.3-18.2,5.7-27.5,0.8c-0.3,1.4-0.7,2.8-1,4.2c2,1.3,4.1,2.1,6.4,2.7
			c3,0.7,6,1.4,8.9,2.5c2.8,0.9,5.5,1.1,8.2,0.1c2.1-0.8,4.3-1.2,6.6-1.9c0.9-0.3,2.1-0.6,2.5-1.9
			C557.8,356.1,557.3,353.4,556.8,350.6z M580.9,193.4c-3.5-3.5-6.4-6.2-9.1-9.1c-0.8-0.8-1.4-1-2.5-0.4c-2.7,1.4-5.6,2.7-8.6,3.6
			c-10.6,3-19.8,0.9-27.7-6.9c-1.4-1.4-2.9-3-4.6-5c-0.3,5-2.2,9.2-3.5,13.6c5.8,0.9,5.9,0.9,9.4-2.5c1.2-1.1,2.2-1.3,3.5-0.4
			c0.4,0.3,0.9,0.6,1.4,0.8c6,2.7,12,4.1,18.7,2.6c3.5-0.8,6.7-1.9,9.9-3.3c2.2-1,2.7-1,4,0.9c1.1,1.6,2.5,2.7,3.7,3.9
			c-0.6,1.8-2.5,1.1-3.3,2.3C574.9,193.4,577.5,193.4,580.9,193.4z M526.9,146.4c3,5.6,1.8,10.8,2.3,16.8c2.1-5.2,4.3-9.6,6.8-14.2
			C533.2,148.1,530.5,147.5,526.9,146.4z M413.1,159.4c0-2.1,0-3.8,0-5.6c0-1-0.6-1.7-1.4-1.3c-3,1-6.5,0-9.5,2
			C405.9,156.1,409.2,157.6,413.1,159.4z M589.1,204.3c0.3-1.3,0.7-2.6,0.9-3.8c0.6-2.6,0.4-2.8-2.8-3.2
			C588.1,199.6,587.9,202.2,589.1,204.3z M380.6,366.4c-0.1,0-0.2-0.1-0.4-0.1c0,1,0,2,0,3.1c0,0.6,0.2,1,0.9,1.1
			c0.2,0,0.7,0,0.8-0.1c0.3-0.7-0.7-0.4-0.7-0.9C380.9,368.5,380.7,367.4,380.6,366.4z M387,369.5c-1.1-0.6-2.1-0.4-3.2-0.1
			C384.8,369.9,385.8,369.8,387,369.5z M440.4,118.9c0.4,0,0.9-0.1,0.9-0.7c0-0.3-0.3-0.4-0.6-0.3c-0.3,0.2-1,0.2-1,0.9
			C439.8,118.8,440.2,118.9,440.4,118.9z M350.6,362.1c0.1-0.2,0.2-0.4,0.2-0.7c-0.1-0.4-0.4-0.9-1-1c0,0-0.2,0.4-0.2,0.7
			C349.7,361.7,350.1,362,350.6,362.1z M312.8,360.5c-0.8-0.2-1.1-0.3-1.4-0.3s-0.8,0.1-1.1,0.2c0.3,0.1,0.7,0.3,1,0.3
			C311.6,360.8,312.1,360.7,312.8,360.5z M391,370c-0.4,0-0.9-0.1-1.2-0.1c-0.4,0-0.4,0.2,0,0.4c0.2,0.1,0.4,0.1,0.8,0.1
			C390.6,370.5,390.7,370.2,391,370z M304.5,360.3c-0.6,0-0.9,0-1.2,0c-0.4,0-0.4,0.2,0,0.4c0.2,0.1,0.4,0.1,0.7,0
			C304,360.7,304.2,360.5,304.5,360.3z M332,345.1c-0.6,0-0.9-0.1-1.2-0.1c-0.1,0-0.3,0.1-0.3,0.1c0.2,0.4,0.6,0.3,0.9,0.3
			C331.5,345.4,331.7,345.2,332,345.1z M332.8,254.3c-0.6,0-0.9,0-1.2,0c-0.4,0-0.4,0.2,0,0.3c0.2,0.1,0.4,0.1,0.7,0
			C332.3,254.8,332.5,254.6,332.8,254.3z"/>
		<path class="st0" d="M645.3,176.6c0.6-0.3,1.1-0.8,1.7-1.1c4.3-2.9,7-2.7,10.8,0.9c1.6,1.4,2.9,3.1,3.9,5.1c1.1,2.3,2.2,4.6,3.5,7
			c0.7-1.7,1.4-3,2.2-4.5c2.8-5.7,11.4-6,15.6-2c3.3,3.2,5.3,7,5.3,11.7c0,0.6,0,1,0,1.7c3.9-0.6,7.6-0.9,11,1.1
			c3.8,2.2,6,5.6,5.8,9.9s-2.2,7.9-6.7,9.7c-0.9,0.3-1.7,0.7-2.7,1.1c2,1.3,3.8,2.5,5.6,3.7c4.2,3.1,7.5,7,8.2,12.5
			c0.6,4.5-1.4,6.8-6,7c-4.1,0.3-8-0.7-11.6-2.7c-0.6-0.3-0.9-1-1.8-0.9c0.4,1.6,0.8,3.1,1.1,4.6c0.8,2.9,0.1,5.6-1.1,8.2
			c-1.4,2.8-5.2,4.3-8.7,3.5c-3.8-1-7.1-3-10.6-5c-0.4,4.6-2.8,7.8-6.4,10.3c-3.3,2.3-6.6,1.8-9.8-0.1c-1.8-1-3.2-2.5-4.7-3.9
			c-1-1-1.9-2.3-3.2-3.1c-4.2,2.8-8.8,3.7-13.7,2.1c-2.9-0.9-5.3-2.6-7.2-4.9c-1.9-2.5-2.7-5-1.8-8.4c0.9-3.2,2-6.4,3.7-9.7
			c-2.6-1-4.9-2-7.4-3l0,0c0-1.6-1.4-2.2-2.1-3.3c-4-6.6-1.3-11.8,3.9-14.4c1.9-0.9,3.8-0.9,6.1-1.2c-1.6-1.4-2.5-2.9-4-3.8l0,0
			c0-1.2-0.8-2.2-1.3-3.3c-1.1-2.1-1.3-4.3-1.1-6.7c0.6-4.8,3.2-7.6,8-8c2.9-0.2,5.9-0.1,8.7,1.1c1.8,0.8,3.6,1.3,5.7,2.2
			C642.8,185.3,643.8,180.9,645.3,176.6L645.3,176.6z M651.3,225.4c-3.7,1.3-7.2,2.6-10.7,4c-4.2,1.8-8.2,3.9-10.5,8.2
			c-1.4,2.8-1.2,6.8,0.8,8.1c5.5,3.7,14.8,2.2,16.8-4.7c1.1-4,2.8-7.8,4.3-11.7C652.6,227.8,652.3,226.7,651.3,225.4z M632.6,191.9
			c-0.6,0-1.6,0.4-2.7,0.7c-4.3,1.2-5.3,3.7-2.9,7.4c3.3,5.1,8.6,7.5,14.3,8.8c2.5,0.6,4.9,1.1,7.5,0.1c1.7-0.7,2.6-2.1,1.9-3.7
			c-0.2-0.8-0.7-1.4-1.1-2.1c-2.9-3.8-6.2-6.9-10.4-9.2C637.2,192.7,635.2,191.9,632.6,191.9z M632.1,224.9
			c5.6-0.6,11.1-1.3,16.4-3.3c0.7-0.2,1.3-0.9,2-1.3c1.1-0.9,1.1-1.9,0.6-3.2c-0.4-1.1-0.8-2.2-2.2-2.5c-5.1-0.7-10.3-1.7-15.4-2.1
			c-2.3-0.2-4.8,0.1-7,1.1c-2,0.9-3.8,2.1-3.7,4.7s1.9,5.1,4.2,5.7C628.7,224.5,630.3,225.3,632.1,224.9z M680.8,248.5
			c5.7,0.1,7.4-2.2,5.6-6.9c-1.8-4.6-4.2-8.7-7.9-11.9c-3-2.7-4-2.8-7.5-0.9c-2.2,1.2-2.8,1.9-2.1,4c1,3.3,1.7,6.7,3.3,9.8
			C674.2,246.7,677.6,248.2,680.8,248.5z M655.1,215.4c-0.2,4.1,2.7,7.9,7,9.8c3.9,1.7,8.6-1.3,9.9-4.6c1.7-4-0.4-8.8-3.1-11.3
			c-2.6-2.2-6.5-2.9-9.4-1.4C656.4,209.4,654.8,212,655.1,215.4z M665.2,241.3c-0.4-2.9-1-5.9-1.6-8.9c-0.2-1-0.9-1.7-1.6-2.2
			c-1.6-1.3-2.8-1.3-4,0.4c-0.9,1.2-1.6,2.5-2.2,3.8c-2.1,4.2-3.7,8.6-3.2,13.4c0.3,3.3,2.1,4.2,5.6,5.5c1.9,0.7,3.2-0.7,4.9-3.2
			C665,247.3,664.3,244.2,665.2,241.3z M682.6,218.7c-3.9-0.1-4.6,0.9-3.3,3.9c1.2,2.9,3.2,5.5,5.7,7.1c4.7,3.2,10.1,4.9,15.7,5.7
			c2.2,0.3,2.9-0.7,2.2-2.8c-0.3-1.1-0.7-2.3-1.3-3.3C696.5,222.9,689.5,220.1,682.6,218.7z M684.4,213.8c4.8,0.8,8.6-1.2,12-4.2
			c3-2.6,3-7,0-8.9c-1.4-0.9-3.1-0.8-4.7-0.6c-6.2,0.9-9.9,5.2-13.4,9.9c-1.2,1.6,0,3.5,2,3.7C681.7,213.9,683,213.8,684.4,213.8z
			 M661.3,198.2c0.1-3.1-0.7-6.1-1.1-9.1c-0.3-2.6-1.4-5-3-6.9c-2.5-3-4.9-3.6-7-1.2c-1.1,1.3-0.9,2.8-0.8,4.2
			c0.7,5.9,3.3,10.9,6.2,15.9c0.8,1.3,3.2,1.8,4.7,1.1c1.3-0.6,0.7-1.9,0.8-2.8C661.4,199,661.3,198.6,661.3,198.2z M682.5,190.5
			c0.1-2.5-1.1-4-2.9-5.3c-1.9-1.4-2.8-1.6-4.7-0.2c-0.8,0.6-1.3,1.3-1.9,2c-2.2,2.6-2.7,5.8-3.5,8.9c-0.6,2.1-0.3,4,0.3,5.9
			c1,2.8,2.9,3.2,4.7,0.9c1.3-1.7,2.9-3.1,4.3-4.7C680.7,195.9,682.3,193.5,682.5,190.5z"/>
		<path class="st0" d="M256.6,379.5c0.1-0.2,0.2-0.4,0.3-0.6c0.4-0.1,0.7,0.1,0.8,0.6c0,0.2-0.2,0.6-0.3,0.6
			C257,380.2,256.7,379.9,256.6,379.5z"/>
		<path class="st0" d="M272.2,400.9c-0.2,0.3-0.4,0.3-0.7,0.2c-0.2-0.1-0.3-0.4-0.3-0.7c0-0.3,0.3-0.4,0.6-0.1
			C271.9,400.4,272.1,400.7,272.2,400.9z"/>
		<path class="st0" d="M414.9,315.9c7.6,1.9,11.5,7,13.3,14.2c1.8,7.1-0.7,13-5.9,17.8c-5.9,5.5-13,8.1-21,9.2
			c-3.3,0.4-6.7,0.6-9.9,1.3c-2.9,0.6-3.2,0-3.5-2.8c-1-11.7-0.1-23.4-0.9-35.1c-0.8-13.3-0.2-26.6-0.9-39.9c-0.1-1.7,0.6-2.1,2-2.2
			c7.1-0.3,14.2,0.2,21.2,2.2c2.2,0.6,4.3,1.2,6.6,1.9c6.2,1.9,10.5,7,10.5,14c0,4.9-1.2,9.1-4,13.3
			C420.5,312.4,417.5,313.6,414.9,315.9z M394,297.8c-0.3,2,0.6,4.1,0.7,6.5c0.1,2.5,0.1,4.8,0.1,7.2c0,0.9,0.3,1.6,1.3,1.7
			c4.2,0,8.2-0.2,11.8-2.9c1.7-1.2,3-3,2.6-5.1c-0.7-3.9-2.2-7.5-6.1-9.2c-1.8-0.9-3.6-1.7-5.6-2.1
			C393.9,292.7,393.9,292.6,394,297.8z M396.4,327.7c0.2,2.9,0.4,6.4,0.6,9.8c0,0.9,0.4,1.4,1.4,1.6c6.6,0.9,10.7-2.2,12.8-7.8
			c1.1-2.9-0.3-6-3.1-7.5c-2-1.1-4.2-1.6-6.6-1.7C395.4,322,396.5,321.6,396.4,327.7z"/>
		<path class="st0" d="M430.7,137.8c-1,3.3,0.3,5.9,0.3,8.6c-0.1,6.4-0.2,12.7,0.1,18.9c0.4,8.2,0.7,16.4,0.8,24.6
			c0,1.1,0,2.1-0.1,3.2c0,0.7-0.6,1.1-1.1,0.9c-2-0.7-3.9,0.6-6,0.3c-2.1-0.2-2.5-0.6-2.7-2.7c-0.1-0.8,0-1.7,0-2.5
			c-0.1-9-0.2-18.1-0.2-27.1c0-5.8-1-11.5-0.8-17.3c0.1-2-0.4-2.5-2.3-2c-3.9,1-8,0.2-12,1.2c-1.1,0.3-2.5,0.1-3.7,0.1
			c-1.3,0-1.9-0.9-2-2c-0.1-0.7-0.1-1.3,0-2c0.6-3.6,0.9-7.1,0.2-10.8c-0.2-1.3,0.4-2.1,1.8-2.1c3.9,0,7.8-0.2,11.7,0.2
			c1.9,0.2,3.7,0.4,5.6,0.4c8.6,0,17.3,0.1,25.9,0.1c3.1,0,3.2,0,3.2-3c-0.1-4.7,0.1-4.2,4.6-4.2c2.3,0,2.7,0.4,2.8,2.9
			c0,0.8,0.1,1.7,0,2.5c-0.2,8.6,1.3,17.2,0.9,26.3c1.8-1.7,3.1-3,4.5-4.2c2.5-2.3,5.5-3.3,8.8-3.3c2.7,0,4.7,1.1,6,3.3
			c1.3,2.3,2.5,4.8,2.5,7.6c-0.2,9,1.2,17.9,1,27c0,2.2-0.1,4.6,0.4,6.8c0.6,2.1-0.2,2.9-2.5,3.1c-1.8,0.1-3.5,0.1-5.2,0.1
			c-1.3,0-2-0.6-2-1.9c0-3-0.1-5.9,0-8.9c0.2-5.8-0.3-11.6-0.8-17.3c-0.1-1.9-2.3-4.6-4.1-5c-2.1-0.6-4.1,0.3-5.6,2.3
			c-1.1,1.4-1.6,3-1.6,4.8c-0.2,6.4,1.1,12.6,0.8,18.9c0,0.7,0,1.3,0,2c0,3.2,0,3.2-3.3,3.5c-1.3,0.1-2.7,0.2-4,0.6
			c-2,0.4-2.5,0-2.6-1.9c0-0.8,0-1.7,0-2.5c0-8.9,0.2-17.8-0.2-26.6c-0.3-6.6-0.4-13.1-0.6-19.7c0-2.2-0.1-2.3-2.2-2.3
			c-3.8-0.1-7.6,0-11.4-0.1C434.3,138.6,432.5,138.7,430.7,137.8z"/>
		<path class="st0" d="M408.7,233.7c0.4,1,1.4,0.9,2.1,1.1c1.3,0.4,2.8,0.9,4.1,1.6c7.5,4.1,8.2,7.8,6.8,15.3
			c-1.4,7.6-6.5,12.5-12.9,16c-5.9,3.3-12.4,5-19.1,5.9c-2,0.2-3.9,1-5.9,0.9c-1.4-0.1-2-0.6-2.2-2.1c-0.7-6.2-0.4-12.6-0.8-18.9
			c-0.6-8.6-0.3-17.2-1-25.7c-0.3-5.7-0.3-11.3-0.7-16.9c-0.1-2.9-0.6-5.9-0.7-8.8c-0.1-3.2,0.3-3.6,3.3-3.6
			c6.5,0,12.8,0.4,19.2,1.3c2.1,0.2,4.2,0.2,6.4,1c8.5,3.1,12,9,11.5,16.9c-0.3,5.6-3.5,10-7.7,13.6
			C410.2,232.1,409,232.5,408.7,233.7z M392.3,258.2c3.7,0.1,7.2-1.7,10-4.5c4.8-4.9,1.9-11.1-2.2-13.1c-3-1.4-6-1-9-0.9
			c-1.1,0-1.1,0.9-1.2,1.8c-0.1,4.7,0,9.4-0.7,14C388.8,258.1,389.2,258.2,392.3,258.2z M391.3,215.3c-0.2,0-0.6,0-0.8,0
			c-2.9,0-2.9,0-3,2.8c-0.1,3.3,0.8,6.6,0.7,10c-0.1,2.1,0.7,2.9,2.7,3.1c3,0.4,5.6-0.9,7.7-2.8c3.9-3.6,2.9-9.7-1.8-12.1
			C395,215.6,393.2,215.3,391.3,215.3z"/>
		<path class="st0" d="M504.7,268.7c-0.2-3.6-0.4-6.8-1.2-10c-3.3,4-7.4,6.8-12.6,8.1c-8.9,2.2-14.9-4.1-16.5-10.7
			c-1-4.5-0.3-8.9,0.4-13.1c1.2-6.7,6.4-10,12.7-11.4c4.1-0.9,8.2-1.4,12.4-0.7c1.2,0.2,1.8-0.1,2-1.2c0.8-3.6,1.1-7.1,0-10.7
			c-0.7-2-1.8-3.9-3.6-5.2c-2.7-2-5.8-1.8-8.5,0.3c-2.8,2.2-4.3,5.2-5.5,8.4c-0.9,2.8-2.3,3.8-5.2,3.6c-1.9-0.2-3.8-0.1-5.7,0.1
			c-1.7,0.2-2.3-0.2-2.3-1.8c0.4-11,4.6-21.8,16.9-25.5c3.7-1.1,7.5-1.9,11.5-0.6c3.8,1.2,6.7,3.2,8.5,6.9c2.5,4.8,3.3,9.9,3.6,15.2
			c0.2,6.2,0.1,12.4,0.1,18.6c0,7.7,1.1,15.3,0.8,23c0,0.9,0,1.9,0,2.8c0.1,1.6-0.3,2.5-2.1,2.7
			C508.9,267.5,507.1,268.2,504.7,268.7z M503.8,248.3c0-4.2-1.9-6.4-6.2-6.8c-3.6-0.3-7.5,3.7-7.4,7.5c0.1,3.8,2.7,6.8,5.9,6.8
			C500.5,255.8,503.7,252.6,503.8,248.3z"/>
		<path class="st0" d="M427.7,268.5c0-8,0-15.6,0-23.1c0-12.9,0-25.9-0.1-38.8c0-0.8,0-1.7,0-2.5c0-1.1,0.6-1.8,1.8-1.8
			c4.8-0.1,9.5-1.3,14.4-0.2c3.1,0.7,6.4,0.1,9.6,0.9c8.7,2.2,14.2,9.6,14.8,18.1c0.4,5.2-2.1,9.4-5.7,12.8c-2.1,2-4.3,4-7.2,5
			c-1.4,0.4-1.9,1.3-1,2.8c0.9,1.4,1.7,3.1,2.6,4.6c3.6,6.1,7.2,12.3,10.8,18.4c0.9,1.6,0.6,2.3-1.1,2.5c-1.9,0.1-3.7,0.4-5.6,0.8
			c-2.7,0.4-3.1,0.1-4.5-2.3c-2.9-5.5-5.8-10.9-8.7-16.4c-0.7-1.3-1.4-2.6-2.3-3.8c-1.6-2.3-6.4-2.5-7.7,0.8c-0.6,1.3-1,2.7-1.1,4.2
			c-0.2,3.9,0.8,7.8,0.7,11.7c0,0.9,0,1.9,0,2.8c0,1.4-0.7,2.2-2.2,2.3C432.9,267.5,430.5,267.9,427.7,268.5z M436.8,227
			C436.8,227,436.7,227,436.8,227c-0.1,1.2-0.1,2.5-0.1,3.7c0,5.1,0.9,5.8,5.8,4.6c2.1-0.6,4.1-1.4,5.7-2.9c1.9-1.8,3.5-4.1,2.8-6.8
			c-1.2-5.7-6.4-9.4-12.5-7.2c-1.2,0.4-1.8,0.9-1.8,2.2C436.8,222.8,436.8,224.9,436.8,227z"/>
		<path class="st0" d="M473.4,347.7c-3,1-5.8,1-8.6,1.6c-1.4,0.3-2-0.4-2.2-1.6c-0.2-1.4-0.1-3-0.2-4.5c0-0.9-0.2-1.7-1.3-1.7
			c-0.9,0-2-0.4-2.5,0.8c-1,2.8-3.2,4.1-5.9,5c-3.3,1.1-6.8,1.2-9.9,0.3c-5.3-1.6-7.9-5.7-8.6-11c0-0.2,0-0.6,0-0.8
			c0.2-8.7-1.1-17.4-0.9-26.2c0.1-4.6-0.9-9-0.8-13.7c0.1-5.1-0.3-4.7,4.5-4.7c2.1,0,4.3,0.1,6.5-0.2c1.8-0.2,2.1,0.6,2.1,2
			c0,0.9,0,1.9,0,2.8c0,7.6,0,15,0,22.6c0,2.5,0.4,4.8,1.1,7.1c1.3,4.7,5.1,5.7,8.4,5.2c4.2-0.6,6.6-3.2,6.7-7.2
			c0.1-5.5-0.8-10.9-1.3-16.4c-0.4-4-0.8-8-1.1-12c0-0.6-0.1-1.1,0-1.6c0.4-1.7-1.6-3.6-0.1-5c1.2-1.2,3.3-0.6,5-1
			c2-0.6,4.2-0.3,6.4-0.6c1.1-0.1,1.4,0.4,1.7,1.3c0.1,0.8,0.1,1.6,0.1,2.5c0,5,0.2,9.9,0.1,14.9c-0.1,13,1.1,26.1,0.9,39.1
			C473.2,345.7,473.3,346.6,473.4,347.7z"/>
		<path class="st0" d="M519.2,159.3c0,5.8,0,6-5.3,5.9c-5.3-0.1-10.7,0.9-16,0.9c-1.7,0-2.1,0.8-2.1,2.2c0,1.3-0.1,2.7,0,4
			c0.2,3.8,2.6,6.2,6.4,6.6c2.9,0.2,5.3-1.4,6.4-4.6c0.4-1.6,0.3-3.7,1.8-4.3c1.7-0.8,3.7,0,5.5,0.6c0.6,0.1,1,0.2,1.6,0.2
			c0.8,0.1,1.1,0.6,1.3,1.3c1,5.1-3.3,14.9-7.9,17.5c-6.8,3.8-13.9,2.1-19.1-3.8c-3.7-4.1-5-9.1-5.5-14.4c-0.1-1.3-0.6-2.7-0.6-4
			c-0.2-6.5,0.2-12.8,3.1-18.8c3.5-6.9,10.7-9.5,17.3-8.4c7.2,1.2,11.3,5.6,12.8,12.9C519,155.5,519.2,157.6,519.2,159.3z
			 M503,160.4L503,160.4c2.1,0,4.2,0,6.5,0c2.1,0,2.3-0.2,2.3-2.2c0-5-3.1-8.8-7.9-8.8c-6,0-9.6,4.5-9.6,9.2c0,1.3,0.6,1.9,1.9,1.9
			C498.4,160.3,500.7,160.4,503,160.4z"/>
		<path class="st0" d="M486.7,228.5c0.4-4.7,2-8.1,4.3-11.1c1.4-1.8,4.5-1.7,6.1-0.1c1.7,1.7,2.7,7.5,1.7,9.5
			c-0.4,0.9-1.2,0.9-2,0.9c-1.6,0-3.2,0-4.8,0C490.4,227.6,488.8,227.7,486.7,228.5z"/>
		<path class="st0" d="M420.5,315.3c4.2-2.6,6.5-6.4,8.5-10.5c0.6,6.1,1.8,12.3,1.1,18.6c-2.2-1-2.6-3.2-4.2-4.3
			C424.3,318,422.6,316.7,420.5,315.3z"/>
		<path class="st0" d="M574.2,292.2c2.3-1.8,3.1-3.9,5.1-4.9c4.2-2.1,8.4-2.7,12.7-0.4c1.7,0.8,2.8,2,3.7,3.7
			c1.8,3.3,2.8,6.8,2.9,10.7c0.3,8,0.4,16,1.4,24.1c0,0.1,0,0.2,0,0.4c0.1,5.2,0,10.5,0.8,15.7c0.4,2.9,0.1,2.9-2.8,3.6
			c-2.7,0.6-5.2,1-7.8,1.7c-1.4,0.3-2-0.2-2.1-1.4c0-0.2,0-0.6,0-0.8c0.3-6.9-0.9-13.7-0.9-20.5c0-4.6-0.9-9-0.9-13.7
			c0-1.8-0.4-3.8-2.2-4.9c-2.7-1.7-6-0.9-7.6,2c-1.8,3.1-2.5,6.7-1.9,10.1c0.7,4.3,0.4,8.6,0.6,12.8c0.1,4,0,8.1,0.1,12.1
			c0.1,1.9-0.8,2.8-2.3,3.1c-8,1.4-7.5,3.5-7.5-5.3c0-7,0.2-14-0.2-21c-0.9-13.6-0.4-27.2-0.8-40.8c0-1.6-0.4-3.2-0.6-4.8
			c-0.1-2.6,0.4-3.1,2.9-3.2c1.4-0.1,3,0,4.5-0.1c3-0.1,3.1-0.2,3.1,2.9C574.2,279.2,574.2,285.4,574.2,292.2z"/>
		<path class="st0" d="M525.7,268.8c-0.1-6.7-0.8-12.8-1.1-18.9c-0.4-7.7-0.3-15.3-0.9-23c-0.3-5-0.4-9.9-0.7-14.9
			c-0.2-3.6-0.8-7.2-0.7-10.8c0.1-2.7,0.3-3.1,3-2.8c5.1,0.7,10.3,1.8,15.2,3.7c6.9,2.6,13,6.5,18.3,11.5c4.2,4,6.2,9,5.1,15.3
			c-1.3,7.6-5,13.7-10,19.3C546.1,256.8,536.7,263.5,525.7,268.8z M551.4,231.7c0-1.6-0.1-2.9-0.7-4.1c-1-2.9-3-4.9-5.5-6.7
			c-3.6-2.7-7.7-3.5-12-3.8c-1.2-0.1-2,0.3-2,1.8c-0.1,8.4,0.4,16.6,0.9,25c0.1,1.3,0.8,1.8,1.9,1.4c5.9-1.9,11.7-3.9,15.8-8.9
			C551,234.7,551.7,233.3,551.4,231.7z"/>
		<path class="st0" d="M569.4,256.8c10.1,2.1,18.3-1,18.8-10.5c-1.4,0-2.2,1.2-3.5,1.7c-4.6,1.4-7.6,0.4-9.7-3.8
			c-1.2-2.3-2.1-4.9-2.9-7.5c-2.7-9.8-5.5-19.6-8.1-29.4c-0.1-0.6-0.3-1-0.4-1.6c-0.3-2,0.1-2.5,2-2.6c3.2-0.1,6.5-0.3,9.6-0.7
			c2.5-0.3,2.5-0.1,3.1,2.3c2.1,7.6,3.6,15.4,6.2,22.8c0.8,2.2,2.2,4,3.2,6c0.4,0.9,1.2,1.1,2,1c1.1-0.1,1-1,1.1-1.8
			c1.9-8.2,3.8-16.4,5.6-24.6c0.7-2.9,1.3-5.8,1.7-8.7c0.2-1.4,0.8-2.3,2.1-2.6c2.2-0.4,4.5-0.8,6.7-1c1.4-0.1,1.9,0.4,1.6,2
			c-2,10.1-4.5,20.2-5.9,30.3c-1.4,9.5-4.7,18.4-7.7,27.4c-0.9,2.7-2.2,5.1-3.7,7.6c-2.3,4.1-5.9,6.5-10.9,6.4
			c-3-0.1-5.9-0.2-8.6-1.6c-1.7-0.9-2.8-2-2.7-4.1C569.5,261.6,569,259.1,569.4,256.8z"/>
		<path class="st0" d="M517.7,348.3c-3.3-0.2-6.6-0.3-9.7,0.3c-2.3,0.6-2.8,0-3-2.7c-0.8-8.6-0.2-17.2-0.4-25.9
			c-0.1-4.3-0.7-8.6-1.6-12.7c-0.8-3.5-3.9-4.6-6.7-2.5c-1.3,1-2.5,2.3-2.7,3.9c-0.3,2.5-1.6,4.9-0.4,7.5c0.2,0.6,0.1,1.3,0.1,2
			c0,9,0.1,18.1,0.1,27.1c0,2.9,0,2.9-2.9,3.5c-1.3,0.2-2.7,0.7-3.9,0.7c-2.6,0.2-2.8,0-2.9-2.6c-0.1-4.6,0.1-9.1-0.1-13.7
			c-0.8-13.1-0.7-26.3-0.8-39.6c0-0.4,0-0.8,0-1.2c-0.4-4.1-0.4-4.1,3.6-4.6c1.2-0.1,2.3-0.3,3.8-0.4c0.4,4.3,1.2,8.5,1.6,12.9
			c1-1.9,1.9-3.9,2.9-5.8c1.9-3.3,4.6-5.8,8.4-7c6.9-2.2,12.4,3.1,13.3,8.7c0,0.2,0,0.6,0,0.8c-0.3,7.6,1,15,0.8,22.5
			C516.4,329.2,517.9,338.6,517.7,348.3z"/>
		<path class="st0" d="M521.5,309.9c0.2-7.4,1.2-14.4,5.5-20.6c6.9-10.4,19.8-10.1,27.4-1.1c4,4.8,5.3,10.4,6,16.3
			c0.1,1.1-0.3,2.1-0.6,3.1c-0.2,1.1-1,1.6-2,1.6c-3.1,0-6.2,0-9.2,0.1c-1.1,0-1.7-0.4-2-1.6c-0.3-1.2-0.9-2.6-1.7-3.7
			c-3-4.9-9.1-5-12.4-0.3c-1.2,1.8-2.1,3.7-2,6c0,4.1-0.2,8.4,1,12.4c0.4,1.7,1.2,3.2,2.1,4.7c1.7,2.8,4.2,3.6,7.2,3.2
			c3-0.3,4.8-2.1,5.7-4.9c0.3-0.9,0.6-1.8,0.8-2.7c0.2-0.7,0.7-1.2,1.3-1.2c3.5-0.3,6.9-0.6,10.4-0.9c1.2-0.1,2.2,0.3,2,1.8
			c-1.1,5.8-2.1,11.6-5.8,16.5c-4.2,5.7-12.6,8.5-19.1,6c-4.7-1.8-7.7-5.5-9.7-9.8c-2.5-5.2-3.9-10.8-4.3-16.6
			C521.9,315.6,521.3,312.8,521.5,309.9z"/>
		<path class="st0" d="M533.6,313.1c0-1.2,0-2.2,0-3.1c0-1,0.2-1.9,0.7-2.7c1-2,3.3-3.9,4.9-3.6c2,0.4,3.1,2,3.8,3.8
			c0.1,0.2,0.3,0.6,0.3,0.8c-0.7,4,2,4.3,4.9,4.7c2.2,0.2,4.5,0.4,6.8-0.1c1.1-0.2,2.3-0.3,3.6-0.3c2.5-0.1,2.6,0.1,2.7,1.9
			c0.1,2.1-0.3,2.8-2.3,3c-0.9,0.1-1.9,0.1-2.8,0.1c-3.6-0.3-6.9,0.8-10.4,0.9c-1,0-1.4,0.4-1.4,1.4c0,1.8-0.8,3.3-1.2,5
			c-0.8,2.9-4.8,3.2-6.4,0.8c-0.9-1.3-1.7-2.8-2-4.3C534.2,318.3,533.3,315.6,533.6,313.1z"/>
		<path class="st0" d="M638.5,119.1c-0.2-0.1-0.7-0.2-0.7-0.2c0-0.4,0.4-0.4,0.8-0.4c0.2,0,0.3,0.2,0.6,0.3
			C638.9,118.9,638.7,118.9,638.5,119.1z"/>
		<path class="st0" d="M616.6,99.7c-0.3,0.1-0.6,0.3-0.9,0.4c0-0.2-0.2-0.4-0.1-0.7c0.1-0.2,0.3-0.3,0.6-0.3
			C616.3,99.1,616.4,99.4,616.6,99.7z"/>
		<path class="st0" d="M330.7,384.2c-0.3-0.1-0.4-0.2-0.2-0.4c0.1-0.2,0.3-0.3,0.6-0.4c0.1,0,0.4,0.2,0.4,0.3
			C331.5,383.9,331,384.3,330.7,384.2z"/>
		<path class="st0" d="M317,392.5c1.4,0.3,2.9,0.8,4.3,1.1C319.6,394,318,394.5,317,392.5C317,392.4,317,392.5,317,392.5z"/>
	</g>
</g>
</svg>
