<?xml version="1.0" encoding="utf-8"?>
<!-- Generator: Adobe Illustrator 19.0.1, SVG Export Plug-In . SVG Version: 6.00 Build 0)  -->
<svg version="1.1" id="Layer_1" xmlns="http://www.w3.org/2000/svg" xmlns:xlink="http://www.w3.org/1999/xlink" x="0px" y="0px"
	 viewBox="-14 36 80 80" style="enable-background:new -14 36 80 80;" xml:space="preserve">
<style type="text/css">
	.st0{fill:#FFA500;}
</style>
<g id="White_1_">
	<path class="st0" d="M58,40H-6c-2.2,0-4,1.8-4,4V108c0,2.2,1.8,4,4,4h34.5V84.1h-9.4V73.3h9.4v-8c0-9.3,5.7-14.4,14-14.4
		c4,0,7.4,0.3,8.4,0.4V61l-5.8,0c-4.5,0-5.4,2.1-5.4,5.3v6.9h10.8L49,84.1h-9.4V112H58c2.2,0,4-1.8,4-4V44C62,41.8,60.2,40,58,40z"
		/>
</g>
</svg>
