<?xml version="1.0" encoding="utf-8"?>
<!-- Generator: Adobe Illustrator 19.0.1, SVG Export Plug-In . SVG Version: 6.00 Build 0)  -->
<svg version="1.1" id="Layer_1" xmlns="http://www.w3.org/2000/svg" xmlns:xlink="http://www.w3.org/1999/xlink" x="0px" y="0px"
	 viewBox="0 0 586 720.1" style="enable-background:new 0 0 586 720.1;" xml:space="preserve">
<style type="text/css">
	.st0{fill:#713832;}
	.st1{fill:#C2C1BD;}
	.st2{fill:#D0CFCB;}
	.st3{fill:#E0DED9;}
	.st4{fill:#FDFDFD;}
</style>
<g>
	<g id="pTNGRp.tif">
		<g>
			<path class="st0" d="M553.8,432.2c1.3,10.9-0.7,21.6-1.7,32.4c-1.3,14.3-3.1,28.5-4.6,42.8c-2,19.8-13.3,36.5-36.1,41.9
				c-2.8,0.7-3.6,1.8-3.5,4.2c0.1,1.8-0.1,3.7-0.1,5.5c-0.7-0.1-1.4-0.2-2-0.2c0.8-2.1,1.1-4.3,1-6.6c-0.1-1.4,0.2-3.1-2-3.2
				c-2.2-0.1-2.2,1.5-2.2,3c0,6.1,0.1,12.2,0.1,18.2c-1.2,0-2.2,0.4-2.8,1.4c-2.2-0.1-4.4-0.1-6.5-0.2c-0.1-0.2-0.2-0.4-0.1-0.6
				c3.4-0.6,4.7-2.5,4.1-5.7c-0.9-5.1-1.1-10.2-1.3-15.3c-0.1-2.1-0.1-2.1-3.1-1.5c-1.9,0.4-4.6-0.7-4.9,2.5c-5.1,0-5.2,0-4.2,4.2
				c0.9,3.7,1.8,7.5,2.7,11.2c0.2,1,0.7,2.3-0.5,2.7c-1.2,0.4-1.7-0.8-2-1.9c-0.8-3.3-1.7-6.7-2.6-10c-1.5-5.7-1.5-5.7-7.9-4.1
				c-0.4,0.1-0.8,0.2-1.2,0.3c-9.4,0.7-18.8,1.4-28.1,2.2c-13.5,1-27.1,2.1-40.6,3.1c-5.3,0.4-10.5,0.5-15.8,0.8
				c-1.8-0.3-3.6-0.5-5.3,0.3c-2.1-0.7-3.7,1-5.8,0.8c-2.1-0.2-2.5,1.1-2.5,2.7c0.1,1.4-0.1,2.9,0.1,4.3c0.9,7.7,1.4,15.4,2.9,23
				c0.9,4.5,0.7,8.9,1.4,13.4c1.5,9.4,3.6,18.8,3.9,28.4c0.1,3.7,0.1,7.3,1.2,10.9c-1.3,0.1-2.9,0.3-2,2c1.1,2.1,0.9,4.1,0.9,6.3
				c-4.2,0.8-8.3,0.7-12.2-1c-1.5-0.7-1.8-1.9-0.2-2.8c2.1-1.1,4.2-2.4,6.5-3c3.2-0.8,4.2-2.2,3.7-5.3c-1.3-7.9-2.3-15.8-3.5-23.7
				c-1.6-10.9-3.2-21.9-4.8-32.8c-1-6.7-1.9-13.4-2.7-20c-0.2-1.9-1.3-2.3-3.1-2.3c-5.1,0.1-10.1,0-15.2,0.2
				c-29.7,1.6-59.5,0.7-89.2,1c-13.7,0.1-27.3-0.9-40.9-1.2c-1.5,0-3.1,0.1-4.6-0.1c-3.1-0.3-4.3,0.8-4.2,3.8
				c0.1,8.6,0,17.2-0.1,25.9c-2.3-0.6-1.3-2.3-1.3-3.6c-0.1-7.6-0.2-15.2-0.1-22.7c0-2.4-0.7-3.3-3.4-3.2c-2.2,0.1-3,0.7-3.1,2.9
				c-0.5,9.2,2.4,18.2,1.3,27.4c0,0.4,0.2,0.7,0.4,1.1c0.3-0.2,0.7-0.4,0.9-0.7c0.3-0.5,0-1.5,0.8-1.5c0.7,0,0.5,0.8,0.5,1.3
				c0.2,8.7,0.4,17.5,0.4,26.2c0,9-0.2,18-0.3,27l-0.4,0.4c-1.1-0.1-2.1-0.1-3.2-0.2c-0.5-16.1-0.2-32.2-1.3-48.3
				c-0.7-10-0.3-20-0.4-30.1c0-1.2,0-2.5-0.1-3.7c-0.2-2.5-2.1-2.1-3.9-2.1c-2,0-2.8,0.9-2.5,2.7c2,11.2,0.7,22.4,1.1,33.6
				c0,1.1,0.5,2.5-1.2,3.1c-0.5-12.1-1.1-24.2-1.5-36.3c-0.1-2.3-0.7-3.5-3.2-3.6c-1.5-0.1-3-0.6-4.5-0.7
				c-9.4-0.5-18.9-0.8-28.3-1.4c-15.1-1-30.2-2.2-45.3-3.5c-3.8-0.3-7-0.2-8.4,3.8c0-2.4,0.8-5.1-2.6-6.2c-2.2-0.7-3.8,1-5.3,5.2
				c-0.2,0.6-0.3,1.2-0.5,1.8c-1.6,4.2-1.9,8.8-4,12.8c-2.4-0.1-4.8-0.1-7.2-0.2c-0.2,0.2-0.4,0.3-0.7,0.2c0.1-0.4,0.3-0.8,0.4-1.3
				c3.5,0.4,5.4-1,6.9-4.1c1.1-2.5,1-5.1,1.8-7.6c2.6-8.2,2.4-8.3-7.2-8c-4.8-1.7-5.2-1.6-5.4,2.1c-0.2,4.8-0.5,9.6-1.2,14.4
				c-0.2,1.4-1,3.2,0.8,4.4c-3.1,16.3-6.2,32.6-9.2,48.9c-3.9,20.5-7.7,41.1-11.5,61.6c-1.7,9.1-3.2,18.2-4.9,27.2
				c-0.2,1-0.7,2.1,0.7,2.6c1.2,0.5,2-0.3,2.7-1.1c1.2,0,2.5,0,3.7,0c1.6,0.2,2.7-0.8,4.1-1.2c2.8,1.2,5.6,2.3,8.4,3.5
				c1.3,0.6,3.2,1,3.1,2.8c-0.2,2.1-2.3,2.3-4,2.6c-5,1-10,1.8-15,1.5c-5.1-0.4-10.3-1.1-15.4-1.7c-1.5-0.2-3.3-0.3-3.4-2.2
				c-0.1-1.4,1.4-2,2.5-2.5c1.5-0.8,3.1-1.7,4.8-2c4.3-0.8,5.3-3.4,5.9-6.9c3.8-23,7.7-46,11.6-69.1c3.4-20.6,6.7-41.3,10.2-61.9
				c0.2-1.4,1.1-2.7-1-3.6c-1.1-0.5-0.8-1.8-0.9-2.8c0-1.4,0-2.9-0.1-4.3c-0.3-3.7,0.2-7.7-1.3-10.9c-1.6-3.5-6.7-3-10.1-4.4
				c-16.9-7.2-25.9-19.3-28.2-36.4c-2.4-18.3-4.6-36.6-6.2-55c-2.1-24.3-2.8-48.7-3.1-73.1c-0.3-23-1-46-0.6-68.9
				c0.5-24.4,0.7-48.8,3.2-73.1c0.7-7.1,1.2-14.3,1.4-21.5c0.7-19.2,15.6-37,39.9-38.7c14.5-1,29-1.7,43.5-2.4
				c23.5-1.2,47-2.1,70.6-2.6c5.5-0.1,11-0.6,16.5-0.9c0.8-0.1,2,0,2.4-0.5c0.5-0.7-0.4-1.5-1-2.1c-3.9-3.9-7.7-7.9-11.7-11.7
				c-2.2-2.1-4.2-4.1-4.1-7.3c0-0.8,0-1.8,1.3-1.3c1.2,0.5,2,0.6,2.7-0.6c2.6-0.5,3.9,1.2,5.4,2.7c5.7,6,11.6,11.8,17.2,17.9
				c1.9,2.1,3.8,2.9,6.8,2.9c48.2-0.4,96.4-0.4,144.6-0.1c2.6,0,4.7-0.5,6.5-2.2c0.4,0.4,0.8,0.8,1.1,1.2c0.2,1.2,1.2,1.2,1.8,0.6
				c1.3-1.3,3.2-2.3,3.1-4.5l0,0c1.8,0.1,2.7-0.8,2.6-2.4l0,0c1.8,0,2.5-0.9,2.6-2.4l0,0c0.8,0,1.2-0.4,1.3-1.2l0,0
				c0.8,0,1.1-0.5,1.3-1.2l0.1-0.1c2.2-1.2,3.7-3,5.3-4.9c0.3-0.3,0.7-0.5,1-0.8c0.3-0.4,1.3-0.7,0.7-1.2c-0.5-0.4-1.2,0.1-1.5,0.7
				c-0.2,0.4-0.2,0.8-0.3,1.2c-0.7,0.2-1.4,0.3-2.2,0.5c-0.4-0.4-0.9-0.8-1.3-1.2c1.6-1.6,11-8.2,12.4-8.6c1,1,1.5,0.7,1.7-0.5l0,0
				c1.8-0.2,2.2-2.1,3.7-2.6c0.3,0.3,0.7,0.6,1,0.9c-0.2,0.3-0.4,0.8-0.7,1c-6.2,5.7-10.1,13.2-16,19.1c-2.4,1.8-4.7,3.8-6.2,6.4
				l-0.2,0.2c-1,0.3-1.9,0.8-1.8,1.9c0,0.1,1.1,0.2,1.7,0.3c0.4,0.2,0.8,0.2,1.2,0.1c3.5,1.7,7.1,1.2,10.7,0.6
				c4.6,0.7,9.2,0.3,13.8,0.5c26.4,1,52.8,1.7,79.1,3.1c9.4,0.5,18.9,0.5,28.3,1.8c19.7,2.6,35.2,14.5,37.4,33.9
				c0.8,7.5,1.6,15.1,2.3,22.6c1.8,20.2,2.5,40.5,3.1,60.8c0.8,25.2,0.5,50.4,0.3,75.7c-0.1,11.9-0.5,23.8-0.8,35.7
				c0,1.2,0.5,2.5-1,3.3c-1.7-0.5-1.2-1.9-1.3-3c-0.1-1.1,0.5-2.5-1.1-3.1c-0.1-6.1-0.2-12.2-0.2-18.4c-0.1-32.9,0.4-65.8-0.4-98.7
				c0.1-3.8,0.8-7.6-1-11.3c-0.1-5.3-0.2-10.6-0.4-15.9c0.5-3.4,0.1-6.8-1-10c0.1-2.5,0.1-5,0.2-7.5c1.6-3.3,1.9-6.5-0.4-9.6
				c-0.4,0-0.8,0-1.1-0.1c-0.1-3.6-0.3-7.3-0.4-10.9c-0.3-5-2.1-9.5-5-13.8c0.2-1.1-0.1-1.9-1.2-2.5l0,0c-0.2-0.7-0.5-1.2-1.3-1.1
				c-1.3-1.3-2.7-2.5-4-3.8c0.2-0.9-0.5-1.2-1.2-1.3l0.1,0.1c-0.2-0.7-0.7-1-1.4-1.2l0,0c-0.5-1.1-1.7-1.2-2.6-1.7
				c-0.5-0.9-1.4-0.9-2.2-1c-7.5-4.2-15.8-4-24.1-3.9c-0.6,0-1.2,0-1.7,0c-0.8-0.4-1.5-0.9-2.4-0.5c-3.9-0.1-7.9-0.2-11.8-0.3
				c-3.9-1.4-8-0.9-12.1-0.9c-6-0.2-12-0.3-18-0.5c-4.5-1.6-9.1-0.8-13.7-0.8c-5.2-0.1-10.4-0.2-15.6-0.4c-1.1-0.9-2.4-0.8-3.7-0.8
				c-10.2-0.2-20.4-0.3-30.6-0.4c-6.2-1.4-12.5-0.9-18.7-0.8c-5.8-0.3-11.5-0.5-17.3-0.1c-9.2-0.1-18.5-0.3-27.7-0.4
				c-34.8-0.3-69.5-0.3-104.3,0.3c-0.9,0-1.9,0-2.8,0c-1.3,0-2.6,0-3.9,0c-0.4,0-0.9,0-1.3,0c-3.1,0-6.2,0.1-9.2,0.1
				c-2.8-0.3-5.6-0.9-8.3,0.5c-22.2-0.1-44.4,1-66.6,1.9c-13.8,0.6-27.7,0.6-41.5,2.2c-4.8-0.3-9.7-0.2-14.5,0.3
				c-3.1-0.1-6.3-1-9.2,0.8c-7.6-0.1-14.6,1.7-20.8,5.9c-3,2-5.6,4.4-8.4,6.5c-0.3-0.6,0.4-1.6-0.8-1.7c-0.1,0-0.3,1.1-0.5,1.6
				c-0.3,0.1-0.8,0.2-0.8,0.4c-0.1,0.6,0.5,0.7,0.9,0.8c0.7,2.5-2.7,2.7-2.9,5c-0.5,4.4-2,8.8-2.3,13.3c-1.5,20.8-3.5,41.7-3.8,62.6
				c-0.7,54.9-2.1,109.8,2.1,164.7c1.1,14.3,2.3,28.6,4.2,42.8c-0.3,1.5-0.5,3,0.7,4.2c0.1,0.6,0.2,1.3,0.3,1.9
				c0,1.8-0.3,3.6,1.2,5.1c0.6,3.2,2.4,5.9,4.5,8.5c-0.2,0.7,0.2,1.1,1,1.1c0.2,0.7,0.5,1.2,1.3,1.4c4.1,5.7,10.1,8.7,16.8,10.9
				c9.1,3,18.8,2.3,28.2,3.4c13.5,1.7,27,2.4,40.6,3.4c12,0.8,24,2,36.1,2.1c7,1.6,14.1,0.9,21.2,1.1l0,0c2.1,1.4,4.4,0.9,6.6,0.6
				c9.7,0.2,19.3,0.4,29,0.7c2,1.3,4.3,0.8,6.4,0.8c17.6,0.2,35.2,0.3,52.8,0.3c19.1,0,38.3,0.2,57.4-0.5c3.6,0.1,7.2,0.8,10.7-0.6
				c8.8-0.2,17.5-0.4,26.3-0.6c2.1,0,4.3,0,6.4,0c9.3-0.6,18.6-1.3,27.9-1.9c13.9-0.8,27.8-1.2,41.6-2.6c13.9-1.5,27.8-2.6,41.7-3.9
				c2.2-0.1,4.5,0.7,6.4-1c1.4-0.1,2.7-0.1,4.1-0.2c21,0.1,35.9-12,39.4-30.6c0.9-5,1.1-10.2,1.6-15.2c0.7-6.7,1.6-13.4,2.2-20.1
				c0.6-7.5,1-15.1,1.4-22.7c0.6-3.3-0.3-6.7,0.8-9.9C551.8,432.2,552.8,432.2,553.8,432.2z"/>
			<path d="M493.3,571.4c2.2,0.1,4.4,0.1,6.5,0.2c2.2,13.6,4.4,27.1,6.5,40.7c2.4,15.6,4.7,31.2,7.1,46.8c-0.3,1.5-0.6,3,0.9,4.2
				c0.2,1.5,0.3,2.9,0.5,4.4c-0.5,3.9,1.2,7.4,1.5,11.2c0.8,5.3,1.5,10.6,2.3,15.9c-0.4,0.9-0.5,1.7,0.3,2.5c0.5,4,0.9,8,1.4,12.1
				c-1.1,1.9-2.5,0.9-3.9,0.3c-0.6-3.8-1.2-7.7-1.9-11.5c-3-17.2-6-34.3-9-51.5c-3-17.2-6-34.3-8.8-51.5
				C495.4,587.2,493.3,579.4,493.3,571.4z"/>
			<path class="st0" d="M167.9,136.9c-9.4-8-17.3-17.4-26-26c-7.2-7.2-14.7-14.2-21.1-22c-8-9.8-17.2-18.6-25.8-27.8
				c-12-12.8-24.3-25.3-36.5-38c-1.5-1.5-2.8-3.1-4.3-4.7c-1.7-1.8-3.4-3.4-6.4-3.9c-3.3-0.6-3.6-2.4-1.2-4.7
				c0.7-0.7,1.7-1.2,2.6-1.7c1.8-1,3.3-0.5,3.3,1.3c-0.1,4.5,3.7,6.4,6.1,9.4c6.2,7.5,13.4,14.3,20.1,21.3
				c8.9,9.4,18,18.7,27.3,27.9c20,19.7,39.8,39.6,59.2,59.8c1.2,1.3,3.3,2.2,2.9,4.4C168.1,133.8,168,135.4,167.9,136.9z"/>
			<path class="st1" d="M383.6,643.1c-1.1-3.6-1.1-7.2-1.2-10.9c-0.3-9.6-2.4-18.9-3.9-28.4c-0.7-4.4-0.5-8.9-1.4-13.4
				c-1.5-7.6-2-15.3-2.9-23c-0.2-1.4,0-2.9-0.1-4.3c-0.1-1.6,0.3-3,2.5-2.7c2,0.2,3.7-1.5,5.8-0.8c-0.8,6.3,1.3,12.4,1.6,18.7
				c0.2,3.5,0.9,7.1,1,10.8c0,0.5,0.4,1,0.6,1.5c0.9-0.5,0.6-1.4,0.7-2.2c0.1-0.4,0.1-0.8,0.2-1.2c0.3,0.1,0.6,0.2,0.9,0.3
				c2.8,1.7,1.2,4.2,1.3,6.4c-0.3-0.1-0.6-0.2-1-0.2c-2.9,3.7-1.4,7.6-0.8,11.5c0.3-0.3,0.6-0.5,0.8-0.8c0.4,0,0.7,0.1,1.1,0.3
				c0.9,0.3,1.4,0.9,1.4,1.8c-0.6,8.1,2,16.1,1.4,24.2c-0.3,4.1,1.8,7.9,1.3,12c-1.2,0.4-1.7,1.2-1.7,2.3c0,1.5-1.2,1.4-2.2,1.5
				c-0.8-4.1-0.9-4.1-4.2-2.3C383.2,645.3,384.3,643.3,383.6,643.1z"/>
			<path class="st1" d="M66.3,709.6c-1.4,0.4-2.5,1.4-4.1,1.2c1-4.9,2.1-9.9,3.1-14.8c1.3-0.6,0.9-1.6,0.7-2.5
				c1.2-4.5,2.4-9.1,3.6-13.6c3.2-1.1,2.2-2.9,0.9-4.8c0.8-4.6,1.6-9.1,2.4-13.7c2-1.3,1.3-3.2,1.1-4.9c0.1-0.8,0.3-1.6,0.4-2.5
				c1.4-0.6,1-1.6,0.7-2.5c0.1-0.8,0.3-1.6,0.4-2.4c2-2.6,1.8-5.7,2.3-8.7c0.6-3.3,1.2-6.5,1.8-9.8c1.4-0.5,1.1-1.5,0.8-2.5
				c0.2-1.2,0.4-2.4,0.6-3.6c1.2-0.6,1-1.5,0.8-2.5c0.2-1.2,0.4-2.4,0.6-3.7c1.2-0.6,1-1.5,0.8-2.5c0.7-3.2,1.3-6.5,2-9.7
				c1.3-2.8,2.3-5.7,2-8.8c0.7-2.8,1.5-5.6,1.9-8.4c1-5.8,3.5-11.3,3.2-17.3c2.1-4.1,2.4-8.6,4-12.8c0.2-0.6,0.3-1.2,0.5-1.8
				c1.4-4.2,3-5.8,5.3-5.2c3.4,1,2.6,3.8,2.6,6.2l0.1-0.1c-4,0.6-1.7,4.5-3.8,6.2c-0.6,0.6-0.6,1.9,0.9,2.2c0,0.6,0.2,1.5-0.1,1.8
				c-4.7,3.9-5.2,9.2-6.6,14.5c-3.2,12.8-5.7,25.7-9,38.4c-4.5,17.3-7.9,34.8-11.9,52.2c-2.5,10.9-4.7,21.8-7.8,32.6
				C66.2,707.1,66.4,708.4,66.3,709.6z"/>
			<path class="st0" d="M503.3,673.3c-3.4-16.4-6.8-32.9-10.2-49.3c-3.4-16.2-6.7-32.5-10-48.7c-0.3-1.6-0.2-3.3-0.3-4.9
				c1.7,0,3.4,0.1,5.1,0.1c3.2,17.9,6.4,35.9,9.6,53.8c4.5,24.8,9.1,49.5,13.7,74.3c-0.5,0.6-1,1.2-2,1.2c-0.8-8-3.9-15.5-5-23.4
				C506.1,674.8,504.5,674.1,503.3,673.3z"/>
			<path class="st0" d="M444.3,99.6c3.3-5.9,7.9-10.7,13.4-14.8c2-1.5,3.8-3.4,5.6-5.2c19.6-19.9,39.2-39.8,58.8-59.7
				c2.4-2.4,5-4.6,5.4-8.2c0.3-2.6,1.9-2.3,3.7-1.3c1.9,1,3.3,2.3,3.1,4.3c-0.2,2-2.4,2.2-4,2.4c-2,0.2-3.2,1.2-4.4,2.4
				c-12.2,12.6-24.5,25.2-36.6,37.9c-2.8,2.9-6,5.4-8.8,8.3c-6.9,7.1-13.5,14.4-20.1,21.7c-4.9,5.4-9.2,11.3-15.8,15.1
				C444.6,101.5,444.4,100.6,444.3,99.6z"/>
			<path class="st1" d="M196,599.8c1.8-0.5,1.3-2,1.2-3.1c-0.4-11.2,0.9-22.5-1.1-33.6c-0.3-1.8,0.4-2.7,2.5-2.7
				c1.7,0,3.7-0.4,3.9,2.1c0.1,1.2,0.1,2.5,0.1,3.7c0.1,10-0.4,20.1,0.4,30.1c1.2,16.1,0.8,32.2,1.3,48.3c-1.1,0.7-2.1-0.1-3.1-0.2
				c0-6.7-0.1-13.4-0.1-20c0-1.4,0.6-3.4-0.2-4.2c-3.6-3.6-1.9-7.9-2.3-12c-0.1-1.4-0.2-2.8-1.4-3.9
				C195,603.1,195.9,601.4,196,599.8z"/>
			<path class="st1" d="M207.9,644.3c0.1-9,0.3-18,0.3-27c0-8.7-0.2-17.5-0.4-26.2c0-0.5,0.2-1.3-0.5-1.3c-0.8,0-0.5,1-0.8,1.5
				c-0.2,0.3-0.6,0.5-0.9,0.7c-0.1-0.4-0.4-0.8-0.4-1.1c1-9.2-1.8-18.2-1.3-27.4c0.1-2.1,0.9-2.8,3.1-2.9c2.6-0.1,3.4,0.8,3.4,3.2
				c-0.1,7.6,0,15.2,0.1,22.7c0,1.2-0.9,3,1.3,3.6c0,12.2,0.5,24.4-0.2,36.6c-0.3,5.4-0.7,10.9-1,16.3
				C209.6,643.4,208.7,643.8,207.9,644.3z"/>
			<path class="st0" d="M516.3,709.6c1.3,0.7,2.7,1.7,3.9-0.3c0.3-0.2,0.6-0.3,0.9-0.2c1,0.7,1.4,0.3,1.6-0.7
				c2.7-2.2,4.1,0.9,6.2,1.3c0.1,0.4,0.2,0.8,0.4,1.2c1,1.7,3.3,1.7,4.6,3c-1.8,0.7-3.6,1.4-5.3,2.2c-0.3,0.1-0.5,0.6-0.7,0.9
				c-0.8,0.1-1.7,0.2-2.5,0.3c-1.1-0.4-2.2-0.5-3.1,0.5c-2.3-0.1-4.6-0.2-7-0.3c-2-2.8-4.6-2-7.2-1.1c-2.7,0.8-5.2-0.2-7.6-1
				c-2.2-0.8-2.4-2.1-0.6-3.6c1.6-1.4,3.6-2.2,5.7-2.8c1,1.9,2.7,1.3,4.3,1.2c-0.3-0.7-0.5-1.4-0.8-2.1l0.2-0.1
				c1.4,0.1,2.7,0.3,4.1,0.4C513.7,710.2,515,709.9,516.3,709.6z"/>
			<path class="st1" d="M487.8,570.5c-1.7,0-3.4-0.1-5.1-0.1l0.1,0.1c-1-5.4-4.4-10-5.9-15.3c-0.4-1.4-1.7-0.3-2.4,0.5
				c-1.1-0.5-1.9-1.4-2.4-2.4c0.4-0.1,0.8-0.2,1.2-0.3c6.4-1.7,6.4-1.7,7.9,4.1c0.9,3.3,1.8,6.6,2.6,10c0.3,1.1,0.8,2.2,2,1.9
				c1.2-0.4,0.7-1.7,0.5-2.7c-0.9-3.7-1.8-7.5-2.7-11.2c-1-4.2-0.9-4.3,4.2-4.2c1,6.5,2,13,3,19.5
				C489.9,570.3,488.9,570.4,487.8,570.5z"/>
			<path class="st0" d="M197.2,604.2c1.2,1.1,1.3,2.4,1.4,3.9c0.4,4-1.3,8.3,2.3,12c0.8,0.8,0.2,2.7,0.2,4.2c0,6.7,0.1,13.4,0.1,20
				c-0.7,0.1-1.4,0.3-2.2,0.4c-0.2-0.2-0.4-0.3-0.6-0.5c0.8-3,0.7-6.1,0.2-9.1C197,624.9,197.5,614.5,197.2,604.2z"/>
			<path class="st0" d="M389.1,646.6c1-0.1,2.2,0,2.2-1.5c0-1.1,0.5-1.9,1.7-2.3c3.3,1,6.6,2,9.4,3.9c1.8,1.2,1.3,3-0.4,3.1
				c-4.4,0.2-8.4,3.4-13,1.8C387.3,649.9,388.9,648.3,389.1,646.6z"/>
			<path class="st0" d="M207.9,644.3c0.9-0.4,1.8-0.9,2.7-1.3c2.8,2.1,6.7,1.5,9.5,3.5c0.8,0.6,2.2,0.9,2.2,2c0,1.4-1.3,2.4-2.5,2.5
				c-2.2,0.1-4.3,1.8-6.6,0.8c-5.2-2.1-5.2-2.1-5.7-7.1L207.9,644.3z"/>
			<path class="st0" d="M201.2,651.7c-4.1,0.3-8.2,0.9-12.2-0.5c-0.7-0.3-1.6-0.9-1.9-1.5c-0.5-1.2,0.7-1.8,1.7-2.2
				c3.1-1.3,6.1-3.2,9.7-3.2c0.2,0.2,0.4,0.3,0.6,0.5C200.6,646.8,202,648.9,201.2,651.7z"/>
			<path class="st0" d="M443.3,104.7c-3.3,4.3-6.6,8.7-12,11.2c0.1-1.2,0.1-2.4,0.2-3.7c3-4.3,5.9-8.5,10.4-11.6
				C442.4,101.9,440.6,103.9,443.3,104.7z"/>
			<path class="st0" d="M413.5,135c-2.7,4.3-6.7,7.7-10.6,11c-0.3-0.3-0.7-0.6-1-0.9c0.4-1,1-2,0.6-3.2c2-4,4.9-7.4,8.8-10
				c0.2,0.9-0.6,2.4,1.4,2.3C412.9,134.5,413.2,134.7,413.5,135z"/>
			<path d="M553.8,432.2c-1,0-2,0-3,0c0-2,0.1-3.9,0.1-5.9c1.2-3.3,0.8-6.7,0.5-10c0.1-3.2,0.3-6.4,0.4-9.6c1.7,0.6,1,2,1.1,3.1
				c0.1,1.1-0.3,2.5,1.3,3c0,4.1,0,8.2,0.1,12.2c-0.7,2.4-0.8,4.9-0.2,7.3L553.8,432.2z"/>
			<path class="st2" d="M386.6,587.2c-0.1,0.4-0.1,0.8-0.2,1.2c-0.1,0.8,0.1,1.6-0.7,2.2c-0.2-0.5-0.6-1-0.6-1.5
				c-0.1-3.6-0.8-7.2-1-10.8c-0.3-6.2-2.5-12.4-1.6-18.7c1.7-0.8,3.5-0.6,5.3-0.3c-0.1,0.6-0.6,1-1.2,1.1c-2.1,3.7-2.1,8.5,0,12.5
				c0.1,0.4,0.1,0.7-0.1,1C386.4,578.5,386.5,582.8,386.6,587.2z"/>
			<path class="st0" d="M502.6,570.2c0-6.1-0.1-12.2-0.1-18.2c0-1.5,0-3,2.2-3c2.2,0.1,1.9,1.8,2,3.2c0.1,2.2-0.2,4.4-1,6.6
				c-0.5,1.9-0.5,3.8-0.2,5.7c0.1,1.8,0.3,3.6,0.4,5.4c-0.5,0.2-1.1,0.4-1.6,0.6c-0.5,0-1.1,0-1.6,0L502.6,570.2z"/>
			<path class="st0" d="M426.3,122.1c-2,3.5-5.1,6-8.3,8.3c-0.4,0.1-0.9,0.1-1.3,0.2c0,0-0.6,0-0.6,0l-0.6-0.1c0.9-1,2-1.9,1.5-3.5
				c2.8-3.4,4.4-7.8,8.9-9.9C425.8,118.8,425.4,120.4,426.3,122.1z"/>
			<path d="M201.2,651.7c0.9-2.8-0.5-4.9-2.1-7c0.7-0.1,1.4-0.3,2.2-0.4c1,0.2,2,0.9,3.1,0.2c1.1,0.1,2.1,0.1,3.2,0.2
				c0.5,5,0.5,5,5.7,7.1C209.1,652.4,205.1,653.3,201.2,651.7z"/>
			<path class="st3" d="M516.2,678.9c-0.3-3.8-2.1-7.3-1.5-11.2c2.2-1.3,0.9-3.3,1.1-4.9c0.1-0.5,0.5-1.7-0.7-1.5
				c-0.4,0-0.6,1.4-0.9,2.1c-1.4-1.2-1.1-2.7-0.9-4.2c1.4-0.4,1.1-1.5,1.2-2.4c0.4,0,0.9,0,1.3,0c0.4,0.4,1.2,0.9,1.2,1.3
				c-0.2,4.2,0.7,8.3,1.4,12.4c-1.9,2-1.9,4,0,6.1c2.1,0.8,1.2,2.4,1.3,3.8c-0.4,0-0.8,0-1.2,0C518.2,679.1,517.3,678.9,516.2,678.9
				z"/>
			<path d="M187.9,151.6c-0.6,1.2-1.5,1.1-2.7,0.6c-1.3-0.5-1.3,0.5-1.3,1.3c-3.2-3.1-6.4-6.1-9.5-9.2c-0.9-0.9-2-1.9-0.5-3
				c1.1-0.8,2.5-0.7,3.5,0.3c0.9,0.9,1.7,1.9,2.5,2.8c0,1.7,1.2,2.2,2.8,2.1C184.5,148.2,186.2,149.9,187.9,151.6z"/>
			<path d="M389.1,646.6c-0.2,1.7-1.8,3.3-0.2,5c-2.2,0.4-4.4,0.5-6.5-0.3c0-2.1,0.3-4.2-0.9-6.3c-0.9-1.6,0.7-1.8,2-2
				c0.7,0.2-0.4,2.2,1.4,1.2C388.2,642.5,388.3,642.5,389.1,646.6z"/>
			<path class="st0" d="M474.6,555.7c0.7-0.8,2-1.9,2.4-0.5c1.5,5.3,4.9,9.9,5.9,15.3c-2.4-0.4-3.7-1.7-4.4-3.9
				C477.4,562.9,475.9,559.3,474.6,555.7z"/>
			<path class="st0" d="M370.2,171c4.1-5.2,9.1-9.5,13.9-14c0.4,0.4,0.9,0.8,1.3,1.2c-0.9,1.5-3.1,2.3-3,4.4l-0.1,0.1
				c-0.7,0.1-1.2,0.4-1.3,1.2l0,0c-0.8,0.1-1.2,0.5-1.3,1.2l0,0c-1.3,0.4-2.1,1.3-2.6,2.4l0,0c-1.2,0.5-2,1.3-2.6,2.4l0,0
				c-1,0.7-2,1.4-3,2.1C371,171.7,370.6,171.3,370.2,171z"/>
			<path class="st0" d="M527.8,717.1c0.2-0.3,0.4-0.8,0.7-0.9c1.7-0.8,3.5-1.5,5.3-2.2c-1.3-1.3-3.5-1.4-4.6-3
				c-0.2-0.3-0.3-0.8-0.4-1.2c1.3-0.3,2.5-0.5,3.7,0.2c1.8,1,4.5,1.3,4.4,3.9c-0.2,2.5-2.8,2.8-4.8,3
				C530.7,717,529.3,719.5,527.8,717.1z"/>
			<path class="st1" d="M426.3,122.1c-0.8-1.6-0.5-3.3-0.3-5c1.9-1.6,1.9-5,5.5-4.9c-0.1,1.2-0.1,2.4-0.2,3.7
				C431.5,119.3,429.7,121.2,426.3,122.1z"/>
			<path d="M167.9,136.9c0.1-1.6,0.3-3.1,0.4-4.7c2.7,1.1,4.1,3.4,6.1,5.2c0.9,0.9,1.7,2,0.3,3.1c-1.1,0.8-2.4,1-3.5,0
				C170,139.4,169,138.1,167.9,136.9z"/>
			<path class="st1" d="M513.2,708.5c-1.4-0.1-2.7-0.3-4.1-0.4c0.1-2.2,0.6-4.4-0.8-6.4c-0.5-0.8-0.1-1.5,0.9-1.9
				c0.9,0,1.5-0.6,2-1.2C512.2,701.8,513,705.1,513.2,708.5z"/>
			<path class="st2" d="M502.6,570.5c0.5,0,1.1,0,1.6,0c1,7.4,2.7,14.6,2.4,22.1l0,0c-0.4-0.4-1.2-0.8-1.2-1.3
				C505,584.3,503.9,577.4,502.6,570.5z"/>
			<path class="st2" d="M506.6,592.6c0.4,0.4,1.2,0.8,1.2,1.2c-0.1,6.2,2.4,12.2,1.4,18.5l0,0c-2.3-4.1-1.7-8.7-2.6-13.1
				C506.3,597,506.7,594.7,506.6,592.6L506.6,592.6z"/>
			<path class="st2" d="M509.3,612.3c2.3,5,2.9,10.3,2.6,15.7c0,0.3-0.4,0.7-0.6,1c-0.2-0.3-0.6-0.7-0.6-1
				C510.7,622.7,508.4,617.6,509.3,612.3L509.3,612.3z"/>
			<path class="st3" d="M380,172.5c1.6-2.6,3.8-4.6,6.2-6.4c0.5,1.2,1.4,2.3-0.2,3.6C384.2,171.1,382.7,172.8,380,172.5z"/>
			<path class="st0" d="M101.9,566.5c-1.5-0.3-1.6-1.7-0.9-2.2c2-1.7-0.3-5.7,3.8-6.2C104.4,561.1,102.8,563.7,101.9,566.5z"/>
			<path class="st1" d="M402.5,141.9c0.4,1.2-0.2,2.2-0.6,3.2c-1.5,0.6-2,2.4-3.7,2.6C398.4,142.4,398.4,142.4,402.5,141.9z"/>
			<path class="st0" d="M386.6,587.2c-0.1-4.4-0.2-8.8-0.2-13.2c2.2,4.4,0.6,9,1.2,13.5C387.2,587.5,386.9,587.3,386.6,587.2z"/>
			<path class="st1" d="M386.4,573c-2.1-4-2.1-8.8,0-12.5C386.4,564.7,386.4,568.9,386.4,573z"/>
			<path class="st0" d="M507.9,716.6c2.6-0.9,5.2-1.8,7.2,1.1C512.7,718,509.9,719.7,507.9,716.6z"/>
			<path class="st2" d="M518.8,697.3c-0.7-0.8-0.7-1.6-0.3-2.5c0.2-0.1,0.4-0.2,0.6-0.3c1.9-1.3-0.6-3.9,1.7-5.1
				c0.8,2,0.3,4,0.4,6.1c0,0.6,0,1.2,0,1.8l0,0C520.4,697.3,519.6,697.3,518.8,697.3z"/>
			<path class="st0" d="M388.9,604.9c-0.3-0.2-0.7-0.3-1.1-0.3c0-3.6-0.1-7.2-0.1-10.7c0.3,0,0.7,0,1,0.2
				C388.8,597.6,388.9,601.2,388.9,604.9z"/>
			<path class="st1" d="M513.2,639.4c2.7,3,0.8,6.6,1.3,9.8l0.1,0C511.7,646.2,514,642.6,513.2,639.4L513.2,639.4z"/>
			<path class="st1" d="M505.5,564.4c-0.3-1.9-0.4-3.8,0.2-5.7c0.7,0.1,1.4,0.2,2,0.2c0.2,1.8,1.3,3.8-0.9,5.2
				C506.4,564.3,505.9,564.4,505.5,564.4z"/>
			<path class="st2" d="M391.6,175.6c-3.6,0.6-7.3,1.1-10.7-0.6C384.5,174.9,388.1,174.2,391.6,175.6z"/>
			<path class="st1" d="M508.9,708.2c0.3,0.7,0.5,1.4,0.8,2.1c-1.6,0.1-3.4,0.7-4.3-1.2C506.2,707.8,507.7,708.3,508.9,708.2z"/>
			<path class="st1" d="M443.3,104.7c-2.6-0.8-0.8-2.8-1.4-4.1c0.4-1.2,1.5-0.9,2.4-0.9c0.1,0.9,0.3,1.9,0.4,2.8l-0.1-0.2
				C442.4,102.2,443.5,103.8,443.3,104.7L443.3,104.7z"/>
			<path class="st0" d="M413.4,132.5c0.9-1.3,2-1.3,3.3-0.7l-0.1-0.1c-0.2,1.8-1.8,2.3-3.1,3.1c-0.3-0.2-0.6-0.5-0.8-0.8
				C412.9,133.6,413.2,133.1,413.4,132.5z"/>
			<path class="st1" d="M554.1,432.3c-0.6-2.4-0.6-4.9,0.2-7.3C556.2,427.5,556.2,429.9,554.1,432.3z"/>
			<path class="st2" d="M513.3,639.4c-2.2-0.9-1.2-2.7-1.3-4.1c-0.1-0.9-0.2-2.6,0.7-2.6c0.9,0,0.7,1.6,0.7,2.6
				C513.3,636.6,513.3,638,513.3,639.4L513.3,639.4z"/>
			<path class="st1" d="M515.9,656.6c-0.4,0-0.9,0-1.3,0c0-2.5,0-4.9,0-7.4l-0.1,0C517.2,651.4,515.4,654.2,515.9,656.6z"/>
			<path class="st1" d="M417,127c0.5,1.5-0.6,2.5-1.5,3.5c-1.7-0.4-1.5-1.7-1.1-2.7C414.8,126.7,416,126.8,417,127z"/>
			<path class="st1" d="M518.5,676.3c-1.9-2-1.9-4,0-6.1C518.5,672.3,518.5,674.3,518.5,676.3z"/>
			<path class="st0" d="M505.5,564.4c0.4-0.1,0.9-0.1,1.3-0.2c-0.5,1.9,0.4,3.9-1,5.6C505.7,568.1,505.6,566.3,505.5,564.4z"/>
			<path class="st1" d="M503.3,673.3c1.2,0.8,2.8,1.4,0.9,3C502.4,675.8,502.6,674.6,503.3,673.3z"/>
			<path class="st1" d="M518.6,680.1c0.4,0,0.8,0,1.2,0c0,1,0.1,2.1,0,3.1c0,0.4-0.2,1-0.4,1.1c-0.8,0.1-0.8-0.6-0.8-1.1
				C518.6,682.1,518.6,681.1,518.6,680.1z"/>
			<path class="st0" d="M182.7,146.5c-1.6,0.1-2.7-0.3-2.8-2.1C181.3,144.6,182.7,144.8,182.7,146.5z"/>
			<path class="st2" d="M521.2,697.3c2.1,0.7,1.1,2.4,1.3,3.7c-0.4,0-0.8,0-1.2,0C521.2,699.7,521.2,698.5,521.2,697.3L521.2,697.3z
				"/>
			<path class="st3" d="M379.7,174.9c-0.6-0.1-1.6-0.1-1.7-0.3c-0.1-1.1,0.7-1.6,1.8-1.9C379.8,173.4,379.7,174.2,379.7,174.9z"/>
			<path class="st1" d="M521.3,701c0.4,0,0.8,0,1.2,0c0,0.6,0.1,1.1,0,1.7c-0.1,0.5-0.4,1-0.6,1.5c-0.2-0.5-0.5-1-0.6-1.5
				C521.1,702.1,521.2,701.6,521.3,701z"/>
			<path class="st0" d="M368.4,172.8c0.5-0.7,0.8-1.5,1.8-1.8c0.4,0.4,0.8,0.8,1.3,1.1c-0.6,0.6-1.3,1.2-1.9,1.9
				C369.1,173.5,368.8,173.2,368.4,172.8z"/>
			<path class="st1" d="M413.4,132.5c-0.2,0.5-0.5,1.1-0.7,1.6c-2,0.1-1.3-1.4-1.4-2.3C412.1,131.8,412.8,132,413.4,132.5z"/>
			<path class="st0" d="M443.2,104.7c0.3-0.9-0.8-2.5,1.4-2.5C445.3,103.7,444.3,104.2,443.2,104.7z"/>
			<path class="st0" d="M522.1,717.9c0.9-0.9,2-0.9,3.1-0.5C524.4,718.5,523.3,718.3,522.1,717.9z"/>
			<path class="st1" d="M398.2,147.7c-0.2,1.2-0.7,1.6-1.7,0.5C397,148.1,397.6,147.9,398.2,147.7z"/>
			<path class="st1" d="M522.7,708.5c-0.2,1-0.6,1.4-1.6,0.7C521.4,708.5,522,708.4,522.7,708.5z"/>
			<path class="st1" d="M416.7,130.6c0.4-0.1,0.9-0.1,1.3-0.2c-0.1,0.8-0.6,1.2-1.4,1.4l0.1,0.1C416.7,131.4,416.7,131,416.7,130.6z
				"/>
			<path class="st2" d="M505.3,530.7c-1.4,0.1-2.7,0.1-4.1,0.2c-2.1,0.4-4.5-0.9-6.4,1c-13.9,1.3-27.8,2.4-41.7,3.9
				c-13.8,1.4-27.7,1.8-41.6,2.6c-9.3,0.5-18.6,1.2-27.9,1.9c-2.1-1.2-4.3-1.1-6.4,0c-8.8,0.2-17.5,0.4-26.3,0.6
				c-3.6,0.1-7.2-0.9-10.7,0.6c-19.1,0.7-38.3,0.5-57.4,0.5c-17.6,0-35.2-0.2-52.8-0.3c-2.1,0-4.4,0.5-6.4-0.8
				c22.9,0,45.8-0.1,68.7-0.2c2.1,0,4.8,0.9,6.3-0.6c1.9-1.9,3.3-4.3,4.3-6.7c0.6-1.3,0.8-3.6-1.9-3.6c-5.3,0-9.8-3.2-15.3-2.7
				c-3.2,0.3-5.8-2.7-4.7-5.2c1.5-3.2-0.2-4-2.6-4.9c-2.6-1-5.1-2.3-7.8-3c-2.3-0.5-4.8-0.5-7.2-0.2c-1.9,0.3-2.2,2.1-2.8,3.7
				c-0.7,1.7-2.1,0.6-3.1-0.2c-3.8-3.5-8.5-4.9-13.6-4.8c-2.4,0-4.1-0.6-5.9-2.1c-2.2-1.9-4.6-3.9-8.1-2c-1.9,1-3.7,0.2-4.4-1.5
				c-1.6-4.1-5.2-3.2-8.3-2.9c-1.7,0.2-3.2,1.4-5,1c-1.9-0.4-5.2,1.4-5.3-1.8c-0.1-2.5,3-3,5.4-3.1c0.7,0,1.3-0.1,2,0
				c2.4,0.3,4.1-0.6,5.9-2c3-2.3,6.4-4.1,10.6-4.3c2.2-0.1,4.7-0.6,6.3-2.4c17.2,0.1,34.4,0.4,51.6-1.2c0.3,0.9,1,1.4,1.9,1
				c0.8-0.4,0.8-1.3,0.8-2.1c4.2-0.9,8.2,1.3,12.3,1.1c6.3-0.3,12.7,0.7,18.9-1.1c4.5-1.3,9,1.2,13.6,1.1c1.5-0.1,3.3,0.8,4.1-1.2
				c3.5,0,7,0,10.6,0c3.7,2.1,5.1,1.8,6.6-1.1c5.6,0.2,11.3-0.6,16.9,1c2.2,0.6,5,0.6,7.1-0.2c3-1.2,6-0.7,9-0.9
				c3.6,1.8,5.8,1.8,9.3,0c2.6,0,5.3,0,7.9-0.1c3.2,2.6,6.7,1.4,10.2,0.6c0.3-0.1,0.3-1.1,0.4-1.7c3.8-0.7,7.4,1.9,10.9,1
				c6.1-1.6,12.1-0.8,18.2-1c0,0.4,0,0.8,0,1.2c0.1,0.9-0.2,2.2,1.3,2.2c1.5,0,1.2-1.3,1.3-2.2c0-0.4,0-0.8,0-1.2
				c6.7-0.4,7.8-1.3,7.8-7.1c0-3.4-0.1-7,0.5-10c1.8-8.1,0.7-16.2,1.8-24.3c1.6-11.3,0.6-22.8,1.5-34.2c1.5-20-0.7-40.1,1.3-60.1
				c1-9.8,0.5-19.7-1-29.5c-0.1-0.8-0.2-1.7,0-2.5c1.4-4.4,0.3-8.7,0.2-13.1c-0.6-17.6,0.1-35.2-1.5-52.7c-0.4-4.3,0.3-8.7-0.4-12.9
				c-0.3-1.7-0.3-4.2-2.5-5.4c-2.5-1.4-2.6,2.7-4.8,1.9c-0.2-0.1-0.4,0-0.7,0c-1.9-1.1-4-1.3-6.3-1.5c-18.4-1.5-37-1.2-55.4-2
				c-22.4-1-44.9-1.1-67.4-1.3c-41.6-0.3-83.2-0.5-124.9,0.3c-37.9,0.8-75.7,1.5-113.6,3c-4.9,0.2-8,1.8-9.1,6.2
				c-1,0.5-3.7-1.4-3,1.8c0.1,0.6-1.3,0.6-2,0.7c-2.6-1.6-0.8-4.1-1.4-6.1l0,0c1.1-0.1,2.1-0.1,2.5-1.4c1.7-5,4.1-5.9,9.9-5.2
				c7,0.8,14.1-1,21.2,0c1.7,0.2,4.2-1,6.3-0.7c5.8,1,11.5-2.9,17.3-0.3c8.9-3.7,18.6-0.9,27.7-3.3c1.8-0.5,3.9-0.4,5.8,0.3
				c3.8,1.3,7.6,0.6,11.5,0.1c7.8-1.1,15.8-1,23.6-0.1c3.4,0.4,6.1,1.2,9.1-1c1.7-1.2,4.4-1.6,6.2,0.8c2.2,2.8,4.6,3.3,7.3,0.9
				c2.4-2.1,4.8-2.4,7.8-2.4c11,0.1,22,0.1,33,0c5.4-0.1,10.9,0.5,16.3-1c2.5-0.7,5.7-0.7,8.4,0.4c2.5,1.1,5.5,1.1,7.7,0.4
				c3.7-1.3,7.4-0.8,11-1c5-0.3,10,0.5,15-1.1c2.2-0.7,4.8-0.4,7.2,0c5.1,0.8,9.5,0.3,13.5-3.3c6-5.3,12.4-5.9,19.4-2.6
				c2.5,1.2,5,1.5,7.3-0.3c1.7-1.3,3.6-2.1,5.8-2.6c8.2-1.9,16.8-0.9,25.1-3.3c4.8-1.4,10.2-2.2,14.7-4.2c5.6-2.5,10.8-2.9,16.3-0.8
				c2.8,1.1,5.2,1,8.2,0.2c6.2-1.7,12.5-3.1,18.9-4c3.4-0.5,6-1,6.9-4.3c0.4-1.5,1.3-2,2.7-1.9c4.7,0.1,8.5-3.1,13.1-3.4
				c4.1,0,8.2-0.6,12.1,0.9c-1,0.2-3,0.3-3,0.5c0,1.6,1.4,0.7,2.1,0.8c3,0.2,6-0.1,9,1.1c1.5,0.6,3.7,0.5,3.6-2
				c0.9-0.3,1.7,0.2,2.4,0.5c0.3,0.4,0.6,0.8,0.9,1.3c0.3-0.4,0.6-0.8,0.9-1.2c8.3-0.1,16.6-0.3,24.1,3.9
				c-6.9,0.7-13.9-0.5-20.8,1.3c-2.2,0.6-3.7,0.7-3.5,3.2c0.3,2.5-1,3.3-3.5,3.1c-3.7-0.4-6.6,0.1-5.9,4.7c0.1,0.4-0.6,1.2-1.1,1.3
				c-3.1,0.9-4.2,3-4.6,5.9c-0.1,0.8-1.2,1.8-2.1,2.2c-5.6,2.8-8.3,8.7-14.3,11.1c-1.7,0.7-2.3,2.7-3.2,4.4c-1.9,3.5,0.4,8-3.5,10.8
				c-0.3,0.3-0.1,1.7,0.3,2.3c3.9,5.2,2.3,10.9,1.4,16.4c-0.7,4.4-0.5,5.5,3.8,7c1,0.3,2.1,0.4,3.2,0.5c1.1,0.1,1.9,0.9,1.4,1.6
				c-2.5,3.1,0.4,6.9-1.9,10.1c-0.9,1.3-0.5,2.8,1.6,3.2c0.5,1.9-1.9,3.2-1.4,5.1c-0.2,1.2-0.7,2.5-0.5,3.6c0.9,5.6,4.5,10.4,5.6,16
				c0.1,0.7,1.6,1.2,2.6,1.7c1.9,0.9,3.8,0.5,5.8,0.2c0.8,0.3,1.6,0.7,2.5,1c1.1,1.2,2.6,1.9,4.1,2.4c3,2.1,7.1,2,9.9,4.4
				c0,2.5-1.5,2.5-3.5,1.9c-3.8-1-6.9-3.4-10.4-4.9c-2.1-0.9-3.1-0.6-4.4,1c-3.1,3.7-3.2,3.6-7.3,0.8c-0.5-0.4-1-0.9-1.6-1.1
				c-1.3-0.5-2.5-0.3-3.6,0.7c-1.2,1.1-0.7,2.1,0.2,3.2c1.8,2.2,2.9,4.6,6.9,4.7c3.4,0.1,5,2.6,3.6,5.7c-1,2.5,0.2,4.2,0.2,6.3
				c-2.4,0.2-5.7-0.8-4.3,3.6c0.4,1.3-1,3-2.5,3.9c-2,1.2-1,2.8-0.6,4.3c0,0.2-0.1,0.5-0.2,0.7c-0.4-0.2-0.8-0.5-1.1-0.5
				c-0.8,0-1.7-2.6-1.5-0.8c0.2,3.2-1.3,6.4,0.2,9.4c0.1,0.9,0.2,1.7,0.3,2.6c-0.8,0.1-1.7,0.3-1.9,1.2c-0.2,1.3,0.9,1.5,1.9,1.7
				c-0.1,0.4-0.1,0.7-0.2,1.1c-0.9,2.2-1.4,4.6-0.3,6.6c1.4,2.7,0.8,4.2-2,5.2c-2.4,0.8-3.5,2.7-3.5,4.7c0,4-0.5,8.1,0.6,12.2
				c1.5,5.7,3.2,11.6,1.5,17.4c-1.5,5.1-1.5,10.4-0.6,15.2c0.9,4.6-0.1,10.6,6,13.5c0.3,0.2,0.4,1.2,0.3,1.7
				c-0.2,2.1,3.3,4.4-0.4,6.5c-0.5,0.3,0.5,0.7,1.1,0.8c1.8,0.1,2.3,1.3,1.8,2.6c-0.6,1.4-2.2,1.5-3.2,0.6c-1.1-1.1-1.8-2.1-1.9,0.4
				c0,0.6,0,1.2,0,1.8c-0.2,2.6-2.3,2.3-3.9,1.9c-2-0.5-0.8-1.8-0.4-2.9c0.5-1.3,1.8-2.4,1.6-4c-0.1-1.1-0.8-1.9-1.8-2.4
				c-0.9-0.5-2.1-0.2-2.3,0.5c-0.7,3.3-5.5,5.6-2.8,9.8c0.6,0.9,0.2,2.4,0.3,3.6c0.2,4-0.5,8.1,1.2,12.1c0.6,1.6,1.1,4.1-0.5,5.3
				c-3,2.1-3.1,5.7-5.6,8.1c-2.7,2.7-2.4,4,0.9,5.7c2.2,1.1,3.8,2.2,4.6,4.6c0.6,1.6,2.3,3.1,4.6,2.9c2.1-0.2,3.7,0.4,5.4,1.7
				c1.7,1.3,3.8,2.7,5.8,2.7c6.2,0.2,10.5,4.6,16.3,5.6c3.3,0.6,5.6,3.9,9.4,3.7c1.6-0.1,2.2,1.7,2.2,2.7c0.4,3.7,3,3.3,5.7,3.3
				c1.9,0,4-0.6,5.7,0.9c0.9,0.8,1.4,2.3,0.1,2.4c-4.5,0.5-7.5,4.9-12.5,4.1C506,528.2,505.4,529.3,505.3,530.7z M435.8,496.4
				c1.3,0,3.2-2.9,3.3-5.3c0.1-2.2-1.6-1.9-3.1-2.1c-3-0.4-3.8,1.6-4.4,3.5C431.1,493.9,434,496.3,435.8,496.4z M439.3,498.6
				c0,0.7,0.4,1.2,1,1.2c1.6,0,1.5-1.1,1.3-2.1c-0.1-0.6-0.5-1.1-1.3-1C439.3,497,439.3,497.8,439.3,498.6z M477.4,341.3
				c-0.2-0.4-0.4-0.9-0.7-1c-1.9-0.2-1.8,1.4-2.4,2.3c-0.3,0.4-0.1,0.9,0.4,0.9C476.2,343.4,477.1,342.6,477.4,341.3z"/>
			<path class="st1" d="M475.5,287.1c-2.1-0.4-2.5-1.9-1.6-3.2c2.3-3.1-0.6-7,1.9-10.1c0.5-0.6-0.3-1.4-1.4-1.6
				c-1.1-0.1-2.2-0.2-3.2-0.5c-4.2-1.5-4.5-2.6-3.8-7c0.9-5.5,2.5-11.2-1.4-16.4c-0.4-0.6-0.6-2-0.3-2.3c3.9-2.8,1.6-7.4,3.5-10.8
				c0.9-1.7,1.5-3.7,3.2-4.4c6-2.4,8.7-8.3,14.3-11.1c0.9-0.5,2-1.4,2.1-2.2c0.4-2.9,1.5-4.9,4.6-5.9c0.5-0.1,1.1-0.9,1.1-1.3
				c-0.7-4.6,2.2-5,5.9-4.7c2.5,0.2,3.8-0.6,3.5-3.1c-0.3-2.5,1.2-2.6,3.5-3.2c6.9-1.8,13.9-0.6,20.8-1.3c0.9,0.1,1.7,0.1,2.2,1
				c0,1.7,1.3,1.6,2.6,1.7l0,0c0.1,0.8,0.6,1.1,1.4,1.2l-0.1-0.1c0,0.8,0.5,1.2,1.2,1.3c1.3,1.3,2.7,2.5,4,3.8
				c0.1,0.7,0.6,1.1,1.3,1.1l0,0c0,1-0.2,2.1,1.2,2.5c2.9,4.2,4.6,8.8,5,13.8c-1.3,3.7-1.9,7.3,0.4,10.9c0.4,0,0.8,0.1,1.1,0.1
				c0,2,0,4.1,0,6.1c-1.7,3.7-2,7.4,0.1,11c1.2,3.3,1.5,6.6,1,10c-2,4.4-0.5,8.9-0.9,13.4c-0.1,1,0.1,2,1.3,2.5
				c1.8,3.6,1.1,7.5,1,11.3c-1.1,0.7-0.9,1.7-0.9,2.7c0,40.2,0,80.4,0,120.7c0,1.2-0.4,2.5,1.1,3.3c0.2,3.4,0.7,6.7-0.5,10
				c-0.5,0.3-1.5,0.6-1.5,0.9c-0.2,5-1.3,10,0.6,14.9c-0.5,7.6-0.8,15.1-1.4,22.7c-0.6,6.7-1.5,13.4-2.2,20.1
				c-0.5,5.1-0.7,10.2-1.6,15.2c-3.5,18.6-18.4,30.7-39.4,30.6c0.1-1.4,0.7-2.5,2.4-2.2c5,0.9,7.9-3.6,12.5-4.1
				c1.3-0.1,0.8-1.6-0.1-2.4c-1.7-1.5-3.7-0.9-5.7-0.9c-2.7,0-5.3,0.3-5.7-3.3c-0.1-0.9-0.7-2.7-2.2-2.7c-3.9,0.2-6.2-3.2-9.4-3.7
				c-5.8-1-10.1-5.4-16.3-5.6c-2-0.1-4.1-1.5-5.8-2.7c-1.7-1.3-3.3-1.9-5.4-1.7c-2.3,0.2-4.1-1.3-4.6-2.9c-0.8-2.4-2.4-3.5-4.6-4.6
				c-3.3-1.7-3.6-3-0.9-5.7c2.4-2.4,2.6-6,5.6-8.1c1.6-1.1,1.1-3.7,0.5-5.3c-1.6-4-1-8.1-1.2-12.1c-0.1-1.2,0.3-2.7-0.3-3.6
				c-2.7-4.3,2.1-6.5,2.8-9.8c0.2-0.7,1.4-1,2.3-0.5c1,0.5,1.7,1.3,1.8,2.4c0.2,1.6-1.1,2.6-1.6,4c-0.4,1.1-1.6,2.4,0.4,2.9
				c1.6,0.4,3.7,0.7,3.9-1.9c0-0.6,0-1.2,0-1.8c0.1-2.5,0.8-1.5,1.9-0.4c1,1,2.6,0.9,3.2-0.6c0.5-1.3,0-2.4-1.8-2.6
				c-0.6,0-1.6-0.5-1.1-0.8c3.7-2.1,0.2-4.3,0.4-6.5c0.1-0.6,0-1.6-0.3-1.7c-6.1-2.9-5-8.9-6-13.5c-1-4.8-0.9-10.1,0.6-15.2
				c1.7-5.8,0.1-11.7-1.5-17.4c-1.1-4.1-0.6-8.1-0.6-12.2c0-2,1.2-3.9,3.5-4.7c2.8-1,3.5-2.5,2-5.2c-1.1-2-0.6-4.4,0.3-6.6
				c1.2,0.7,1.6,1.7,2,2.9c1,2.8,1.3,5.9,3.9,8c1,4.1,3.7,7,7.6,9c1.5,1.8,3.8,2.7,5.8,3.9c-0.2,2.2-0.6,4.5,2.4,5.4
				c2.5,0.8,3.8-0.7,5.2-2.2c0.1-0.1,0.4-0.2,0.6-0.2c0.8,0.1,1.6,0.2,2.4,0.3c0.1,1.1,0.3,2.1,1.7,2.2c10.4,0.7,19.5-1.9,27.2-8.6
				c0.2-0.2,0.1-0.8,0.2-1.2c1-0.4,1.3-0.9,0.5-1.8l0.3,0.1l0-0.3c1.3,0.7,2.2,0.7,3.2-0.7c7.9-10.2,8.4-21.2,4.7-32.8
				c-0.5-1.4-1.1-3.3-3.6-2.8c-1.7-1.9-3.4-3.7-5.1-5.6c0-0.4-0.2-0.6-0.6-0.6c-0.9-0.8-1.6-2.2-3.3-1.4l0.1,0.1
				c0.8-2-1.2-2.4-2.3-3.1c-4.2-2.6-8.9-4.1-13.9-4.8c-8.3-1.1-15.9-0.2-22.3,5.4c-0.6,0.1-1.4,0.5-1.1,0.9c0.6,1,1.2,0.2,1.8-0.3
				c1.2-0.4,2.4-0.8,3.6-1.3c7.6-3.1,15.4-3.9,23.4-1.4c-2.1,1.4-0.3,3.6-1.2,5.3c-0.7,0-1.5,0.1-2.2,0.1c-0.2-2.2-2.8-1.7-3.6-2.7
				c-1.5-2-1.9-1.3-2.8,0.3c-0.5,0.9-0.9,1.8-0.7,2.8c-0.6,0.2-1.5,0.3-1.1,1.3c-1.9,0.3-2.9-0.3-2.9-2.2c0-2.1-1-3.2-3.2-2.2
				c-1.9,0.9-3.2,2.8-0.9,4.2c2,1.2,0,2.1,0.3,3l0-0.1c-0.7,0-1.2,0.2-1.4,0.8c-0.1,0.3-0.1,0.6-0.1,0.9c-1,0.6-2.3,0.7-2.9,1.8
				c-1.2,0.2-1.3,1-1,1.9c-0.4,0.2-0.9,0.5-1.3,0.7c-1.3-1.5-1.3-3.2-1.3-5c0-4.4-2.3-6.4-7.9-7.3l-0.1-0.1
				c-0.1-2.1-1.3-3.9-0.2-6.3c1.3-3.1-0.3-5.6-3.6-5.7c-3.9-0.1-5.1-2.5-6.9-4.7c-0.9-1.1-1.4-2-0.2-3.2c1.1-1,2.2-1.3,3.6-0.7
				c0.6,0.2,1,0.7,1.6,1.1c4.2,2.9,4.2,2.9,7.3-0.8c1.3-1.5,2.3-1.9,4.4-1c3.5,1.6,6.5,4,10.4,4.9c2.1,0.5,3.5,0.5,3.5-1.9
				c1.4-0.5,2.9-0.6,4.5-0.7c9.2-0.2,17.7-2.3,24.5-8.5c0.2,0.4,0.1,1.1,0.9,0.9c-0.1-0.3-0.2-0.6-0.3-1c0,0,0.4,0,0.4,0l-0.1-0.3
				c1.6,1.1,3,0.7,3.9-0.7c3.7-6,6.4-12.2,7.3-19.2c0.9-7-2-13.2-4.6-19.3c-1.1-2.5-3-6.8-8-5.5c-0.3-0.1-0.6-0.3-0.8-0.6
				c0.7-3.3-1.4-3.5-4-3l0,0.1c0.1-0.9,0.5-2-0.8-2.5c-1-0.4-1.4,0.4-1.7,1.2c-10.2-4.2-20.4-4.9-30.6,0c-1,0.5-2.1,0.6-3.1,0
				c-0.2-0.4-0.4-0.7-0.5-1.1c-0.2-0.9-0.8-1.3-1.8-1.2c-0.2,0-0.4,0.3-0.4,0.4c-0.2,0.9,0.3,1.5,1.2,1.7c0.4,0.1,0.8,0.3,1.2,0.5
				c-1.8,3.1-4.3,5.5-8.1,6.3c-0.2-1,0.4-2.8-1.4-2.6c-2,0.2-1,1.6-0.5,2.6l-0.4-0.2l0,0.4c-0.4-0.4-0.9-0.5-1.3-0.1
				c0.4,0.3,0.9,0.5,1.3,0.8c0.5,1.8,0.6,3.6-0.5,5.3C477.9,279,477,283.1,475.5,287.1z M499.7,329.8c-0.7-1.4-2.1-0.8-3.3-0.8
				c-1.1,0-1.6,0.9-1.2,1.6c0.8,1.1,2.3,0.8,3.5,0.6C499.3,331.1,499.9,330.6,499.7,329.8z M510.6,445.3c-1.1-0.3-1.6-0.5-2.2-0.5
				c-0.3,0-1,0.2-1,0.4c0,0.7,0.6,0.8,1.1,0.7C509,445.8,509.6,445.6,510.6,445.3z M524.4,467.8l0.2-0.4l-0.4,0L524.4,467.8z
				 M481.2,454l-0.4-0.2l0,0.4L481.2,454z M486.1,263.3l0.3-0.4l-0.4,0L486.1,263.3z"/>
			<path class="st4" d="M42.9,516.2c-2.1-2.5-3.8-5.2-4.5-8.5c-0.1-1.8,1.3-3.8-1.2-5.1c-0.1-0.6-0.2-1.3-0.3-1.9
				c0.3-1.5,1.2-3.1-0.7-4.2c-2-14.2-3.1-28.5-4.2-42.8C27.6,398.8,29,343.9,29.8,289c0.3-20.9,2.3-41.7,3.8-62.6
				c0.3-4.4,1.8-8.8,2.3-13.3c0.2-2.2,3.6-2.5,2.9-5l-0.1,0.1c1.2,0.2,1.3-0.5,1.4-1.3l-0.1,0.1c2.8-2.2,5.4-4.6,8.4-6.5
				c6.2-4.1,13.2-6,20.8-5.9c3.1,0,6.2,0,9.2,0c2.4,0,4.8,0.1,7.1-0.1c2.5-0.2,5.2,1.1,7.3-1c13.8-1.7,27.6-1.7,41.5-2.2
				c22.2-0.9,44.4-2,66.6-1.9c2.8,0.2,5.6,1.1,8.3-0.5c3.1,0,6.2-0.1,9.2-0.1c0.5,0.9,0.9,0.9,1.3,0c1.3,0,2.6,0,3.9,0
				c0.1,2-0.1,4.3-3,3.1c-4.1-1.6-8.2-0.9-12.3-0.9c-3.5,0-6.8,1.8-9.1,3.9c-5.3,5-12,7.4-18.5,10.4c-8.5,4-18.3,1.9-27.1,5.1
				c-3,1.1-6.6,0.4-9.5,3.1c-1.5,1.3-4.3,2.6-7.1,1.2c-1.4-0.7-3-0.5-4.4,0.2c-4.4,2.2-9.3,2-14.1,2c-1.7,0-3.4-0.3-5,0.9
				c-5.5,4.3-13,5.3-18.5,9.6c-0.6,0.5-1.6,0.5-2.5,0.5c-4.4,0.2-8.7,1.1-13.2,0.8c-10.5-0.9-10.5-0.6-10.4,9.1l0,0
				c-2.6-0.3-5,0.4-3.9,3.1c1.9,4.6,0,8.2-2.3,11.9c-0.9,1.5-0.6,3.2-0.5,4.8c0.5,4.3-1.8,8.8,0.8,13c-2.9,12.3-2.2,24.7-2.2,37.1
				c0,1.6,0.4,3.4-0.2,4.9c-2.2,5.7-1.9,11.7-2.2,17.4c-0.8,18.6-0.2,37.2-1.5,55.8c-1.3,18.6,1.1,37.2,1.2,55.8
				c0,4.9-0.2,9.9,0.1,14.8c0.3,5,0.6,10.1,1.8,15c1,4.1,1.4,8.4,0.4,12.1c-0.9,3.4,0.6,7.5-1.9,10c-2.5,2.5-2.3,5.2-1.5,7.3
				c1.4,3.6-0.2,6.1-1.3,9.1c-0.9,2.4-1.7,3.2-4.1,2c-2.1-1-2.9-0.1-2.8,1.7c0.1,2.8-0.5,4.9-4.1,5.1c-0.8-0.2-1.1-0.8-1.3-1.4
				C43.8,516.7,43.5,516.3,42.9,516.2z"/>
			<path class="st3" d="M45.1,518.7c3.5-0.2,4.2-2.3,4.1-5.1c-0.1-1.8,0.6-2.8,2.8-1.7c2.4,1.1,3.2,0.3,4.1-2c1.1-3,2.7-5.6,1.3-9.1
				c-0.8-2-1-4.8,1.5-7.3c2.4-2.5,1-6.6,1.9-10c1-3.7,0.6-8-0.4-12.1c-1.2-4.9-1.5-10-1.8-15c-0.3-4.9,0-9.8-0.1-14.8
				c-0.1-18.6-2.5-37.2-1.2-55.8c1.3-18.6,0.7-37.2,1.5-55.8c0.3-5.7,0-11.7,2.2-17.4c0.6-1.5,0.2-3.3,0.2-4.9
				c0.1-12.4-0.7-24.9,2.2-37.1c-2.7-4.2-0.3-8.7-0.8-13c-0.2-1.6-0.5-3.3,0.5-4.8c2.3-3.7,4.2-7.3,2.3-11.9
				c-1.1-2.8,1.3-3.4,3.9-3.1c0.5,2-1.2,4.5,1.4,6.1c0,5.4-0.1,10.9-0.1,16.3c0,2.4,0,4.5-2.8,6.2c-2.4,1.5,0,2,1.5,2.2l0,0
				c-0.1,1.2,0.4,2.5-0.8,3.4c-0.5,0.4-1.9,0.7-0.6,1.5c2.3,1.3,1.1,3.3,1.3,5c0.6,4.7-1.5,9.1-1.4,13.9
				c0.9,40.1-1.4,80.2,1.4,120.3c0.6,8.3-0.1,16.6,1.1,25c1.3,9.4,0.1,19.1,1.5,28.6c0.7,5,0.1,10.1,1.3,15.1c0.7,3,2,4.8,5.3,5.2
				c1.7,0.2,1.8,3.4,4.7,1.7c2-1.2,4.5-0.3,6.9,0.5c2.7,0.9,5.6,2.3,8.7,0.4c1.1-0.7,3,0,4.5-0.2c8.6-0.8,17,1.2,25.5,1.2
				c21.6,0,43.1,0,64.7,0c3.7,0,7.3-0.3,11,1c2.1,0.7,4.7,0.4,7.1-0.1c8.2-1.8,16.5-0.7,24.8-0.6c0.3,0,0.5,0.6,0.8,0.9
				c-1.6,1.9-4.1,2.3-6.3,2.4c-4.2,0.2-7.6,1.9-10.6,4.3c-1.8,1.4-3.5,2.3-5.9,2c-0.7-0.1-1.3,0-2,0c-2.4,0.2-5.5,0.6-5.4,3.1
				c0.1,3.1,3.4,1.4,5.3,1.8c1.8,0.4,3.4-0.8,5-1c3.1-0.3,6.7-1.2,8.3,2.9c0.7,1.7,2.5,2.5,4.4,1.5c3.5-1.9,5.9,0.1,8.1,2
				c1.8,1.5,3.5,2.2,5.9,2.1c5.2-0.1,9.8,1.4,13.6,4.8c0.9,0.9,2.4,2,3.1,0.2c0.6-1.6,0.9-3.5,2.8-3.7c2.4-0.3,4.9-0.3,7.2,0.2
				c2.7,0.6,5.2,1.9,7.8,3c2.4,0.9,4.1,1.7,2.6,4.9c-1.1,2.5,1.5,5.4,4.7,5.2c5.5-0.5,10,2.7,15.3,2.7c2.8,0,2.5,2.3,1.9,3.6
				c-1.1,2.4-2.5,4.9-4.3,6.7c-1.5,1.6-4.2,0.6-6.3,0.6c-22.9,0.1-45.8,0.1-68.7,0.2c-9.7-0.2-19.3-0.4-29-0.7
				c-2.1-1.5-4.4-0.5-6.6-0.6l0,0c-0.4-0.8-1-1.3-2-1.3c-5.6-0.1-11.2,0.5-16.7-1.2c-1.1-0.3-2.1,0.2-2.5,1.4
				c-12.1-0.1-24.1-1.2-36.1-2.1c-13.5-1-27.1-1.7-40.6-3.4c-9.4-1.2-19-0.4-28.2-3.4C55.2,527.5,49.2,524.4,45.1,518.7z"/>
			<path class="st3" d="M69,237.8c-0.1-9.7-0.1-10,10.4-9.1c4.6,0.4,8.8-0.6,13.2-0.8c0.8,0,1.9-0.1,2.5-0.5
				c5.5-4.3,13-5.3,18.5-9.6c1.6-1.2,3.3-0.9,5-0.9c4.8,0,9.6,0.2,14.1-2c1.4-0.7,3-0.9,4.4-0.2c2.8,1.4,5.7,0.1,7.1-1.2
				c2.9-2.6,6.4-1.9,9.5-3.1c8.8-3.2,18.6-1.1,27.1-5.1c6.4-3,13.2-5.4,18.5-10.4c2.3-2.1,5.6-3.9,9.1-3.9c4.1,0,8.2-0.8,12.3,0.9
				c2.9,1.2,3.1-1.1,3-3.1c0.9,0,1.9,0,2.8,0c1.1,1.6,2.8,0.9,4.2,0.9c41.2,0,82.4,0,123.6,0c1.4,0,3.1,0.7,4.2-0.9
				c5.8-0.4,11.6-0.3,17.3,0.1c0.6,1,1.7,0.8,2.6,0.9c1.1,2,3.1,1.2,4.7,1.2c9,0.1,17.9,0,26.9,0.1c2,0,3.8-0.1,5.9,1.5
				c2.3,1.8,6.1,2.1,8.7-0.4c1.3-1.3,2.8-0.8,4.2-1.2c5.2,0.1,10.4,0.2,15.6,0.4c-0.4,0.8-1.2,1-2.1,1c-0.8,0-2.1-0.4-2.2,0.6
				c0,0.9,1.3,0.5,2,0.5c5.4,0.7,10.7-0.9,16-1.4c6,0.2,12,0.3,18,0.5c-4.6,0.3-8.3,3.5-13.1,3.4c-1.5,0-2.3,0.4-2.7,1.9
				c-0.9,3.3-3.5,3.9-6.9,4.3c-6.4,0.9-12.7,2.3-18.9,4c-2.9,0.8-5.3,0.8-8.2-0.2c-5.5-2.1-10.7-1.7-16.3,0.8
				c-4.5,2-9.9,2.8-14.7,4.2c-8.3,2.4-16.9,1.4-25.1,3.3c-2.2,0.5-4.1,1.3-5.8,2.6c-2.4,1.7-4.8,1.5-7.3,0.3
				c-6.9-3.3-13.4-2.7-19.4,2.6c-4,3.6-8.4,4.1-13.5,3.3c-2.4-0.4-5.1-0.7-7.2,0c-5,1.6-10,0.8-15,1.1c-3.7,0.2-7.3-0.3-11,1
				c-2.3,0.8-5.2,0.7-7.7-0.4c-2.7-1.2-5.9-1.2-8.4-0.4c-5.4,1.6-10.9,1-16.3,1c-11,0.1-22,0.1-33,0c-2.9,0-5.4,0.2-7.8,2.4
				c-2.7,2.4-5.1,1.9-7.3-0.9c-1.9-2.4-4.5-2-6.2-0.8c-3.1,2.2-5.8,1.4-9.1,1c-7.8-0.9-15.8-1-23.6,0.1c-4,0.6-7.7,1.2-11.5-0.1
				c-2-0.7-4-0.8-5.8-0.3c-9.1,2.4-18.8-0.3-27.7,3.3c-5.8-2.6-11.5,1.2-17.3,0.3c-2.1-0.3-4.6,0.9-6.3,0.7
				c-7.1-0.9-14.2,0.9-21.2,0c-5.7-0.7-8.2,0.2-9.9,5.2C71.1,237.6,70.1,237.7,69,237.8z"/>
			<path d="M85.2,606.2c-0.7,3.2-1.3,6.5-2,9.7c-0.9,0-1.9,0-2.2,0.9c-0.3,0.9,0.4,1.5,1.4,1.5c-0.2,1.2-0.4,2.4-0.6,3.7
				c-0.9,0-1.9,0.1-2.1,1c-0.3,0.9,0.4,1.4,1.4,1.5c-0.2,1.2-0.4,2.4-0.6,3.6c-0.8,0-1.8,0.1-2.1,1c-0.3,0.9,0.2,1.4,1.2,1.5
				c-0.6,3.3-1.2,6.5-1.8,9.8c-3.5,1.3-3.1,4.7-4.2,7.3c-0.2,0.4,0.9,1.3,1.9,1.4c-0.1,0.8-0.3,1.6-0.4,2.4c-0.9,0-1.8,0.2-2,1
				c-0.3,0.9,0.3,1.4,1.3,1.5c-0.1,0.8-0.3,1.6-0.4,2.5c-3,1.3-3.1,2-1.1,4.9c-0.8,4.6-1.6,9.1-2.4,13.7c-0.3,1.6-0.6,3.2-0.9,4.8
				c-1.2,4.5-2.4,9.1-3.6,13.6c-0.9,0.1-1.8,0.1-2.1,1c-0.2,0.9,0.4,1.4,1.4,1.5c-1,4.9-2.1,9.9-3.1,14.8c-1.2,0-2.5,0-3.7,0
				c0.5-7.6,2.5-14.9,4-22.4c4.7-23.7,9.4-47.3,14-71c3-15.3,5.8-30.6,8.7-46c2.4,0.1,4.8,0.1,7.2,0.2c0.4,6-2.2,11.5-3.2,17.3
				c-0.5,2.8-1.3,5.6-1.9,8.4C84.3,599.4,83.5,602.8,85.2,606.2z"/>
			<path class="st3" d="M85.1,571.6c-2.9,15.3-5.7,30.7-8.7,46c-4.6,23.7-9.4,47.3-14,71c-1.5,7.4-3.4,14.8-4,22.4
				c-0.7,0.8-1.5,1.6-2.7,1.1c-1.4-0.5-0.8-1.7-0.7-2.6c1.6-9.1,3.2-18.2,4.9-27.2c3.8-20.5,7.7-41.1,11.5-61.6
				c3.1-16.3,6.2-32.6,9.2-48.9c1.3,0,2.5,0,3.8,0C84.7,571.8,85,571.8,85.1,571.6z"/>
			<path class="st3" d="M513.2,708.5c-0.2-3.4-0.9-6.7-2.1-9.9c-4.6-24.8-9.2-49.5-13.7-74.3c-3.3-17.9-6.4-35.9-9.6-53.8
				c1.1-0.1,2.1-0.1,3.2-0.2c0.7,0.2,1.5,0.3,2.2,0.5c-0.1,0.2,0,0.4,0.1,0.6c0,8,2.1,15.8,3.4,23.7c2.7,17.2,5.8,34.4,8.8,51.5
				c3,17.2,6,34.3,9,51.5c0.7,3.8,1.3,7.7,1.9,11.5C515,709.9,513.7,710.2,513.2,708.5z"/>
			<path class="st3" d="M551.4,416.3c-1.5-0.8-1.1-2.1-1.1-3.3c0-40.2,0-80.4,0-120.7c0-1-0.2-2.1,0.9-2.7
				c0.8,32.9,0.3,65.8,0.4,98.7c0,6.1,0.1,12.2,0.2,18.4C551.6,409.9,551.5,413.1,551.4,416.3z"/>
			<path d="M493.2,570.8c-0.7-0.2-1.5-0.3-2.2-0.5c-1-6.5-2-13-3-19.5c0.3-3.2,2.9-2.1,4.9-2.5c3-0.6,3-0.6,3.1,1.5
				c0.2,5.1,0.4,10.3,1.3,15.3C497.8,568.2,496.5,570.2,493.2,570.8z"/>
			<path class="st4" d="M358.4,188.8c-1.1,1.5-2.8,0.9-4.2,0.9c-41.2,0-82.4,0-123.6,0c-1.4,0-3.1,0.7-4.2-0.9
				c34.8-0.6,69.5-0.6,104.3-0.3C340,188.5,349.2,188.6,358.4,188.8z"/>
			<path d="M86.4,550.7c9.5-0.3,9.7-0.2,7.2,8c-0.8,2.5-0.7,5.1-1.8,7.6c-1.4,3.1-3.4,4.5-6.9,4.1C84.1,563.8,86.4,557.3,86.4,550.7
				z"/>
			<path class="st2" d="M86.4,550.7c0,6.6-2.3,13.1-1.5,19.7c-0.1,0.4-0.3,0.8-0.4,1.3c-1.3,0-2.5,0-3.8,0c-1.8-1.2-1-3-0.8-4.4
				c0.7-4.8,1-9.6,1.2-14.4C81.2,549.2,81.6,549.1,86.4,550.7z"/>
			<path class="st2" d="M428.8,190.8c-1.4,0.4-2.9-0.1-4.2,1.2c-2.6,2.5-6.5,2.2-8.7,0.4c-2.1-1.6-3.9-1.5-5.9-1.5
				c-9-0.1-17.9,0-26.9-0.1c-1.6,0-3.6,0.8-4.7-1.2c5.4,0,10.7-0.1,16.1-0.1c10.2,0.1,20.4,0.3,30.6,0.4
				C426.4,190,427.8,189.9,428.8,190.8z"/>
			<path class="st2" d="M458.1,192c-5.3,0.5-10.6,2.1-16,1.4c-0.7-0.1-2,0.4-2-0.5c0-1,1.4-0.6,2.2-0.6c0.9-0.1,1.7-0.2,2.1-1
				C449,191.2,453.6,190.4,458.1,192z"/>
			<path class="st2" d="M166.8,538.5c0.4-1.2,1.4-1.7,2.5-1.4c5.5,1.7,11.1,1.1,16.7,1.2c1,0,1.6,0.4,2,1.3
				C180.9,539.4,173.7,540.2,166.8,538.5z"/>
			<path class="st3" d="M500,193.6c0,2.6-2.1,2.6-3.6,2c-3-1.2-6-0.9-9-1.1c-0.8,0-2.2,0.8-2.1-0.8c0-0.2,1.9-0.3,3-0.5
				C492.2,193.4,496.1,193.5,500,193.6z"/>
			<path class="st1" d="M394.5,189.6c-5.4,0-10.7,0.1-16.1,0.1c-1,0-2,0.1-2.6-0.9C382,188.6,388.3,188.2,394.5,189.6z"/>
			<path class="st3" d="M550.3,278.4c-1.2-0.5-1.4-1.4-1.3-2.5c0.5-4.5-1.1-9,0.9-13.4C550,267.8,550.1,273.1,550.3,278.4z"/>
			<path class="st3" d="M549.9,442.1c-1.9-4.9-0.8-9.9-0.6-14.9c0-0.3,1-0.6,1.5-0.9c0,2-0.1,3.9-0.1,5.9
				C549.6,435.5,550.5,438.8,549.9,442.1z"/>
			<path class="st3" d="M92.8,193.5c-2.1,2.1-4.9,0.8-7.3,1c-2.4,0.2-4.8,0.1-7.1,0.1c0-0.3,0-0.6,0-0.8
				C83.1,193.4,87.9,193.2,92.8,193.5z"/>
			<path class="st3" d="M547.6,235.3c-2.3-3.6-1.7-7.2-0.4-10.9C547.3,228,547.5,231.6,547.6,235.3z"/>
			<path class="st3" d="M548.9,252.5c-2.1-3.7-1.9-7.3-0.1-11c0.1,1.2,0.2,2.3,0.4,3.5C549,247.5,549,250,548.9,252.5z"/>
			<path class="st1" d="M369.5,173.9c0.6-0.6,1.3-1.2,1.9-1.9c1-0.7,2-1.4,3-2.1c0.1,2.2-1.8,3.2-3.1,4.5
				C370.7,175.1,369.8,175.2,369.5,173.9z"/>
			<path class="st1" d="M340.2,541.6c3.5-1.6,7.1-0.5,10.7-0.6C347.4,542.4,343.7,541.7,340.2,541.6z"/>
			<path d="M549.1,245c-0.1-1.2-0.2-2.3-0.4-3.5c0-2,0-4.1,0-6.1C551,238.5,550.6,241.7,549.1,245z"/>
			<path class="st1" d="M382.4,162.5c0-2.1,2.1-2.9,3-4.4c0.7-0.2,1.4-0.3,2.2-0.5l0.1,0.1C386.1,159.5,384.6,161.3,382.4,162.5z"/>
			<path class="st1" d="M78.3,193.8c0,0.3,0,0.6,0,0.8c-3.1,0-6.2,0-9.2,0C72,192.8,75.2,193.7,78.3,193.8z"/>
			<path class="st2" d="M209.1,188.9c-2.7,1.6-5.5,0.7-8.3,0.5C203.5,188,206.3,188.6,209.1,188.9z"/>
			<path class="st1" d="M377.1,540.4c2.1-1.2,4.3-1.2,6.4,0C381.4,540.3,379.3,540.3,377.1,540.4z"/>
			<path class="st1" d="M187.9,539.7c2.2,0.1,4.5-0.8,6.6,0.6C192.3,540.5,190,541.1,187.9,539.7z"/>
			<path class="st1" d="M494.8,531.9c1.9-1.8,4.3-0.5,6.4-1C499.3,532.6,497,531.8,494.8,531.9z"/>
			<path class="st3" d="M37.2,502.6c2.5,1.2,1.1,3.3,1.2,5.1C36.8,506.3,37.2,504.4,37.2,502.6z"/>
			<path class="st1" d="M377.1,167.5c0.5-1.1,1.3-2,2.6-2.4C379.6,166.6,378.9,167.5,377.1,167.5z"/>
			<path class="st1" d="M374.4,169.9c0.6-1.1,1.4-1.9,2.6-2.4C377.1,169.2,376.3,170,374.4,169.9z"/>
			<path class="st1" d="M387.6,157.6c0.1-0.4,0.2-0.8,0.3-1.2c0.3-0.6,1-1.1,1.5-0.7c0.6,0.5-0.4,0.8-0.7,1.2
				C388.4,157.2,388,157.4,387.6,157.6L387.6,157.6z"/>
			<path class="st3" d="M36.1,496.5c1.9,1.2,1,2.8,0.7,4.2C35.6,499.4,35.9,497.9,36.1,496.5z"/>
			<path class="st3" d="M533.1,200.8c-1.2,0-2.6,0-2.6-1.7C531.4,199.6,532.6,199.7,533.1,200.8z"/>
			<path class="st3" d="M542.3,210.6c-1.4-0.4-1.2-1.5-1.2-2.5C542.1,208.7,542.5,209.5,542.3,210.6z"/>
			<path class="st1" d="M38.6,207c0.2-0.6,0.4-1.7,0.5-1.6c1.2,0.1,0.5,1.1,0.8,1.7l0.1-0.1C39.5,206.9,39,206.9,38.6,207L38.6,207z
				"/>
			<path class="st1" d="M379.7,165c0.1-0.7,0.5-1.1,1.3-1.2C381,164.6,380.5,165,379.7,165z"/>
			<path class="st1" d="M381.1,163.8c0.1-0.7,0.5-1.1,1.3-1.2C382.2,163.3,381.9,163.8,381.1,163.8z"/>
			<path class="st2" d="M219.7,188.7c-0.4,0.9-0.9,0.9-1.3,0C218.8,188.8,219.3,188.7,219.7,188.7z"/>
			<path class="st3" d="M504.2,194.2c-0.3,0.4-0.6,0.8-0.9,1.2c-0.3-0.4-0.6-0.8-0.9-1.3C503,194.2,503.6,194.2,504.2,194.2z"/>
			<path class="st3" d="M534.5,201.9c-0.8,0-1.3-0.4-1.4-1.2C533.8,200.9,534.4,201.2,534.5,201.9z"/>
			<path class="st3" d="M535.7,203.2c-0.8-0.2-1.2-0.6-1.2-1.3C535.2,202,535.8,202.3,535.7,203.2z"/>
			<path class="st3" d="M42.9,516.2c0.7,0.1,1,0.5,1,1.1C43.1,517.3,42.7,516.9,42.9,516.2z"/>
			<path class="st3" d="M541.1,208.1c-0.8,0-1.2-0.4-1.3-1.1C540.6,206.9,540.9,207.5,541.1,208.1z"/>
			<path class="st1" d="M38.7,208.2c-0.5-0.1-1.1-0.2-0.9-0.8c0-0.2,0.5-0.3,0.8-0.4l-0.1-0.1c0,0.5,0,0.9,0.1,1.4L38.7,208.2z"/>
			<path class="st4" d="M514.2,663.3c0.3-0.7,0.5-2,0.9-2.1c1.3-0.2,0.8,1,0.7,1.5c-0.3,1.7,1.1,3.6-1.1,4.9
				C514.5,666.2,514.4,664.8,514.2,663.3z"/>
			<path class="st2" d="M387.8,593.8c0,3.6,0.1,7.2,0.1,10.7c-0.3,0.3-0.6,0.5-0.8,0.8C386.4,601.5,384.9,597.5,387.8,593.8z"/>
			<path class="st0" d="M75.5,649.2c-1-0.1-2.1-0.9-1.9-1.4c1.1-2.6,0.7-6,4.2-7.3C77.3,643.5,77.6,646.6,75.5,649.2z"/>
			<path class="st0" d="M85.2,606.2c-1.7-3.4-0.9-6.8,2-8.8C87.5,600.6,86.5,603.4,85.2,606.2z"/>
			<path class="st0" d="M72.9,661.5c-2-2.9-1.8-3.6,1.1-4.9C74.1,658.3,74.9,660.2,72.9,661.5z"/>
			<path class="st0" d="M81.1,624.6c-1-0.1-1.7-0.6-1.4-1.5c0.3-0.9,1.3-0.9,2.1-1C82.1,623,82.4,624,81.1,624.6z"/>
			<path class="st0" d="M82.5,618.4c-1-0.1-1.7-0.6-1.4-1.5c0.3-0.9,1.3-0.9,2.2-0.9C83.5,616.9,83.7,617.8,82.5,618.4z"/>
			<path class="st0" d="M79.7,630.7c-1-0.1-1.5-0.7-1.2-1.5c0.3-0.8,1.2-0.9,2.1-1C80.7,629.2,81,630.2,79.7,630.7z"/>
			<path class="st0" d="M74.4,654.1c-1-0.1-1.6-0.6-1.3-1.5c0.3-0.8,1.2-1,2-1C75.4,652.6,75.8,653.6,74.4,654.1z"/>
			<path class="st2" d="M69.6,679.9c0.3-1.6,0.6-3.2,0.9-4.8C71.9,677,72.8,678.8,69.6,679.9z"/>
			<path class="st0" d="M65.4,696c-1-0.1-1.7-0.6-1.4-1.5c0.2-0.9,1.2-1,2.1-1C66.3,694.5,66.6,695.4,65.4,696z"/>
			<path d="M75.3,241.4c1.2-4.5,4.3-6,9.1-6.2c37.8-1.5,75.7-2.2,113.6-3c41.6-0.8,83.2-0.6,124.9-0.3c22.5,0.2,44.9,0.3,67.4,1.3
				c18.5,0.8,37,0.4,55.4,2c2.2,0.2,4.3,0.4,6.3,1.5c1.1,1.8,1.8,3.6,1.9,5.8c0.7,19.1,2,38.1,2.4,57.2
				c1.2,58.1,0.3,116.1-3.8,174.1c-0.4,6.3-2.3,8.2-9.3,8.7c-7.9,0.5-15.8,0.6-23.7,0.9c-51,2.2-102.1,2.6-153.2,2.8
				c-59.9,0.2-119.8-0.9-179.6-3c-2.5-0.1-4.8-0.5-7-1.5c-1.1-2-1.6-4.1-1.8-6.4c-0.6-8.6-1.6-17.2-2-25.8
				c-1-22.7-2.2-45.5-2.6-68.2c-0.5-25.4-0.1-50.9-0.1-76.3c0-3.7,0.4-7.4,0.5-11.1C74.2,276.2,74.8,258.8,75.3,241.4z"/>
			<path class="st4" d="M79.6,481.5c2.2,0.9,4.5,1.4,7,1.5c59.8,2.2,119.7,3.2,179.6,3c51.1-0.1,102.2-0.6,153.2-2.8
				c7.9-0.3,15.8-0.4,23.7-0.9c7-0.4,8.8-2.4,9.3-8.7c4.1-58,4.9-116,3.8-174.1c-0.4-19.1-1.6-38.1-2.4-57.2c-0.1-2.2-0.8-4-1.9-5.8
				c0.2,0,0.5-0.1,0.7,0c2.3,0.7,2.3-3.3,4.8-1.9c2.2,1.2,2.3,3.7,2.5,5.4c0.6,4.2,0,8.6,0.4,12.9c1.6,17.6,0.9,35.2,1.5,52.7
				c0.1,4.4,1.3,8.7-0.2,13.1c-0.2,0.8-0.1,1.6,0,2.5c1.6,9.8,2,19.8,1,29.5c-2.1,20.1,0.1,40.1-1.3,60.1c-0.8,11.4,0.1,23-1.5,34.2
				c-1.1,8.1,0,16.2-1.8,24.3c-0.7,2.9-0.6,6.6-0.5,10c0,5.8-1.2,6.7-7.8,7.1c-0.9,0-1.8,0-2.7,0c-6.1,0.2-12.1-0.6-18.2,1
				c-3.5,0.9-7.1-1.7-10.9-1c-3.5,0.5-7.3-1.2-10.6,1.1c-2.6,0-5.3,0-7.9,0.1c-3.1-1.9-6.2-1.9-9.3,0c-3,0.3-6-0.2-9,0.9
				c-2.1,0.8-4.9,0.8-7.1,0.2c-5.6-1.6-11.3-0.8-16.9-1c-2.2,0.4-4.8-1.1-6.6,1.1c-3.5,0-7,0-10.6,0c-2.7-1.8-3-1.7-4.1,1.2
				c-4.6,0.2-9.1-2.3-13.6-1.1c-6.3,1.8-12.6,0.8-18.9,1.1c-4.1,0.2-8.1-2-12.3-1.1c-1.1,0-2.2-0.2-2.7,1.1
				c-17.2,1.6-34.4,1.3-51.6,1.2c-0.3-0.3-0.5-0.9-0.8-0.9c-8.3-0.1-16.6-1.2-24.8,0.6c-2.4,0.5-5,0.8-7.1,0.1c-3.7-1.2-7.3-1-11-1
				c-21.6,0-43.1,0-64.7,0c-8.5,0-16.9-2-25.5-1.2c-1.5,0.1-3.5-0.5-4.5,0.2c-3.2,1.9-6,0.5-8.7-0.4c-2.4-0.8-4.9-1.6-6.9-0.5
				c-2.9,1.7-3-1.5-4.7-1.7C79.3,485,79.8,483.3,79.6,481.5z"/>
			<path class="st1" d="M79.6,481.5c0.2,1.9-0.3,3.6-1.5,5.1c-3.3-0.4-4.6-2.2-5.3-5.2c-1.3-5-0.6-10.2-1.3-15.1
				c-1.4-9.6-0.2-19.2-1.5-28.6c-1.2-8.4-0.5-16.7-1.1-25c-2.8-40.1-0.5-80.2-1.4-120.3c-0.1-4.8,1.9-9.2,1.4-13.9
				c-0.2-1.7,1-3.7-1.3-5c-1.4-0.8,0-1.1,0.6-1.5c1.2-0.9,0.7-2.3,0.8-3.4c0.4-0.2,1.4,0,0.6-0.9c-0.2,0.3-0.4,0.6-0.6,0.9
				c-1.5-0.2-3.9-0.7-1.5-2.2c2.8-1.7,2.8-3.7,2.8-6.2c0-5.4,0-10.9,0.1-16.3c0.8,0,2.2,0,2-0.7c-0.7-3.2,1.9-1.3,3-1.8
				c-0.6,17.4-1.1,34.8-1.7,52.2c-0.1,3.7-0.5,7.4-0.5,11.1c0,25.4-0.3,50.9,0.1,76.3c0.4,22.8,1.6,45.5,2.6,68.2
				c0.4,8.6,1.4,17.2,2,25.8C77.9,477.3,78.5,479.4,79.6,481.5z"/>
			<path d="M475.5,287.1c1.4-4,2.3-8.2,4.7-11.9c1.1-1.7,0.9-3.5,0.5-5.3c0-0.2,0-0.5,0-0.7l0-0.4l0.4,0.2c0.6,0,1.2,0.1,1.8,0.1
				c3.9-0.8,6.3-3.2,8.1-6.3l0-0.3l0.3,0c1,0.5,2.1,0.5,3.1,0c10.2-4.8,20.4-4.2,30.6,0c0.6,0.9,1.5,1.1,2.5,1.3l0-0.1
				c1,1.5,2.6,2.2,4,3c0.2,0.3,0.5,0.5,0.8,0.6c0.9,1.7,3.2,2.6,3.5,4.7c-2.5,0.5-3.6-1.4-4.8-2.7c-2.9-3.2-6.8-5.3-10.9-6.3
				c-4.6-1-9.2-3.9-14.2-0.9c-3.4-0.2-6.6,0.1-9.2,2.3c-3.5,0.8-6.1,3-8.8,5.1c-6.1,4.9-9,11.1-9,18.5c-0.4,3.3,0,6.4,0.8,9.6
				c1.6,6.8,6.3,11.4,11.2,16c-0.3,0.3-0.6,0.6-1,1c-0.8-0.3-1.6-0.7-2.5-1c-5.8-5.7-10.7-11.9-11.6-20c-0.1-0.9-1-1.2-1.8-1.5
				C473.7,290.3,476.1,289.1,475.5,287.1z"/>
			<path d="M533,312.5c-6.8,6.2-15.3,8.2-24.5,8.5c-1.6,0-3,0.2-4.5,0.7c-2.8-2.4-6.9-2.4-9.9-4.4c0.3-0.3,0.6-0.6,0.9-1
				c6.3,1.8,12.6,3.4,19.3,2.3c6.7-0.8,11.9-4.2,16.9-8c1.4-1.1,2.4-3,4.7-2.7c-0.7,1.4-1.4,2.8-2,4.1l0.1,0.3l-0.4,0L533,312.5z"/>
			<path class="st1" d="M474.1,292.3c0.8,0.3,1.7,0.6,1.8,1.5c1,8.1,5.8,14.3,11.6,20c-1.9,0.2-3.9,0.7-5.8-0.2
				c-0.9-0.5-2.5-1-2.6-1.7c-1.1-5.6-4.6-10.4-5.6-16C473.4,294.7,473.9,293.5,474.1,292.3z"/>
			<path d="M480.2,378.1c-2.6-2.1-2.9-5.3-3.9-8c-0.4-1.2-0.8-2.2-2-2.9c0.1-0.4,0.1-0.7,0.2-1.1c1.2-1,1.2-1.9,0-2.9
				c-0.1-0.9-0.2-1.7-0.3-2.6c2.2-0.3,1.8-2.1,2.3-3.4c0.7,0,1.4,0.1,2.1,0.1c-1.2,3.6-0.7,7.1-0.3,10.8
				C478.7,371.6,481.2,374.6,480.2,378.1L480.2,378.1z"/>
			<path class="st1" d="M435.8,496.4c-1.8-0.1-4.7-2.5-4.3-3.9c0.6-1.9,1.4-3.9,4.4-3.5c1.5,0.2,3.2-0.1,3.1,2.1
				C439,493.5,437.2,496.4,435.8,496.4z"/>
			<path class="st1" d="M476.8,351.8c-0.3-1.5-1.3-3.1,0.6-4.3c1.5-0.9,2.9-2.6,2.5-3.9c-1.4-4.4,1.9-3.4,4.3-3.6l0.1,0.1
				c-0.4,1.4-0.8,2.7-1.2,4.1c0.4,1.7-3,2.5-1.4,4.5l0,0c-1.4-0.5-1.5,0.2-1.3,1.2l0,0.2C478.6,349.7,478.2,351.7,476.8,351.8z"/>
			<path class="st3" d="M407.4,487.7c3.3-2.3,7.1-0.6,10.6-1.1c-0.1,0.6-0.1,1.6-0.4,1.7C414.2,489.1,410.7,490.3,407.4,487.7z"/>
			<path class="st0" d="M476.8,351.8c1.5-0.1,1.8-2.1,3.5-1.7c1.1,2.7-1.7,4.9-1.3,7.5l-0.5-0.2c-0.7,0-1.4-0.1-2.1-0.1
				c0.1-1.6,0.1-3.2,0.2-4.8C476.7,352.3,476.8,352,476.8,351.8z"/>
			<path class="st3" d="M390.3,487.8c3.1-1.9,6.2-1.9,9.3,0C396,489.6,393.8,489.6,390.3,487.8z"/>
			<path class="st1" d="M476.6,352.5c-0.1,1.6-0.1,3.2-0.2,4.8c-0.4,1.3-0.1,3.1-2.3,3.4c-1.5-3.1,0.1-6.3-0.2-9.4
				c-0.1-1.8,0.8,0.8,1.5,0.8C475.8,351.9,476.2,352.3,476.6,352.5z"/>
			<path class="st3" d="M350.6,489c1.9-2.2,4.4-0.7,6.6-1.1C355.7,490.8,354.3,491.1,350.6,489z"/>
			<path class="st1" d="M439.3,498.6c0-0.8,0-1.6,1.1-1.8c0.8-0.2,1.2,0.4,1.3,1c0.2,1,0.3,2.1-1.3,2.1
				C439.7,499.8,439.3,499.3,439.3,498.6z"/>
			<path class="st1" d="M447.1,486.6c0.9,0,1.8,0,2.7,0c0,0.4,0,0.8,0,1.2c-0.1,0.9,0.2,2.2-1.3,2.2c-1.5,0-1.2-1.3-1.3-2.2
				C447.1,487.4,447.1,487,447.1,486.6z"/>
			<path class="st3" d="M336,490.2c1-2.9,1.4-3,4.1-1.2C339.2,491,337.4,490.1,336,490.2z"/>
			<path class="st1" d="M477.4,341.3c-0.3,1.3-1.1,2.2-2.6,2.2c-0.5,0-0.7-0.5-0.4-0.9c0.6-0.9,0.6-2.6,2.4-2.3
				C477,340.3,477.1,340.9,477.4,341.3z"/>
			<path d="M494.1,317.3c-1.5-0.6-3-1.2-4.1-2.4c0.3-0.3,0.6-0.6,1-1c1.7,0.2,3,1.1,4,2.4C494.7,316.6,494.4,316.9,494.1,317.3z"/>
			<path class="st3" d="M288.5,490.2c0.4-1.3,1.6-1.2,2.7-1.1c0,0.8,0,1.7-0.8,2.1C289.4,491.6,288.7,491.1,288.5,490.2z"/>
			<path class="st1" d="M474.5,363.2c1.2,0.9,1.2,1.9,0,2.9c-1-0.2-2.1-0.4-1.9-1.7C472.7,363.5,473.6,363.3,474.5,363.2z"/>
			<path class="st0" d="M494.7,351.6c-0.3-0.9-0.1-1.7,1-1.9c0.4,0.7,0.8,1.5,1.9,1.2c1.7-0.5,1.1-1.8,1.1-3
				c-0.1-0.3-0.1-0.6,0.1-0.9c0.8,0.1,1.5,0.2,1.4-0.8l0,0.1c2.1,0.4,4-0.3,6.1-0.5c4,3.3,4,3.3-1.1,5.5c-0.4,0.2-0.8,0.3-1.1,0.6
				c-0.3,0.3-0.5,0.7-0.7,1c0.3,0.2,0.7,0.5,1,0.5c1.1,0,2.2-0.1,3.2-0.3c5.8-1.1,10.5,0.6,14,5c0.6,0.8,1.1,2.4,1.8,2.4
				c4.1,0.4,3.2,3.1,3.2,5.4c0,1.6,0,3.3,0,4.9c-1.8,0.8-1.3,2.3-1.4,3.7l0.1-0.1c-1.6,0.3-1.4,1.4-1.3,2.5c-1.9-0.4-3.1,1-4.6,1.5
				c-0.8,0.3-1.2,0.6-2.1-0.1c-2.1-1.6-0.8,1.1-1.6,1.2c-1.6-0.1-3.2-0.1-4.8-0.2c-1.1-2.1-3.2-1-4.9-1.2l-0.1,0.1
				c-1.7-2.3-4.1-3.6-7.1-3.9c-0.1-2.2,0.6-4.8-2.9-5.4c-1.9-1.5-0.8-3.3-0.6-5.1c1.4,0.2,2.7,0.5,4.1,0.6c2.4,0.1,4.8,0,7.2,0
				c0.1,0.4,0.2,0.8,0.1,1.2c-0.1,1.8,0.7,2.6,2.6,2.5c0.6,0,1.8-0.2,1.8-0.3c0.1-1.5-1.8-1.2-2.4-2.2c-0.5-0.8-1.1-1.6-1.7-2.4
				c-0.2-2-1.9-3.1-3.2-4.4c-5.9-6.2-5.9-6.2-10.6,0.7c-1.7-0.9-0.7-2.5-1.1-3.7C494.5,355.3,494.9,353.6,494.7,351.6z M522.7,370.4
				c0-0.8-0.2-1.6-0.8-2.2c-1.1-1.1-7.3-2.1-8-1c-1.7,2.6,1.6,3.2,2.6,4.7c0.2,0.3,0.6,0.6,0.9,0.8c1,0.8,1.9,1.9,3.4,1.2
				C522.4,373.3,522.6,371.8,522.7,370.4z M523.9,365.6c0,0,0.1,0,0.1,0c0,0.6,0,1.2,0,1.8c0,0.5-0.2,1.1,0.6,1.2
				c0.1,0,0.3-0.7,0.3-1.1c0-1.2,0-2.4,0-3.7c0-0.4-0.3-0.8-0.4-1.1c-0.2,0.3-0.5,0.7-0.5,1.1C523.9,364.4,523.9,365,523.9,365.6z
				 M513,364c-0.1-0.1-0.2-0.2-0.3-0.4c-0.1,0.1-0.4,0.2-0.4,0.4c0,0.1,0.2,0.3,0.3,0.4C512.7,364.3,512.8,364.1,513,364z"/>
			<path class="st0" d="M532.5,342.4c0.4,0.1,0.6,0.3,0.6,0.6c-0.5,2.2,1,3.7,2,5.5c5,8.3,6.6,16.9,1.8,25.9
				c-0.9,0.2-1.1,0.8-1.3,1.5c0.2,0.4,0.1,0.7-0.1,1c-0.8,0-1.1,0.6-1.2,1.2l0.1-0.1c-1.1,0.2-1.6,0.6-0.2,1.2
				c-0.5,2.4-2.8,3.3-4.3,5c-1.1,1.3-3.4,1.9-3.2,4.1l-0.1-0.3c-4.9,0.6-8.9,3.1-13.3,5c-0.1,0-0.1,0.4-0.1,0.6
				c-0.3,0.6-0.8,0.6-1.4,0.3c-0.5-2-3.7,0-3.9-2.4c-0.3-0.2-0.4-0.4-0.2-0.7c3.5,0,4.8-1.6,4-4.8c1.1-1,2.4-1.5,3.9-1.8
				c1.3-0.3,3.1-0.6,2.8-2.6l-0.1,0.1c1.7,0.4,3.1,0.3,2.8-1.9c0.1-0.4,0.3-0.6,0.7-0.5c2.7,0.5,3.5-0.8,3.3-3c0-0.7,0-1.3,0-2
				l-0.1,0.1c0.4,0,0.8,0,1.2,0c3.5-1.3,4.1-2.3,3.1-5.9c-0.1-1.4-0.4-2.9-0.2-4.2c1-6.5-3.4-11.5-5.1-17.3c-0.9-3-5-2-6.7-4.1
				c-0.2-0.3-0.2-0.8-0.3-1.1c0.9-1.7-0.9-3.8,1.2-5.3c4.2,0.4,6.8,4.1,10.9,4.6l-0.1-0.1C529.7,342.8,531.1,342.5,532.5,342.4z"/>
			<path d="M517.2,341.8c0.1,0.4,0,0.9,0.3,1.1c1.7,2.1,5.8,1.1,6.7,4.1c1.6,5.8,6.1,10.8,5.1,17.3c-0.2,1.4,0.1,2.8,0.2,4.2
				c-0.7,1-1.3,2-2,2.9c-0.3-0.2-0.6-0.5-0.9-0.7c0-1.6,0-3.3,0-4.9c0-2.3,0.9-5-3.2-5.4c-0.7-0.1-1.1-1.6-1.8-2.4
				c-3.6-4.4-8.2-6.1-14-5c-1.1,0.2-2.2,0.3-3.2,0.3c-0.3,0-0.7-0.3-1-0.5c0.2-0.3,0.4-0.7,0.7-1c0.3-0.3,0.7-0.5,1.1-0.6
				c5.2-2.1,5.2-2.1,1.1-5.5c0-0.8,3.2-0.8,0.7-2.2c-0.4-1,0.4-1,1.1-1.3c2.4,0.4,4.8,0.6,7-0.4
				C515.7,341.9,516.5,341.8,517.2,341.8z"/>
			<path class="st3" d="M479,357.6c-0.4-2.6,2.4-4.8,1.3-7.5l0-0.2c1.2,0.3,1.4-0.4,1.3-1.2l0,0c1.7-1.2,3.8-2.2,1.4-4.5
				c0.4-1.4,0.8-2.7,1.2-4.1c5.6,0.9,7.8,2.9,7.9,7.3c0,1.8,0,3.5,1.3,5c-0.5,0.8-0.9,1.7-1.4,2.5c-2,0-3.9,0.1-4.5,2.5
				c-0.3,1.4-0.9,2.7-1.3,4c-1.5-0.1-2.9-0.5-4.4-0.4C479,361.1,478.9,359.5,479,357.6z"/>
			<path d="M537,374.5c4.8-9,3.2-17.6-1.8-25.9c-1.1-1.8-2.6-3.3-2-5.5c1.7,1.9,3.4,3.7,5.1,5.6c3.6,8.5,5.6,17.2,1.4,26
				c-1.7,3.5-3.8,6.8-5.7,10.2l0,0.3l-0.3-0.1l-0.6,0c-2.3,0.8-3.3,3.6-6.2,3.4c-0.2-2.2,2.1-2.8,3.2-4.1c1.4-1.7,3.8-2.6,4.3-5
				c0.2-0.4,0.3-0.8,0.2-1.2l-0.1,0.1c0.8,0,1.1-0.6,1.2-1.2c0.3-0.3,0.3-0.7,0.1-1C536.1,375.5,536.6,375,537,374.5z"/>
			<path class="st2" d="M533.9,312.1c0.7-1.4,1.4-2.8,2-4.1l-0.1,0.1c2.7-1.4,3.5-4.1,4.4-6.5c3.3-8.6,4-17.2-1.8-25.3l0-0.3l-0.4,0
				c0.1-1.7-0.4-3.1-2.2-3.8l0.1,0.1c-0.3-2.1-2.6-3-3.5-4.7c5.1-1.3,6.9,3,8,5.5c2.7,6.1,5.5,12.3,4.6,19.3
				c-0.9,7-3.6,13.2-7.3,19.2C536.9,312.8,535.4,313.2,533.9,312.1z"/>
			<path d="M529.3,341.1c-4.1-0.5-6.7-4.2-10.9-4.6c-8-2.5-15.8-1.7-23.4,1.4c-1.2,0.5-2.4,0.9-3.6,1.3c-0.2-0.2-0.4-0.4-0.6-0.6
				c6.4-5.6,14-6.5,22.3-5.4c5,0.7,9.7,2.2,13.9,4.8C528.1,338.7,530.1,339.1,529.3,341.1z"/>
			<path class="st3" d="M533.9,384.9c1.9-3.4,4-6.7,5.7-10.2c4.3-8.8,2.2-17.5-1.4-26c2.4-0.5,3.1,1.3,3.6,2.8
				c3.7,11.6,3.1,22.6-4.7,32.8C536,385.5,535.2,385.6,533.9,384.9z"/>
			<path class="st2" d="M526.8,388.4c2.9,0.2,3.9-2.6,6.2-3.4c0,0.6,0.1,1.2,0.1,1.8c-0.1,0.4,0.1,1-0.2,1.2
				c-7.7,6.7-16.8,9.3-27.2,8.6c-1.4-0.1-1.6-1.1-1.7-2.2c0.4-0.1,0.9-0.3,1.3-0.4c2.2,0,4.4,0,6.5,0c0.6,0.3,1.1,0.2,1.4-0.3
				c2.8-0.4,5.6-0.7,8.1-1.9c1.9-0.9,4.7-0.8,5.2-3.6L526.8,388.4z"/>
			<path class="st3" d="M506.9,343.6c2.5,1.5-0.7,1.4-0.7,2.2c-2,0.2-4,1-6.1,0.5c-0.3-0.9,1.7-1.8-0.3-3c-2.3-1.4-1-3.3,0.9-4.2
				c2.2-1,3.2,0.2,3.2,2.2C504,343.3,505,343.9,506.9,343.6z"/>
			<path class="st0" d="M505.3,394c-0.4,0.1-0.9,0.3-1.3,0.4c-0.8-0.1-1.6-0.2-2.4-0.3c-2.7-1-5.4-2-8.1-3c-2-1.2-4.3-2.1-5.8-3.9
				c0.4-0.4,0.9-0.9,1.3-1.3c4.9,3,10.2,5.3,16.1,5.9C505.3,392.5,505.3,393.3,505.3,394z"/>
			<path class="st2" d="M493.6,391.1c2.7,1,5.4,2,8.1,3c-0.2,0.1-0.5,0.1-0.6,0.2c-1.3,1.5-2.7,3.1-5.2,2.2
				C493,395.6,493.3,393.3,493.6,391.1z"/>
			<path class="st0" d="M487.8,387.2c-3.9-2-6.6-4.9-7.6-9l-0.1,0.1c1.5-0.5,2.4,0.3,3.2,1.3c1.9,2.1,3.9,4.3,5.8,6.4
				C488.7,386.3,488.2,386.7,487.8,387.2z"/>
			<path class="st0" d="M515,341.9c-2.3,1-4.7,0.8-7,0.4c-0.2-1,0.2-1.9,0.7-2.8c0.9-1.6,1.2-2.3,2.8-0.3
				C512.2,340.3,514.8,339.7,515,341.9z"/>
			<path class="st2" d="M499.7,329.8c0.2,0.8-0.3,1.3-0.9,1.4c-1.2,0.2-2.7,0.5-3.5-0.6c-0.5-0.6,0.1-1.6,1.2-1.6
				C497.6,329,499,328.4,499.7,329.8z"/>
			<path class="st2" d="M531.6,266.8c-1.5-0.9-3.1-1.6-4-3C530.1,263.4,532.2,263.5,531.6,266.8z"/>
			<path d="M498.7,347.9c0.1,1.1,0.6,2.4-1.1,3c-1,0.3-1.5-0.5-1.9-1.2C496.4,348.6,497.7,348.5,498.7,347.9z"/>
			<path class="st2" d="M491,262.9c-0.4-0.2-0.8-0.4-1.2-0.5c-1-0.2-1.4-0.8-1.2-1.7c0-0.2,0.3-0.4,0.4-0.4c1-0.2,1.6,0.2,1.8,1.2
				c0.1,0.4,0.3,0.7,0.5,1.1l-0.3,0L491,262.9z"/>
			<path d="M492,354.8c0.5-0.8,0.9-1.7,1.4-2.5c0.4-0.2,0.9-0.5,1.3-0.7c0.2,2-0.2,3.7-2.6,4.4l0,0
				C492.2,355.6,492.1,355.2,492,354.8z"/>
			<path class="st2" d="M527.6,263.9c-1-0.2-2-0.4-2.5-1.3c0.3-0.7,0.7-1.5,1.7-1.2C528.1,261.9,527.7,262.9,527.6,263.9z"/>
			<path class="st2" d="M482.9,269.2c-0.6,0-1.2-0.1-1.8-0.1c-0.5-1-1.5-2.4,0.5-2.6C483.3,266.4,482.6,268.2,482.9,269.2z"/>
			<path class="st2" d="M510.6,445.3c-1,0.3-1.5,0.5-2.1,0.6c-0.5,0.1-1.2-0.1-1.1-0.7c0-0.1,0.7-0.4,1-0.4
				C509,444.8,509.5,445,510.6,445.3z"/>
			<path d="M532.5,342.4c-1.4,0.1-2.8,0.4-3.3-1.4C530.9,340.2,531.6,341.6,532.5,342.4z"/>
			<polygon class="st2" points="524.4,467.8 524.3,467.4 524.7,467.4 			"/>
			<polygon class="st2" points="481.2,454 480.7,454.1 480.8,453.7 			"/>
			<path class="st3" d="M533.1,386.9c0-0.6-0.1-1.2-0.1-1.8l0.6,0C534.4,385.9,534.1,386.5,533.1,386.9z"/>
			<path class="st3" d="M500.2,346.2c0.1,1.1-0.7,1-1.4,0.8C499,346.5,499.5,346.2,500.2,346.2z"/>
			<path d="M491.3,339.3c-0.5,0.5-1.1,1.3-1.8,0.3c-0.2-0.4,0.5-0.8,1.1-0.9C490.9,338.9,491.1,339.1,491.3,339.3z"/>
			<path class="st2" d="M533,312.5c0,0,0.6-0.1,0.6-0.1c0.1,0.3,0.2,0.6,0.3,1C533.1,313.7,533.2,312.9,533,312.5z"/>
			<path class="st2" d="M480.7,269.3c0,0.2,0,0.5,0,0.7c-0.4-0.3-0.9-0.5-1.3-0.8C479.8,268.8,480.3,268.9,480.7,269.3z"/>
			<polygon class="st2" points="486.1,263.3 486,262.9 486.4,262.9 			"/>
			<path class="st0" d="M38.6,208.3c0-0.5,0-0.9-0.1-1.4c0.5,0,1,0,1.5,0.1C39.9,207.8,39.8,208.5,38.6,208.3z"/>
			<path class="st3" d="M69,268.5c0.2-0.3,0.4-0.6,0.6-0.9C70.4,268.5,69.3,268.3,69,268.5L69,268.5z"/>
			<path class="st0" d="M535.9,308c-2.4-0.4-3.3,1.6-4.7,2.7c-5,3.8-10.2,7.2-16.9,8c0-0.8-0.1-1.7-1.1-1.8
				c-4.2-0.6-2.9-1.7-0.5-3.2c0.5-0.3,0.4-1.4,0.6-2.1c5.3-2.5,10.8-4.7,15.7-7.9c2.6-1.5,3-3.7,2.7-6.3c0-3-0.3-6.1,0.1-9.1
				c0.8-5.8-5.4-9.3-5.1-14.9c-2.9-1.4-5.8-2.7-8.6-4.2c-2.2-1.2-3.7,0.7-5.5,0.9c-2-0.1-4-0.1-6-0.2c0.5-2.5-1.9-4.8-0.6-7.4
				c5-3,9.6-0.1,14.2,0.9c4.1,0.9,8,3.1,10.9,6.3c1.2,1.3,2.3,3.1,4.8,2.7l-0.1-0.1c-0.2,1.8-0.1,3.3,2.2,3.8l0.4,0l0,0.3
				c0.3,1.6,0.3,3.2,0.8,4.8c2.6,7.7,2.1,15.2-2,22.4c-0.8,1.4-1.7,2.9-1.4,4.6L535.9,308z"/>
			<path class="st1" d="M513.4,311.4c-0.2,0.7-0.1,1.9-0.6,2.1c-2.5,1.5-3.8,2.6,0.5,3.2c1,0.2,1.1,1,1.1,1.8
				c-6.7,1-13-0.6-19.3-2.3c-1-1.3-2.3-2.2-4-2.4c-4.9-4.6-9.6-9.3-11.2-16c-0.8-3.2-1.1-6.4-0.8-9.6c2.4-0.5,4.2,1.3,6.5,1.3
				c1.1,1.5-1.8,4.2,1.7,4.9l0.6,0c0.5,1.1,1,2.2,1.5,3.3c3.3,8.1,10.4,12.9,18.8,12.7l0.5,0.2l0.5,0
				C510.1,312.4,511.7,311.9,513.4,311.4z"/>
			<path class="st3" d="M485.5,289.5c-2.3,0.1-4.1-1.8-6.5-1.3c0-7.4,3-13.6,9-18.5c2.3,0.6,3.1,3.3,5.5,3.8
				c-0.1,1.6,0.4,3.1-0.7,4.7c-3.4,4.9-4.7,10.4-5.1,16.2l-0.6,0c-1.1-1.9-0.7-4-0.7-6c0-0.4-0.3-0.6-0.7-0.1
				C485.6,288.6,485.6,289.1,485.5,289.5z"/>
			<path class="st2" d="M506,262.3c-1.3,2.6,1.1,4.9,0.6,7.4l0,0c-2.7-0.2-5.1,2.6-8,0.7c-0.4-2,1.3-4.6-1.9-5.8
				C499.4,262.3,502.7,262,506,262.3z"/>
			<path class="st1" d="M496.8,264.6c3.2,1.2,1.5,3.8,1.9,5.8c-1.7,1-3.4,2.1-5.2,3.1c-2.4-0.5-3.2-3.2-5.5-3.8
				C490.7,267.6,493.3,265.4,496.8,264.6z"/>
			<path class="st1" d="M489.1,385.8c-1.9-2.1-3.9-4.2-5.8-6.4c-0.9-1-1.7-1.8-3.2-1.3c1.1-3.6-1.4-6.6-1.9-10
				c-0.4-3.7-0.9-7.2,0.3-10.8l0.5,0.2c-0.1,1.9,0,3.5,2.8,3.4c1.4-0.1,2.9,0.3,4.4,0.4c-0.2,0.7-0.5,1.4-0.7,2.1
				c-1.1,0.3-1.4,0.7-0.1,1.2c0.5,0,0.9,0,1.4,0c-0.5,4.4,3,7.2,5.2,10.4c4.2,6,10.5,8.7,18.4,8.3c2.9-0.1,5.4-1.6,8.2-1.6
				c0.2,2-1.5,2.3-2.8,2.6c-1.5,0.3-2.8,0.8-3.9,1.8c-1.7-1-3.5-0.8-4.7,0.6c-1.2,1.4-1.1,3,0.7,4.2c-0.1,0.3-0.1,0.6,0.2,0.7
				c-0.9,0.1-1.8,0.1-2.7,0.2C499.3,391.1,494.1,388.9,489.1,385.8z"/>
			<path class="st0" d="M483,344.1c2.4,2.3,0.3,3.3-1.4,4.5C480.1,346.6,483.4,345.9,483,344.1z"/>
			<path class="st0" d="M481.6,348.7c0.1,0.9-0.1,1.5-1.3,1.2C480.1,348.9,480.2,348.2,481.6,348.7z"/>
			<path d="M518.5,381.7c-2.8,0-5.3,1.5-8.2,1.6c-7.9,0.3-14.2-2.3-18.4-8.3c-2.2-3.2-5.7-6-5.2-10.4c2.2-0.7,2.2-2.6,2.8-4.2
				c0.6-1.6,0.7-3.4,2.6-4.4l0,0c0.4,1.2-0.6,2.8,1.1,3.7c-0.2,4.2-1.3,8.5,1.6,12.3c-0.4,1.9,0.2,2.9,2.5,2.4l0.1,0.1
				c-0.2,0.6,0,1.1,0.6,1.2c0.1,0,0.4-0.8,0.7-1.3l0,0c3,0.3,5.4,1.5,7.1,3.9c-1.8,0.2-3.5-0.1-4.9-1.4c-0.8-0.2-1.1,0.1-0.9,0.8
				c4.7,3.9,10,3.4,15.5,1.9c0.8-0.1-0.5-2.8,1.6-1.2c0.9,0.7,1.3,0.3,2.1,0.1c1.5-0.5,2.7-2,4.6-1.5c0,0,0,0,0,0
				c-0.7,0.8-1.3,1.6-2,2.5c-0.4,0-0.6,0.2-0.7,0.5c-0.9,0.6-2.4,0.5-2.8,1.9L518.5,381.7z"/>
			<path class="st3" d="M494.9,372c-2.9-3.8-1.9-8.1-1.6-12.3c4.6-6.9,4.6-6.9,10.6-0.7c1.3,1.3,2.9,2.4,3.2,4.4
				c-0.1,0.4-0.3,0.8-0.4,1.2c-2.4,0-4.8,0.1-7.2,0c-1.4-0.1-2.7-0.4-4.1-0.6c-0.3,1.7-1.3,3.6,0.6,5.1c0,1-0.3,2.1,0.5,3
				C495.8,372.1,495.3,372,494.9,372z"/>
			<path class="st3" d="M522.7,370.4c-0.1,1.5-0.3,2.9-2,3.6c-1.5,0.7-2.4-0.4-3.4-1.2c-0.3-0.3-0.7-0.5-0.9-0.8
				c-1-1.5-4.3-2.2-2.6-4.7c0.7-1.1,6.9-0.1,8,1C522.5,368.8,522.8,369.5,522.7,370.4z"/>
			<path class="st1" d="M501,377c1.3,1.3,3,1.6,4.9,1.4l0.1-0.1c1.2,1.9,3.2,1.1,4.9,1.2c1.6,0.1,3.2,0.1,4.8,0.2
				c-5.5,1.5-10.8,2-15.5-1.9C501,378.2,501.3,377.9,501,377z"/>
			<path d="M506.5,364.6c0.1-0.4,0.3-0.8,0.4-1.2c0.6,0.8,1.2,1.6,1.7,2.4c0.6,1,2.5,0.7,2.4,2.2c0,0.1-1.2,0.3-1.8,0.3
				c-1.9,0.1-2.8-0.8-2.6-2.5C506.7,365.4,506.6,365,506.5,364.6z"/>
			<path d="M496.3,372.1c-0.9-0.9-0.5-2-0.5-3c3.5,0.6,2.8,3.2,2.9,5.4l0,0c-0.4,0-0.8,0-1.3,0.1l-0.1-0.1
				C497.5,373.5,498,372.4,496.3,372.1z"/>
			<path d="M523.9,365.6c0-0.6-0.1-1.2,0-1.8c0.1-0.4,0.4-0.7,0.5-1.1c0.2,0.4,0.4,0.7,0.4,1.1c0.1,1.2,0.1,2.4,0,3.7
				c0,0.4-0.2,1.1-0.3,1.1c-0.8-0.1-0.6-0.7-0.6-1.2c0-0.6,0-1.2,0-1.8C524,365.6,524,365.6,523.9,365.6z"/>
			<path d="M526.4,374.5c-0.4,0-0.8,0-1.2,0c0.1-1.4-0.4-2.9,1.4-3.7c0.3,0.2,0.6,0.5,0.9,0.7C527.1,372.5,526.7,373.5,526.4,374.5z
				"/>
			<path d="M510.8,379.5c-1.7-0.1-3.7,0.6-4.9-1.2C507.6,378.5,509.6,377.4,510.8,379.5z"/>
			<path d="M525.2,374.5c0,0.7,0,1.3,0,2c-0.4,0.2-0.9,0.4-1.3,0.6c0,0,0,0,0,0C523.8,375.9,523.6,374.8,525.2,374.5z"/>
			<path d="M513,364c-0.1,0.1-0.3,0.3-0.4,0.4c-0.1-0.1-0.4-0.3-0.3-0.4c0-0.1,0.3-0.3,0.4-0.4C512.7,363.8,512.9,363.9,513,364z"/>
			<path d="M526.6,388.1c-0.5,2.8-3.3,2.7-5.2,3.6c-2.5,1.2-5.4,1.5-8.1,1.9c0-0.2,0-0.5,0.1-0.6
				C517.7,391.2,521.8,388.7,526.6,388.1z"/>
			<path d="M507.8,390.9c-1.8-1.2-1.9-2.8-0.7-4.2c1.2-1.4,2.9-1.6,4.7-0.6C512.6,389.3,511.2,390.8,507.8,390.9z"/>
			<path class="st1" d="M526.4,374.5c0.4-1,0.7-2,1.1-3c0.7-1,1.3-2,2-2.9C530.5,372.2,529.9,373.3,526.4,374.5z"/>
			<path d="M505.3,391.8c0.9-0.1,1.8-0.1,2.7-0.2c0.1,2.4,3.4,0.4,3.9,2.4c-2.2,0-4.4,0-6.5,0C505.3,393.3,505.3,392.5,505.3,391.8z
				"/>
			<path class="st1" d="M523.9,377c0.4-0.2,0.9-0.4,1.3-0.6c0.2,2.3-0.5,3.6-3.3,3C522.6,378.6,523.2,377.8,523.9,377z"/>
			<path class="st1" d="M518.4,381.8c0.3-1.4,1.8-1.3,2.8-1.9C521.5,382.1,520.1,382.2,518.4,381.8z"/>
			<path class="st1" d="M534.5,378.2c0,0.4-0.1,0.8-0.2,1.2C532.9,378.7,533.4,378.4,534.5,378.2z"/>
			<path class="st1" d="M535.6,377c-0.1,0.7-0.3,1.2-1.2,1.2C534.5,377.6,534.7,377.1,535.6,377z"/>
			<path class="st1" d="M537,374.5c-0.4,0.5-0.9,1-1.3,1.5C535.8,375.3,536.1,374.6,537,374.5z"/>
			<path class="st0" d="M492.1,356c-1.8,1-2,2.7-2.6,4.4c-0.5,1.6-0.6,3.5-2.8,4.2c-0.5,0-0.9,0-1.4,0c0.2-0.4,0.2-0.8,0.1-1.2
				c0.2-0.7,0.5-1.4,0.7-2.1c0.5-1.3,1-2.7,1.3-4c0.6-2.4,2.4-2.5,4.5-2.5C492.1,355.2,492.2,355.6,492.1,356z"/>
			<path d="M535.8,308c-0.3-1.8,0.5-3.2,1.4-4.6c4.1-7.2,4.6-14.7,2-22.4c-0.6-1.6-0.6-3.2-0.8-4.8c5.9,8.1,5.1,16.7,1.8,25.3
				C539.3,303.9,538.4,306.6,535.8,308z"/>
			<path d="M538,276c-2.3-0.5-2.4-2.1-2.2-3.8C537.6,272.9,538.1,274.3,538,276z"/>
			<path d="M513.4,311.4c-1.6,0.5-3.3,1-4.3-0.9c0.5-1.7,0.5-3.4,0.2-5c0-1.6,0-3.3,0-4.9c0.3-2.9,0.5-5.9-0.1-8.8
				c0-1.2,0.1-2.3,0.1-3.5c0-0.8,0.1-1.6,0.1-2.4c0-2.9,0-5.8,0-8.7c0-2.3-0.2-4.6,3.1-5.3c1.2-0.3,0.6-1.3,0.4-2
				c1.9-0.1,3.3-2,5.5-0.9c2.8,1.5,5.7,2.8,8.6,4.2c-0.3,5.5,5.9,9.1,5.1,14.9c-0.4,3-0.1,6.1-0.1,9.1c-1.8,1.8-2.7,3.8-2.7,6.3
				C524.1,306.7,518.7,308.9,513.4,311.4z M514.5,301.7c0.1,5.5,0.3,5.6,5.2,3.3c0.4-0.2,0.6-0.5,0.9-0.8c2.2-0.1,3.2-1.3,3.4-3.1
				c0.9-1.7,2-3.4,1.8-5.4c2.3-2.4,3-6.4,1-8.4c-3.7-3.8-7.9-7.1-12.4-10.2c-1.6-1.1-1.2,0.1-1.2,0.7c0,5.6-0.6,11.2,2.2,16.5
				c0.1,1.3,0.3,2.5,0.4,3.8C512.9,298.4,512.6,299.7,514.5,301.7z M514.2,308.6l-0.3-0.2l-0.1,0.4L514.2,308.6z"/>
			<path class="st1" d="M512.7,269.8c0.2,0.7,0.8,1.8-0.4,2c-3.2,0.7-3,3-3.1,5.3c-0.4,0-0.8,0-1.2,0c0.1-2.6-0.4-5.1-1.4-7.5l0,0
				C508.6,269.7,510.7,269.8,512.7,269.8z"/>
			<path class="st1" d="M529,303.5c0-2.4,1-4.5,2.7-6.3C532,299.7,531.6,302,529,303.5z"/>
			<path d="M506.7,269.7c1,2.4,1.5,4.9,1.4,7.5c-0.8,1.5-3.5,1.5-3.5,3.7c-2.2-0.8-4.8,1.9-6.6-0.5c-1.4-1.9-2.1-1.3-3.2,0
				c-1.6,1.8-1.9,4-2.4,6.1c-0.3,1.3,1,1.6,2.1,1.8c0,1.2,0,2.5-0.1,3.7c-1.7,1.2-0.9,1.9,0.6,2.4c-0.8,1.9,0.9,3.4,1,5.1
				c2.4,3.4,5.3,6.3,9.7,7.2c2.5,0.6,2,2.1,2.3,3.6c-8.4,0.2-15.4-4.6-18.8-12.7c-0.5-1.1-1-2.2-1.5-3.3c0.3-5.8,1.6-11.3,5.1-16.2
				c1.1-1.6,0.6-3.1,0.7-4.7c1.7-1,3.4-2.1,5.2-3.1C501.6,272.3,504,269.4,506.7,269.7z"/>
			<path class="st0" d="M495,294.4c-1.5-0.5-2.3-1.2-0.6-2.4c3.3-1.5,6.7-1.5,10.2-0.7c1.5,0.3,2.9,0.9,4.5,0.5
				c0.6,2.9,0.4,5.9,0.1,8.8c-1.6,1.7-2.6,3.3,0,4.9c0.3,1.7,0.3,3.4-0.2,5l-0.5,0l-0.5-0.2c-0.3-1.5,0.2-3-2.3-3.6
				c-4.3-1-7.3-3.8-9.7-7.2C499,297.2,497.3,295.8,495,294.4z M506.7,296.1c-2.2-0.3-3.7-0.8-5.2-0.6c-0.8,0.1-2.1,1.4-2,2
				c0.3,1.2,1.7,0.7,2.6,0.5C503.5,297.6,504.8,296.9,506.7,296.1z"/>
			<path class="st0" d="M485.5,289.5c0.1-0.4,0.1-0.9,0.3-1.2c0.3-0.4,0.6-0.3,0.7,0.1c0.1,2-0.3,4.1,0.7,6
				C483.7,293.6,486.7,290.9,485.5,289.5z"/>
			<path class="st3" d="M485.5,363.4c0.1,0.4,0.1,0.8-0.1,1.2C484.1,364.1,484.4,363.7,485.5,363.4z"/>
			<path class="st0" d="M496.3,372.1c1.7,0.3,1.2,1.4,1,2.3c-2.3,0.5-2.9-0.5-2.5-2.4C495.3,372,495.8,372.1,496.3,372.1z"/>
			<path class="st0" d="M500,377.8c-0.1-0.7,0.1-1,0.9-0.8C501.3,377.9,501,378.2,500,377.8z"/>
			<path class="st0" d="M497.4,374.5c0.4,0,0.8,0,1.3-0.1c-0.2,0.4-0.5,1.3-0.7,1.3C497.4,375.6,497.3,375.1,497.4,374.5z"/>
			<path class="st0" d="M515.5,294.3c-2.8-5.3-2.1-10.9-2.2-16.5c0-0.6-0.4-1.8,1.2-0.7c4.4,3.1,8.7,6.4,12.4,10.2
				c1.9,2,1.2,6-1,8.4c-0.6-1.1-0.4-2.7-2.8-2.4C520.5,293.6,518,293.4,515.5,294.3z"/>
			<path class="st3" d="M509,291.8c-1.6,0.4-3-0.2-4.5-0.5c-3.4-0.8-6.9-0.8-10.2,0.7c0-1.2,0-2.5,0.1-3.7c0.1-0.4,0.3-0.8,0.4-1.1
				c2.4-5,3.7-5.3,8.4-2.2c1.8,1.2,3.2,3.4,5.9,3.3C509.1,289.5,509.1,290.6,509,291.8z"/>
			<path class="st0" d="M509.1,288.3c-2.7,0.1-4-2.1-5.9-3.3c-4.6-3.1-5.9-2.8-8.4,2.2c-0.2,0.4-0.3,0.8-0.4,1.1
				c-1.1-0.2-2.4-0.4-2.1-1.8c0.5-2.1,0.8-4.4,2.4-6.1c1.1-1.3,1.8-1.8,3.2,0c1.7,2.3,4.4-0.3,6.6,0.5c1.3,0.2,1.6,1.1,2,2.1
				c0.4,1.3,0.7,2.8,2.7,2.9C509.2,286.7,509.2,287.5,509.1,288.3z"/>
			<path class="st3" d="M515.5,294.3c2.4-1,5-0.7,7.5-1c2.4-0.3,2.2,1.3,2.8,2.4c0.1,2-0.9,3.7-1.8,5.4c-1.8-0.1-3.4-0.5-4.7-1.8
				c-0.9-0.9-1.9-1.7-3.4-1.2C515.8,296.9,515.7,295.6,515.5,294.3z"/>
			<path class="st0" d="M515.9,298.1c1.5-0.4,2.5,0.3,3.4,1.2c1.3,1.2,2.9,1.6,4.7,1.8c-0.3,1.9-1.3,3.1-3.4,3.1
				c-1.2,0.1-2.1-0.5-2.8-1.3c-0.9-1.2-2-1.4-3.4-1.2C512.6,299.7,512.9,298.4,515.9,298.1z"/>
			<path class="st3" d="M509.2,285.9c-2-0.1-2.2-1.6-2.7-2.9c-0.3-1-0.7-1.9-2-2.1c-0.1-2.2,2.7-2.2,3.5-3.7c0.4,0,0.8,0,1.2,0
				C509.2,280.1,509.2,283,509.2,285.9z"/>
			<path class="st1" d="M514.5,301.7c1.4-0.2,2.5,0,3.4,1.2c0.6,0.8,1.6,1.4,2.8,1.3c-0.3,0.3-0.6,0.6-0.9,0.8
				C514.8,307.4,514.5,307.3,514.5,301.7z"/>
			<path class="st1" d="M509.2,305.5c-2.7-1.6-1.7-3.3,0-4.9C509.2,302.2,509.2,303.9,509.2,305.5z"/>
			<polygon class="st0" points="514.2,308.6 513.8,308.7 513.8,308.3 			"/>
			<path class="st1" d="M495,294.4c2.3,1.4,4,2.8,1,5.1C495.9,297.8,494.2,296.3,495,294.4z"/>
			<path class="st1" d="M506.7,296.1c-1.9,0.8-3.2,1.5-4.6,1.9c-0.9,0.2-2.3,0.8-2.6-0.5c-0.1-0.6,1.2-1.9,2-2
				C503,295.3,504.5,295.8,506.7,296.1z"/>
		</g>
	</g>
	<circle cx="509.4" cy="289.8" r="34.4"/>
	<circle cx="508.4" cy="365.8" r="34.4"/>
	<circle class="st1" cx="509.4" cy="289.8" r="30"/>
	<circle class="st1" cx="508.4" cy="365.8" r="30"/>
	<circle class="st3" cx="509.4" cy="289.8" r="25"/>
	<circle class="st3" cx="508.4" cy="365.8" r="25"/>
	<g>
		<polygon points="511.5,259 509.5,292 507.5,259 		"/>
	</g>
	<g>
		<polygon points="531.9,346.6 506.5,367.8 529.1,343.7 		"/>
	</g>
</g>
</svg>
